<?xml version="1.0" encoding="UTF-8" standalone="no"?>
<!DOCTYPE svg PUBLIC "-//W3C//DTD SVG 1.1//EN" "http://www.w3.org/Graphics/SVG/1.1/DTD/svg11.dtd">
<svg xmlns="http://www.w3.org/2000/svg" version="1.1" viewBox="0.00 0.00 1942.00 465.00">
<g stroke-width="2.00" fill="none" stroke-linecap="butt">
<path stroke="#d98496" vector-effect="non-scaling-stroke" d="
  M 83.58 240.50
  Q 84.36 242.24 83.75 244.74"
/>
<path stroke="#fae492" vector-effect="non-scaling-stroke" d="
  M 83.75 244.74
  Q 83.58 244.75 83.42 244.75
  Q 83.05 244.75 82.76 244.52
  C 70.26 234.43 56.45 223.59 41.16 216.73
  C 40.10 216.26 38.78 215.57 37.93 216.51
  A 1.23 1.23 0.0 0 0 38.03 218.26
  Q 53.96 232.05 68.75 245.26
  Q 85.94 260.60 89.86 265.65
  C 92.91 269.60 87.09 274.10 83.94 270.29
  Q 63.25 245.23 39.33 226.46
  Q 37.69 225.17 36.10 224.24
  A 0.50 0.50 0.0 0 0 35.44 224.95
  C 36.64 226.70 37.75 228.56 39.09 230.15
  Q 58.66 253.44 76.63 277.89
  A 0.72 0.71 55.6 0 1 76.44 278.92
  C 75.65 279.42 74.79 279.19 74.14 278.51
  Q 51.50 254.50 25.26 234.49
  Q 24.93 234.24 24.53 234.25
  A 0.28 0.28 0.0 0 0 24.30 234.69
  C 35.21 250.72 46.83 267.20 60.48 281.02
  C 72.38 293.05 83.78 293.78 97.68 283.48
  A 1.81 1.80 82.1 0 1 100.44 285.57
  Q 95.12 299.66 102.11 314.18"
/>
<path stroke="#f0bb8b" vector-effect="non-scaling-stroke" d="
  M 102.11 314.18
  L 73.14 303.83"
/>
<path stroke="#fae492" vector-effect="non-scaling-stroke" d="
  M 73.14 303.83
  L 9.13 233.51
  A 0.96 0.96 0.0 0 0 7.57 234.59
  C 22.77 264.45 39.33 297.10 66.56 317.84"
/>
<path stroke="#eb869c" vector-effect="non-scaling-stroke" d="
  M 66.56 317.84
  C 40.34 341.82 31.01 371.09 43.69 405.35
  Q 44.39 407.25 45.93 407.85
  Q 56.43 411.97 61.61 402.64
  A 1.34 1.31 54.0 0 0 61.75 401.70
  Q 60.86 397.60 60.02 393.50
  C 54.08 364.56 68.28 341.96 89.44 324.17"
/>
<path stroke="#f0bb8b" vector-effect="non-scaling-stroke" d="
  M 89.44 324.17
  Q 88.96 324.07 89.62 323.98
  Q 89.84 323.96 90.00 324.11
  Q 110.37 343.64 120.66 370.01
  Q 121.25 371.54 119.52 372.77
  Q 93.72 391.22 60.86 417.86
  C 39.71 435.00 63.69 459.76 83.83 457.69
  Q 89.61 457.09 100.38 451.42
  Q 132.40 434.56 159.48 410.39
  A 1.54 1.51 20.0 0 1 160.30 410.02
  Q 162.42 409.78 163.68 410.82
  Q 183.99 427.56 208.49 442.51
  C 218.92 448.88 231.88 455.67 243.61 457.49
  C 253.64 459.04 262.32 454.25 268.38 446.82
  C 275.90 437.59 277.46 427.88 267.28 419.72
  Q 233.78 392.87 211.67 377.23
  C 209.56 375.74 208.41 373.74 209.09 371.28
  C 213.81 354.10 222.73 336.98 236.12 324.88"
/>
<path stroke="#d98496" vector-effect="non-scaling-stroke" d="
  M 236.12 324.88
  C 263.21 342.98 273.37 367.17 265.06 399.55
  C 264.42 402.05 264.75 403.36 266.46 405.11
  Q 272.36 411.14 280.08 407.44
  A 1.30 1.27 -1.6 0 0 280.71 406.79
  C 295.44 372.61 286.98 341.46 258.81 317.71"
/>
<path stroke="#f0bb8b" vector-effect="non-scaling-stroke" d="
  M 258.81 317.71
  C 286.92 298.04 302.47 264.16 317.46 234.54
  A 1.40 1.40 0.0 0 0 315.17 232.97
  L 264.77 288.73"
/>
<path stroke="#fae492" vector-effect="non-scaling-stroke" d="
  M 264.77 288.73
  C 263.19 289.56 259.64 292.89 258.10 290.82
  A 2.32 2.32 0.0 0 1 258.18 287.96
  Q 278.87 262.98 299.58 237.10
  Q 300.47 235.99 299.58 235.43
  A 0.82 0.82 0.0 0 0 298.56 235.55
  L 255.26 279.07"
/>
<path stroke="#f0bb8b" vector-effect="non-scaling-stroke" d="
  M 255.26 279.07
  Q 253.41 279.11 253.20 276.97
  Q 253.08 275.75 255.23 272.93
  Q 272.55 250.23 290.91 228.31
  A 0.58 0.58 0.0 0 0 290.80 227.47
  C 289.01 226.19 287.35 226.83 285.87 228.42
  Q 264.79 251.24 241.74 272.42"
/>
<path stroke="#fae492" vector-effect="non-scaling-stroke" d="
  M 241.74 272.42
  Q 239.22 269.65 241.30 267.30
  Q 263.94 241.72 288.44 218.37
  A 0.85 0.85 0.0 0 0 288.05 216.93
  Q 285.92 216.43 284.38 217.59
  Q 266.31 231.22 247.67 245.34"
/>
<path stroke="#d98496" vector-effect="non-scaling-stroke" d="
  M 247.67 245.34
  L 250.18 176.95
  A 1.35 1.35 0.0 0 1 251.26 175.68
  C 254.50 175.04 258.28 174.86 261.15 174.29
  C 325.70 161.60 342.37 80.12 285.67 44.54
  C 279.51 40.67 268.99 35.34 261.75 29.95
  Q 257.87 27.07 252.96 23.04
  Q 238.68 11.33 218.99 7.32"
/>
<path stroke="#eb869c" vector-effect="non-scaling-stroke" d="
  M 218.99 7.32
  Q 192.98 3.09 168.72 14.31
  A 2.07 2.00 -56.3 0 1 167.80 14.51
  C 166.80 14.48 165.98 14.57 165.05 14.16
  C 138.67 2.49 113.52 0.88 88.42 15.17
  Q 87.52 15.69 78.52 21.92
  Q 70.47 27.50 61.24 30.73
  Q 51.01 34.30 49.98 34.77
  C 13.80 51.02 -10.07 90.59 4.04 130.20
  C 15.33 161.88 45.39 175.15 77.17 176.39
  A 1.90 1.89 89.1 0 1 78.98 178.15
  L 83.58 240.50"
/>
<path stroke="#c50b33" vector-effect="non-scaling-stroke" d="
  M 218.99 7.32
  Q 208.00 17.66 201.99 31.72"
/>
<path stroke="#eb869c" vector-effect="non-scaling-stroke" d="
  M 201.99 31.72
  Q 185.65 32.70 172.49 41.45
  C 170.95 42.47 168.10 42.83 166.73 42.04
  C 147.63 31.04 126.71 24.47 106.07 37.33
  C 93.13 45.39 83.69 59.32 77.02 73.19
  A 0.85 0.85 0.0 0 1 75.56 73.31
  C 74.87 72.29 74.54 71.14 75.00 69.88
  C 76.96 64.46 80.85 55.38 81.02 49.82
  A 1.03 1.02 -5.5 0 0 79.77 48.79
  C 61.00 53.00 43.00 63.82 31.98 79.75
  C 16.30 102.40 21.93 132.90 48.52 143.98
  Q 73.85 154.54 100.34 143.56"
/>
<path stroke="#c50b33" vector-effect="non-scaling-stroke" d="
  M 100.34 143.56
  L 101.95 170.11"
/>
<path stroke="#eb869c" vector-effect="non-scaling-stroke" d="
  M 101.95 170.11
  Q 100.57 199.16 105.13 228.68"
/>
<path stroke="#c50b33" vector-effect="non-scaling-stroke" d="
  M 105.13 228.68
  L 83.58 240.50"
/>
<path stroke="#d98496" vector-effect="non-scaling-stroke" d="
  M 101.95 170.11
  C 122.53 154.18 143.21 142.61 168.95 136.76
  A 0.76 0.76 0.0 0 0 169.17 135.37
  Q 167.74 134.52 165.52 134.30
  C 144.36 132.14 119.52 133.22 100.34 143.56"
/>
<path stroke="#d46829" vector-effect="non-scaling-stroke" d="
  M 247.67 245.34
  L 236.39 258.23"
/>
<path stroke="#d98496" vector-effect="non-scaling-stroke" d="
  M 236.39 258.23
  L 233.72 259.26"
/>
<path stroke="#ca3f22" vector-effect="non-scaling-stroke" d="
  M 233.72 259.26
  L 211.96 257.50"
/>
<path stroke="#c50b33" vector-effect="non-scaling-stroke" d="
  M 211.96 257.50
  L 210.69 255.88"
/>
<path stroke="#d98496" vector-effect="non-scaling-stroke" d="
  M 210.69 255.88
  L 223.55 246.47
  A 1.13 1.13 0.0 0 0 223.36 244.53
  Q 168.89 218.84 112.56 241.72
  Q 107.50 243.77 105.54 246.40"
/>
<path stroke="#c50b33" vector-effect="non-scaling-stroke" d="
  M 105.54 246.40
  Q 102.79 250.73 104.14 255.96
  A 0.97 0.97 0.0 0 1 103.94 256.82
  Q 102.51 258.47 100.19 258.21
  A 1.01 0.99 22.6 0 0 99.31 258.56
  L 98.94 259.02"
/>
<path stroke="#d46829" vector-effect="non-scaling-stroke" d="
  M 98.94 259.02
  Q 91.58 252.19 83.99 245.59
  Q 83.79 245.42 83.75 245.21
  Q 83.72 244.99 83.75 244.74"
/>
<path stroke="#d98496" vector-effect="non-scaling-stroke" d="
  M 105.13 228.68
  Q 145.46 210.86 188.40 215.99
  C 200.91 217.49 213.06 222.04 224.88 225.93
  A 1.41 1.41 0.0 0 0 226.73 224.67
  Q 228.20 199.58 229.67 174.65
  C 229.86 171.50 229.33 170.80 227.29 168.72
  Q 207.08 148.15 178.51 142.23
  A 0.46 0.45 -51.2 0 1 178.42 141.37
  Q 192.50 135.02 208.11 134.27
  C 217.87 133.81 226.51 137.25 236.04 140.72
  C 253.84 147.19 278.70 137.91 287.54 120.81
  Q 292.38 111.44 291.42 100.80
  C 289.45 78.93 272.95 61.08 252.46 54.17
  Q 251.95 53.99 251.62 53.57
  Q 248.90 50.04 245.10 52.49
  A 1.60 1.59 -36.5 0 1 243.00 52.18
  C 232.41 39.52 218.84 31.41 201.99 31.72"
/>
<path stroke="#eb869c" vector-effect="non-scaling-stroke" d="
  M 210.69 255.88
  L 210.32 256.09
  Q 209.96 256.28 209.58 256.17
  Q 167.07 243.91 124.46 255.81
  Q 123.64 256.04 123.00 256.04
  Q 121.94 256.04 121.51 255.78
  Q 113.99 251.24 105.54 246.40"
/>
<path stroke="#ea9f1e" vector-effect="non-scaling-stroke" d="
  M 241.74 272.42
  C 242.76 276.42 244.80 285.87 249.21 286.06
  C 252.88 286.21 254.68 282.16 255.26 279.07"
/>
<path stroke="#ea9f1e" vector-effect="non-scaling-stroke" d="
  M 264.77 288.73
  C 257.35 303.46 233.94 310.91 219.63 316.69"
/>
<path stroke="#fae492" vector-effect="non-scaling-stroke" d="
  M 219.63 316.69
  Q 228.91 300.01 225.61 281.32
  C 225.41 280.18 225.83 278.54 226.39 277.52
  Q 231.55 268.08 236.39 258.23"
/>
<path stroke="#f0bb8b" vector-effect="non-scaling-stroke" d="
  M 233.72 259.26
  L 223.77 271.52
  A 7.03 6.98 65.8 0 0 222.21 275.67
  L 221.38 298.66"
/>
<path stroke="#f0bb8b" vector-effect="non-scaling-stroke" d="
  M 209.12 292.01
  L 208.31 286.89"
/>
<path stroke="#ca3f22" vector-effect="non-scaling-stroke" d="
  M 208.31 286.89
  Q 211.22 278.97 209.80 271.08"
/>
<path stroke="#e56b2f" vector-effect="non-scaling-stroke" d="
  M 98.94 259.02
  L 102.34 262.02"
/>
<path stroke="#ea9f1e" vector-effect="non-scaling-stroke" d="
  M 102.34 262.02
  L 110.58 274.21
  A 2.30 2.29 40.8 0 1 110.75 276.46
  C 103.11 292.77 101.66 309.21 115.26 322.67"
/>
<path stroke="#fae492" vector-effect="non-scaling-stroke" d="
  M 115.26 322.67
  Q 114.50 322.91 113.71 323.95"
/>
<path stroke="#ea9f1e" vector-effect="non-scaling-stroke" d="
  M 113.71 323.95
  L 102.11 314.18"
/>
<path stroke="#db4228" vector-effect="non-scaling-stroke" d="
  M 211.96 257.50
  L 209.80 271.08"
/>
<path stroke="#c50b33" vector-effect="non-scaling-stroke" d="
  M 209.80 271.08
  Q 171.63 257.99 133.06 268.60
  C 126.45 270.42 129.19 280.48 131.63 284.48"
/>
<path stroke="#eb869c" vector-effect="non-scaling-stroke" d="
  M 131.63 284.48
  C 130.26 286.23 128.35 290.56 131.22 291.86
  Q 131.66 292.06 132.13 291.91
  Q 136.83 290.37 141.56 288.96
  C 161.77 282.93 180.46 283.63 200.29 290.30
  Q 204.66 291.77 209.12 292.01"
/>
<path stroke="#db4228" vector-effect="non-scaling-stroke" d="
  M 209.12 292.01
  L 221.38 298.66"
/>
<path stroke="#eb869c" vector-effect="non-scaling-stroke" d="
  M 221.38 298.66
  L 214.51 316.19"
/>
<path stroke="#e56b2f" vector-effect="non-scaling-stroke" d="
  M 203.06 310.80
  Q 199.69 308.54 197.02 311.42"
/>
<path stroke="#eb869c" vector-effect="non-scaling-stroke" d="
  M 197.02 311.42
  C 183.97 296.02 145.38 307.98 129.75 315.46"
/>
<path stroke="#ca3f22" vector-effect="non-scaling-stroke" d="
  M 258.81 317.71
  Q 248.58 323.12 236.12 324.88"
/>
<path stroke="#db4228" vector-effect="non-scaling-stroke" d="
  M 89.44 324.17
  L 88.95 323.83
  Q 88.56 323.57 88.09 323.56
  Q 77.05 323.50 66.60 317.18"
/>
<path stroke="#ea9f1e" vector-effect="non-scaling-stroke" d="
  M 66.60 317.18
  Q 73.99 311.52 73.14 303.83"
/>
<path stroke="#f0bb8b" vector-effect="non-scaling-stroke" d="
  M 113.71 323.95
  Q 120.37 340.95 132.52 354.38"
/>
<path stroke="#ea9f1e" vector-effect="non-scaling-stroke" d="
  M 132.52 354.38
  Q 131.73 355.69 132.07 357.87
  Q 132.14 358.35 132.44 358.73
  C 144.97 374.51 161.07 389.27 176.63 402.06
  C 192.46 415.06 209.12 427.18 227.27 436.00
  C 233.26 438.91 247.67 443.74 254.17 440.67
  C 261.04 437.43 260.14 430.08 254.59 426.16
  Q 190.55 380.83 130.30 330.59
  C 127.65 328.39 124.94 327.35 122.66 330.59"
/>
<path stroke="#f0bb8b" vector-effect="non-scaling-stroke" d="
  M 122.66 330.59
  L 115.26 322.67"
/>
<path stroke="#db4228" vector-effect="non-scaling-stroke" d="
  M 102.34 262.02
  Q 106.93 256.92 113.61 258.05
  Q 116.32 258.51 117.10 259.92
  Q 124.38 273.06 119.68 286.90
  C 118.63 290.01 113.30 297.19 114.44 300.05
  Q 119.18 311.95 129.75 315.46"
/>
<path stroke="#f0bb8b" vector-effect="non-scaling-stroke" d="
  M 129.75 315.46
  L 162.25 338.19
  A 2.76 2.76 0.0 0 0 165.43 338.17
  L 198.35 314.58"
/>
<path stroke="#ea9f1e" vector-effect="non-scaling-stroke" d="
  M 198.35 314.58
  Q 201.68 313.96 203.06 310.80"
/>
<path stroke="#db4228" vector-effect="non-scaling-stroke" d="
  M 203.06 310.80
  L 214.51 316.19"
/>
<path stroke="#f0bb8b" vector-effect="non-scaling-stroke" d="
  M 214.51 316.19
  Q 196.68 333.24 176.11 345.64
  Q 173.76 347.05 175.37 348.61
  Q 178.99 352.11 191.78 362.74
  C 193.10 363.83 194.88 362.37 195.44 360.94
  Q 204.77 337.23 219.63 316.69"
/>
<path stroke="#d98496" vector-effect="non-scaling-stroke" d="
  M 208.31 286.89
  C 183.05 278.25 157.09 276.86 131.63 284.48"
/>
<path stroke="#fae492" vector-effect="non-scaling-stroke" d="
  M 122.66 330.59
  C 153.53 360.94 188.31 388.37 223.38 412.51
  Q 226.18 414.43 222.89 413.61
  C 186.93 404.70 157.79 380.24 132.52 354.38"
/>
<path stroke="#fae492" vector-effect="non-scaling-stroke" d="
  M 197.02 311.42
  L 198.35 314.58"
/>
<path stroke="#e56b2f" vector-effect="non-scaling-stroke" d="
  M 66.60 317.18
  Q 66.58 317.51 66.56 317.84"
/>
<path stroke="#da8080" vector-effect="non-scaling-stroke" d="
  M 358.72 375.78
  C 375.70 390.17 395.45 383.94 411.09 371.79
  A 1.43 1.39 26.2 0 1 411.98 371.50
  C 412.85 371.52 413.92 371.46 414.74 371.73
  C 469.58 390.26 517.80 374.37 556.42 332.68
  C 601.13 284.41 639.71 192.07 584.29 135.84
  C 559.54 110.74 520.09 98.50 485.56 99.83
  C 465.56 100.60 438.17 106.70 421.04 118.43
  C 384.81 143.23 388.67 196.99 425.36 218.89
  C 429.19 221.17 427.80 222.35 426.41 226.07
  Q 411.74 265.33 390.47 301.45
  C 389.71 302.74 386.77 304.08 384.96 304.16
  C 346.96 305.81 328.41 350.09 358.72 375.78"
/>
<path stroke="#fae492" vector-effect="non-scaling-stroke" d="
  M 1121.06 326.16
  L 1124.08 326.74"
/>
<path stroke="#da8080" vector-effect="non-scaling-stroke" d="
  M 1124.08 326.74
  C 1124.83 352.91 1142.20 379.92 1170.97 378.11
  C 1186.01 377.17 1199.67 367.12 1210.60 357.87
  A 1.53 1.53 0.0 0 1 1212.94 358.33
  C 1228.12 387.39 1252.44 391.99 1278.23 371.98
  A 1.16 1.15 -61.1 0 1 1279.04 371.74
  C 1279.91 371.82 1280.95 371.65 1281.74 371.91
  C 1334.98 388.90 1384.31 375.84 1421.79 334.80
  C 1446.33 307.93 1464.69 275.33 1473.58 239.82
  C 1486.03 190.17 1473.58 141.74 1425.98 116.89
  C 1394.62 100.51 1358.34 96.34 1323.82 103.82
  C 1294.66 110.13 1266.22 126.90 1262.81 159.70
  C 1260.24 184.47 1272.85 207.21 1294.09 220.04
  A 2.13 2.12 26.1 0 1 1294.98 222.62
  Q 1279.27 263.53 1257.45 301.69
  Q 1257.17 302.18 1255.84 303.10
  Q 1255.40 303.41 1254.86 303.44
  Q 1238.33 304.40 1224.77 313.81
  A 1.19 1.18 -36.7 0 1 1223.17 313.58
  C 1213.63 301.74 1203.85 295.57 1187.97 300.94
  C 1185.48 301.79 1184.20 300.42 1185.07 297.93
  Q 1191.17 280.44 1197.89 261.51
  A 2.72 2.71 10.6 0 1 1200.53 259.71
  C 1210.55 260.01 1224.66 262.06 1234.15 257.01
  C 1259.75 243.39 1256.04 214.23 1231.45 202.32
  A 1.45 1.45 0.0 0 1 1230.87 200.22
  C 1235.44 193.26 1241.14 185.04 1242.40 176.68
  C 1244.81 160.71 1233.27 142.98 1217.13 140.46
  C 1202.84 138.23 1189.41 145.74 1181.71 157.93
  Q 1177.59 164.47 1173.38 170.95
  C 1169.59 176.80 1152.15 200.45 1145.25 199.99
  Q 1134.35 199.27 1126.13 204.98
  A 1.57 1.56 -38.8 0 1 1124.09 204.77
  Q 1120.15 200.55 1115.53 196.48
  C 1070.86 157.10 1013.31 207.87 989.63 244.44
  A 0.99 0.98 60.4 0 1 987.82 243.94
  C 987.20 229.16 984.19 217.67 973.19 207.31
  C 931.72 168.23 869.45 203.57 837.39 235.44
  A 0.59 0.59 0.0 0 1 836.39 234.97
  C 840.66 180.98 781.20 195.81 755.00 212.33
  A 1.71 1.71 0.0 0 1 752.74 211.93
  C 750.43 208.95 747.86 205.75 744.87 203.60
  C 725.26 189.47 701.06 203.98 698.51 226.25
  C 693.96 265.90 689.98 304.02 682.74 344.75
  Q 681.54 351.53 683.02 358.34
  C 688.25 382.37 717.71 388.26 734.43 372.68
  C 744.52 363.28 745.76 350.75 748.71 338.00
  C 753.95 315.39 762.92 291.05 777.28 272.54
  C 784.12 263.73 791.40 257.75 802.81 256.31
  Q 810.79 255.30 819.16 254.19
  A 0.58 0.58 0.0 0 1 819.68 255.13
  C 793.19 287.09 780.94 336.51 821.49 364.49
  Q 827.70 368.77 832.79 370.79
  C 881.09 390.03 931.62 382.45 974.00 353.42
  A 2.18 2.17 -37.0 0 1 976.90 353.82
  C 1019.85 405.83 1090.61 370.01 1121.06 326.16"
/>
<path stroke="#d46412" vector-effect="non-scaling-stroke" d="
  M 1124.08 326.74
  L 1124.67 305.21"
/>
<path stroke="#da8080" vector-effect="non-scaling-stroke" d="
  M 1124.67 305.21
  L 1130.78 274.66
  A 0.96 0.95 81.0 0 0 1129.38 273.64
  C 1101.01 289.54 1087.18 268.50 1080.55 244.47
  Q 1079.84 241.86 1076.79 241.59
  A 1.57 1.54 -56.3 0 0 1075.92 241.77
  Q 1035.54 264.69 1023.51 309.44
  C 1021.52 316.83 1024.14 320.76 1032.16 320.09
  Q 1046.27 318.90 1057.27 310.35
  C 1061.72 306.89 1066.21 301.29 1070.34 297.11
  C 1088.60 278.63 1110.50 283.88 1122.07 305.65"
/>
<path stroke="#d46412" vector-effect="non-scaling-stroke" d="
  M 1122.07 305.65
  L 1121.06 326.16"
/>
<path stroke="#fae492" vector-effect="non-scaling-stroke" d="
  M 1124.67 305.21
  L 1122.07 305.65"
/>
<path stroke="#da8080" vector-effect="non-scaling-stroke" d="
  M 703.43 149.48
  A 28.74 28.74 0.0 0 0 674.69 120.74
  A 28.74 28.74 0.0 0 0 645.95 149.48
  A 28.74 28.74 0.0 0 0 674.69 178.22
  A 28.74 28.74 0.0 0 0 703.43 149.48"
/>
<path stroke="#da8080" vector-effect="non-scaling-stroke" d="
  M 1571.42 149.52
  A 28.70 28.70 0.0 0 0 1542.72 120.82
  A 28.70 28.70 0.0 0 0 1514.02 149.52
  A 28.70 28.70 0.0 0 0 1542.72 178.22
  A 28.70 28.70 0.0 0 0 1571.42 149.52"
/>
<path stroke="#da8080" vector-effect="non-scaling-stroke" d="
  M 656.26 291.95
  Q 656.49 291.27 657.11 290.06
  Q 668.75 267.37 679.76 244.37
  C 682.72 238.18 685.79 232.16 687.60 225.83
  C 697.05 192.82 660.41 170.80 638.07 199.58
  C 634.44 204.26 631.73 209.56 628.83 214.91
  C 609.26 250.96 591.33 288.22 588.55 329.73
  Q 587.46 345.98 595.42 360.15
  C 617.37 399.27 657.56 369.36 674.22 345.19
  C 681.84 334.15 686.85 317.24 677.57 305.43
  C 672.75 299.29 665.39 296.64 657.94 294.91
  A 2.31 2.30 -74.6 0 1 656.26 291.95"
/>
<path stroke="#da8080" vector-effect="non-scaling-stroke" d="
  M 1556.49 223.70
  C 1556.85 221.33 1557.65 218.77 1557.80 216.33
  C 1559.28 192.09 1530.39 177.15 1511.66 192.66
  Q 1507.74 195.90 1502.65 204.42
  C 1486.27 231.87 1472.21 260.18 1462.47 291.43
  C 1457.20 308.34 1453.67 328.62 1457.65 345.78
  C 1460.68 358.86 1467.87 372.11 1481.04 376.94
  C 1509.84 387.49 1544.12 351.41 1550.98 326.90
  Q 1551.36 325.54 1552.74 325.25
  L 1567.99 322.03
  A 0.73 0.73 0.0 0 1 1568.77 323.10
  C 1559.22 339.76 1559.66 362.22 1579.72 370.78
  C 1592.84 376.38 1604.54 373.31 1614.81 364.30
  C 1629.78 351.15 1641.09 333.38 1651.64 316.48
  A 1.34 1.34 0.0 0 1 1654.10 317.36
  C 1652.42 330.29 1651.83 343.88 1654.50 356.75
  C 1658.47 375.83 1673.46 389.67 1693.24 388.04
  C 1713.72 386.34 1734.57 368.36 1746.33 352.59
  A 1.87 1.87 0.0 0 1 1749.06 352.30
  C 1776.39 376.25 1810.82 386.02 1846.84 380.39
  C 1872.66 376.36 1905.77 365.58 1924.52 346.53
  C 1953.99 316.58 1917.78 279.52 1886.33 301.81
  Q 1883.11 304.09 1879.83 306.30
  Q 1843.62 330.77 1801.25 318.14
  A 0.36 0.36 0.0 0 1 1801.21 317.47
  Q 1803.25 316.60 1805.47 317.04
  C 1841.38 324.18 1886.75 300.69 1912.33 277.35
  Q 1919.50 270.80 1924.11 261.54
  C 1937.48 234.68 1924.07 207.06 1897.55 195.95
  C 1840.34 171.97 1775.64 230.70 1747.77 274.33
  Q 1746.87 275.74 1745.93 275.93
  Q 1730.00 279.24 1721.57 293.08
  Q 1720.37 295.05 1718.93 293.57
  A 2.00 1.97 -59.5 0 1 1718.44 291.63
  C 1722.59 277.18 1726.40 258.77 1723.75 244.32
  C 1721.08 229.75 1711.51 212.95 1696.67 207.92
  C 1679.62 202.15 1661.79 211.11 1649.68 222.60
  A 1.70 1.69 -36.7 0 1 1647.05 222.22
  C 1636.82 204.53 1623.97 190.82 1602.25 193.72
  C 1584.64 196.06 1567.73 209.85 1557.81 224.22
  Q 1556.02 226.82 1556.49 223.70"
/>
<path stroke="#d46412" vector-effect="non-scaling-stroke" d="
  M 366.22 364.53
  C 379.90 375.98 395.05 370.99 405.77 358.44
  C 406.65 357.41 408.02 356.38 409.25 356.73
  Q 422.56 360.62 430.17 362.58
  C 489.29 377.83 537.20 345.56 567.40 297.38
  C 581.10 275.52 593.35 250.94 597.50 225.22
  C 603.47 188.21 591.95 154.28 560.34 132.91
  C 522.90 107.61 476.62 105.99 435.68 124.59
  C 392.14 144.38 403.86 198.58 443.68 213.30
  Q 445.43 213.95 444.79 215.70
  Q 425.99 267.43 397.95 314.95
  Q 397.48 315.75 396.70 316.16
  Q 395.50 316.78 395.01 316.79
  C 375.05 317.42 348.81 328.39 358.65 353.95
  Q 361.07 360.22 366.22 364.53"
/>
<path stroke="#d46412" vector-effect="non-scaling-stroke" d="
  M 1224.43 347.06
  C 1227.28 369.80 1250.34 379.38 1267.99 363.23
  C 1269.82 361.55 1274.28 356.01 1276.94 356.82
  Q 1300.77 364.10 1307.50 365.09
  C 1388.23 377.02 1444.34 303.86 1462.39 234.82
  C 1484.08 151.89 1410.91 105.15 1337.76 113.58
  C 1312.09 116.54 1280.14 130.28 1276.21 159.74
  C 1272.45 187.95 1286.88 204.10 1311.32 213.81
  A 1.26 1.26 0.0 0 1 1312.04 215.42
  Q 1292.84 267.42 1264.73 315.08
  C 1264.07 316.21 1262.74 317.44 1261.52 317.30
  C 1242.20 315.12 1221.53 323.99 1224.43 347.06"
/>
<path stroke="#d46412" vector-effect="non-scaling-stroke" d="
  M 1132.34 249.09
  C 1134.52 254.30 1138.94 257.70 1144.64 257.98
  C 1148.16 258.15 1150.39 259.23 1148.68 263.17
  Q 1133.40 298.35 1138.64 336.99
  C 1141.41 357.42 1154.66 369.02 1175.73 363.06
  C 1188.50 359.44 1200.23 351.02 1208.53 340.94
  C 1222.10 324.44 1209.80 309.84 1190.60 313.42
  Q 1190.11 313.51 1189.73 313.84
  C 1184.87 318.09 1177.64 327.43 1171.27 328.80
  A 1.08 1.07 -27.8 0 1 1170.28 328.50
  Q 1168.74 326.93 1168.98 323.99
  Q 1172.19 283.79 1189.97 249.44
  C 1190.54 248.34 1191.26 247.84 1192.36 247.30
  A 1.34 1.30 -56.6 0 1 1192.99 247.16
  Q 1204.25 247.51 1215.49 247.44
  C 1223.59 247.39 1232.03 245.97 1236.56 238.99
  C 1243.14 228.85 1236.24 216.11 1224.92 214.15
  C 1220.73 213.42 1214.30 214.15 1209.11 213.92
  A 1.45 1.44 -4.9 0 1 1207.76 212.79
  Q 1207.67 212.36 1207.83 211.59
  Q 1207.95 211.07 1208.28 210.49
  Q 1213.45 201.47 1219.81 193.25
  C 1227.65 183.12 1234.96 171.29 1225.33 159.93
  C 1216.83 149.90 1200.63 151.61 1193.82 162.59
  C 1183.15 179.79 1164.54 215.95 1138.30 212.78
  Q 1137.82 212.72 1137.39 212.93
  C 1120.92 220.87 1127.04 236.41 1132.34 249.09"
/>
<path stroke="#d46412" vector-effect="non-scaling-stroke" d="
  M 977.14 311.63
  A 1.17 1.17 0.0 0 1 975.33 311.69
  C 973.90 310.07 972.32 308.91 970.17 308.36
  C 956.62 304.94 947.63 316.84 936.51 322.78
  Q 899.15 342.74 857.80 330.96
  C 841.04 326.19 834.72 310.19 847.39 296.44
  A 0.61 0.61 0.0 0 1 848.30 296.45
  Q 855.58 304.78 866.75 305.73
  C 895.41 308.16 927.91 293.73 950.33 276.83
  C 964.93 265.83 983.02 244.70 971.43 225.32
  C 951.37 191.75 909.07 201.91 881.73 217.70
  Q 845.93 238.38 822.96 272.72
  C 800.07 306.94 799.40 347.09 845.18 361.84
  C 893.33 377.36 940.54 367.00 978.31 332.62
  A 1.09 1.09 0.0 0 1 980.04 332.99
  Q 991.24 358.49 1015.65 364.23
  C 1041.29 370.25 1067.21 359.92 1086.80 343.82
  C 1098.39 334.31 1122.02 315.67 1103.29 300.93
  C 1095.78 295.01 1085.75 300.02 1079.81 305.82
  C 1066.21 319.10 1054.84 330.93 1034.72 332.69
  C 1020.85 333.91 1010.28 328.89 1010.42 313.44
  Q 1010.45 309.07 1011.20 306.23
  Q 1023.42 259.70 1063.07 234.60
  C 1086.31 219.89 1089.71 235.59 1096.93 253.21
  Q 1099.44 259.31 1101.61 261.58
  C 1110.08 270.40 1122.32 265.29 1127.52 256.06
  Q 1128.59 254.16 1128.41 251.75
  C 1126.84 230.64 1115.56 207.07 1095.20 198.78
  Q 1081.46 193.19 1067.93 196.38
  Q 1056.69 199.04 1051.00 202.47
  C 1013.61 225.10 981.90 265.00 977.87 309.56
  Q 977.75 310.83 977.14 311.63"
/>
<path stroke="#d46412" vector-effect="non-scaling-stroke" d="
  M 695.55 351.22
  C 695.47 360.31 702.02 367.37 710.78 368.64
  C 718.23 369.73 724.68 365.49 728.54 359.27
  Q 732.24 353.32 732.63 350.78
  C 738.20 314.99 757.44 254.67 797.59 244.04
  C 801.76 242.93 807.06 242.81 811.42 241.90
  C 828.28 238.34 828.50 216.97 812.83 211.46
  Q 808.68 210.00 801.52 210.32
  C 779.13 211.34 760.68 221.09 745.63 237.68
  A 1.16 1.15 -17.3 0 1 743.65 236.64
  C 745.47 228.89 744.16 219.83 737.93 214.43
  C 732.54 209.76 724.93 209.17 719.27 213.69
  C 714.16 217.76 712.06 224.44 711.25 231.00
  Q 705.39 278.44 699.55 325.89
  C 698.60 333.58 695.61 343.57 695.55 351.22"
/>
<path stroke="#d46412" vector-effect="non-scaling-stroke" d="
  M 867.76 317.64
  Q 863.92 316.24 859.92 317.63
  A 0.41 0.41 0.0 0 0 859.96 318.41
  L 866.92 320.18"
/>
<path stroke="#da8080" vector-effect="non-scaling-stroke" d="
  M 866.92 320.18
  Q 896.79 327.16 923.82 314.64
  C 930.88 311.36 939.15 305.56 945.82 301.57
  Q 954.50 296.38 964.84 293.47
  C 968.18 292.53 970.07 282.36 970.93 279.24
  A 0.90 0.89 78.0 0 0 969.50 278.31
  C 944.10 299.11 901.92 323.90 867.76 317.64"
/>
<path stroke="#fae492" vector-effect="non-scaling-stroke" d="
  M 866.92 320.18
  Q 867.12 318.55 867.76 317.64"
/>
<path stroke="#d46412" vector-effect="non-scaling-stroke" d="
  M 519.06 305.56
  C 544.33 279.40 566.08 241.51 566.25 204.49
  C 566.42 167.66 531.24 147.50 498.67 146.04
  A 1.74 1.74 0.0 0 0 496.88 147.48
  L 491.98 176.48
  A 2.83 2.82 25.6 0 0 492.89 179.06
  C 501.94 187.17 504.50 196.36 495.59 206.08
  C 492.77 209.16 488.54 209.78 484.61 210.59
  C 480.40 211.45 480.40 213.08 479.21 216.62
  Q 460.13 273.50 430.36 325.48
  A 1.44 1.44 0.0 0 0 431.07 327.54
  C 466.28 341.59 493.95 331.56 519.06 305.56"
/>
<path stroke="#d46412" vector-effect="non-scaling-stroke" d="
  M 462.08 149.96
  C 446.18 152.63 430.48 168.22 450.76 181.25
  C 453.91 183.28 456.25 181.32 457.04 178.09
  Q 460.30 164.77 463.43 151.40
  A 1.19 1.19 0.0 0 0 462.08 149.96"
/>
<path stroke="#d46412" vector-effect="non-scaling-stroke" d="
  M 1299.93 328.96
  C 1331.83 338.98 1360.83 331.17 1383.85 307.44
  C 1410.58 279.88 1445.97 224.04 1428.96 184.02
  C 1418.57 159.57 1390.38 146.94 1365.16 146.00
  A 1.22 1.21 -84.0 0 0 1363.92 147.01
  L 1358.89 176.94
  A 2.74 2.73 -68.6 0 0 1360.09 179.69
  C 1362.79 181.45 1365.37 183.01 1366.55 186.23
  C 1372.14 201.49 1362.78 206.76 1349.88 211.07
  C 1349.13 211.32 1348.45 212.02 1347.80 212.53
  Q 1347.44 212.82 1347.29 213.26
  Q 1328.33 270.64 1297.74 324.74
  C 1296.47 326.99 1297.79 328.29 1299.93 328.96"
/>
<path stroke="#d46412" vector-effect="non-scaling-stroke" d="
  M 1311.77 159.75
  C 1303.44 170.31 1310.14 178.15 1320.50 181.39
  Q 1322.85 182.13 1323.45 179.74
  L 1330.42 151.90
  A 1.49 1.49 0.0 0 0 1328.74 150.07
  Q 1318.06 151.79 1311.77 159.75"
/>
<path stroke="#d46412" vector-effect="non-scaling-stroke" d="
  M 690.85 149.61
  A 16.08 16.08 0.0 0 0 674.77 133.53
  A 16.08 16.08 0.0 0 0 658.69 149.61
  A 16.08 16.08 0.0 0 0 674.77 165.69
  A 16.08 16.08 0.0 0 0 690.85 149.61"
/>
<path stroke="#d46412" vector-effect="non-scaling-stroke" d="
  M 1558.84 149.60
  A 16.08 16.08 0.0 0 0 1542.76 133.52
  A 16.08 16.08 0.0 0 0 1526.68 149.60
  A 16.08 16.08 0.0 0 0 1542.76 165.68
  A 16.08 16.08 0.0 0 0 1558.84 149.60"
/>
<path stroke="#da8080" vector-effect="non-scaling-stroke" d="
  M 451.17 319.56
  A 1.43 1.33 61.1 0 0 451.72 319.74
  C 502.82 325.49 537.72 268.53 549.40 227.33
  C 558.45 195.41 547.34 169.04 513.76 161.72
  C 509.59 160.81 505.51 163.86 505.25 167.99
  C 505.04 171.30 509.62 178.37 511.29 182.19
  C 519.33 200.60 508.72 215.08 492.23 222.44
  A 0.50 0.42 -76.7 0 0 492.07 222.56
  L 490.43 224.19
  A 1.20 1.11 -16.1 0 0 490.17 224.62
  Q 474.09 271.85 450.59 315.84
  C 449.79 317.35 449.57 318.60 451.17 319.56"
/>
<path stroke="#da8080" vector-effect="non-scaling-stroke" d="
  M 1380.11 186.89
  C 1383.66 200.94 1375.87 215.53 1362.11 220.84
  C 1360.12 221.61 1357.45 223.64 1356.90 225.25
  Q 1340.54 273.52 1316.40 317.91
  A 1.25 1.25 0.0 0 0 1317.36 319.75
  C 1342.75 322.49 1361.64 312.79 1378.32 294.82
  Q 1401.48 269.85 1413.25 238.51
  C 1423.85 210.25 1423.66 172.52 1387.26 163.97
  C 1382.10 162.76 1372.88 160.63 1372.19 168.98
  Q 1372.03 171.01 1373.55 173.60
  C 1376.02 177.79 1378.97 182.37 1380.11 186.89"
/>
<path stroke="#d46412" vector-effect="non-scaling-stroke" d="
  M 636.94 318.39
  Q 634.77 320.57 635.44 317.56
  C 642.27 286.83 657.43 258.61 671.85 230.89
  C 675.68 223.53 678.70 216.82 676.17 209.31
  Q 673.64 201.81 666.78 200.00
  C 657.97 197.67 649.43 203.92 645.18 211.44
  Q 627.78 242.23 613.48 275.99
  Q 602.87 301.04 601.59 328.25
  Q 601.07 339.18 603.09 346.68
  C 607.08 361.59 618.68 370.02 633.79 363.56
  Q 652.17 355.69 664.88 337.61
  C 670.03 330.30 672.52 319.59 666.21 312.62
  C 660.89 306.76 652.44 305.98 645.66 309.93
  C 642.35 311.86 639.75 315.56 636.94 318.39"
/>
<path stroke="#d46412" vector-effect="non-scaling-stroke" d="
  M 1504.85 318.43
  Q 1502.86 320.20 1503.44 317.59
  C 1510.45 286.10 1526.02 257.89 1540.81 229.50
  Q 1543.90 223.56 1544.48 218.00
  C 1546.06 202.83 1529.18 191.24 1517.54 204.28
  Q 1515.95 206.07 1512.97 211.45
  C 1498.51 237.55 1441.75 344.83 1483.47 363.58
  C 1503.96 372.78 1521.33 351.37 1532.81 337.30
  C 1539.46 329.13 1541.62 314.84 1530.16 309.31
  C 1520.22 304.51 1511.34 312.66 1504.85 318.43"
/>
<path stroke="#d46412" vector-effect="non-scaling-stroke" d="
  M 1637.74 256.27
  Q 1637.68 255.98 1637.72 255.50
  Q 1638.47 244.74 1637.30 234.02
  C 1636.14 223.33 1626.02 210.89 1616.06 207.12
  C 1586.65 195.96 1552.46 249.02 1542.35 270.01
  Q 1534.74 285.80 1539.39 302.77
  C 1540.52 306.91 1546.65 309.60 1550.20 310.52
  Q 1559.23 312.86 1565.30 306.05
  Q 1569.77 301.03 1570.49 296.75
  C 1571.98 287.85 1573.47 279.68 1578.38 271.89
  Q 1588.64 255.62 1602.18 242.60
  A 1.63 1.63 0.0 0 1 1604.92 243.55
  Q 1605.20 245.62 1604.99 248.34
  Q 1601.62 290.86 1581.26 328.00
  C 1574.96 339.48 1571.98 354.27 1587.55 360.05
  C 1599.79 364.60 1606.22 357.73 1613.33 347.98
  Q 1644.23 305.57 1674.85 263.32
  A 1.47 1.46 35.0 0 1 1676.86 262.97
  Q 1677.06 263.11 1677.25 263.65
  Q 1677.36 264.00 1677.26 264.40
  Q 1670.59 291.04 1667.21 318.27
  C 1665.05 335.59 1662.38 373.32 1688.58 375.40
  C 1710.92 377.17 1736.79 347.13 1748.96 330.95
  Q 1749.90 329.70 1750.80 329.28
  A 0.82 0.81 -24.7 0 1 1751.89 329.68
  C 1775.83 382.13 1849.04 372.46 1890.60 353.21
  C 1903.49 347.23 1927.73 334.35 1921.34 317.29
  C 1917.04 305.81 1905.11 305.27 1895.93 311.36
  C 1891.24 314.47 1886.22 318.05 1881.83 320.47
  C 1854.61 335.51 1814.73 343.86 1787.07 324.49
  C 1779.88 319.46 1784.27 304.37 1787.79 298.34
  A 1.16 1.16 0.0 0 1 1789.35 297.91
  C 1802.77 305.49 1816.25 308.40 1831.51 305.03
  C 1857.49 299.31 1895.03 282.01 1910.80 258.09
  C 1920.97 242.69 1917.66 225.07 1903.09 214.16
  C 1876.83 194.49 1843.94 204.12 1819.05 220.59
  Q 1779.20 246.95 1754.74 287.83
  A 1.90 1.88 -74.9 0 1 1753.16 288.75
  C 1742.49 288.96 1732.66 298.46 1725.83 305.83
  Q 1717.26 315.06 1702.25 333.71
  Q 1700.69 335.66 1699.05 334.44
  A 1.34 1.32 23.0 0 1 1698.53 333.18
  Q 1703.79 300.52 1710.04 267.91
  C 1713.46 250.02 1711.77 234.81 1696.70 223.02
  C 1674.25 205.46 1649.54 241.26 1639.19 256.57
  A 0.80 0.80 0.0 0 1 1637.74 256.27"
/>
<path stroke="#d46412" vector-effect="non-scaling-stroke" d="
  M 867.76 271.04
  C 891.94 277.27 922.34 257.85 939.96 243.20
  Q 941.98 241.51 940.11 239.82
  C 922.83 224.12 879.84 258.22 867.50 270.04
  A 0.59 0.59 0.0 0 0 867.76 271.04"
/>
<path stroke="#d46412" vector-effect="non-scaling-stroke" d="
  M 1810.08 271.91
  C 1836.34 274.24 1862.24 260.04 1881.55 243.62
  C 1883.79 241.71 1883.36 239.83 1880.92 238.52
  C 1860.36 227.54 1823.23 256.55 1809.46 270.17
  A 1.02 1.02 0.0 0 0 1810.08 271.91"
/>
<path stroke="#ea9f1e" vector-effect="non-scaling-stroke" d="
  M 65.84 434.16
  C 74.33 444.11 82.75 443.10 93.79 437.44
  Q 123.10 422.39 147.28 400.05
  A 2.14 2.12 53.4 0 0 147.66 397.41
  Q 146.22 394.95 144.58 393.97"
/>
<path stroke="#f0bb8b" vector-effect="non-scaling-stroke" d="
  M 144.58 393.97
  L 133.53 383.22
  A 1.89 1.89 0.0 0 0 131.23 382.96
  Q 95.76 404.51 65.84 434.16"
/>
<path stroke="#fae492" vector-effect="non-scaling-stroke" d="
  M 144.58 393.97
  Q 107.88 419.28 65.84 434.16"
/>
</g>
<path fill="#ffffff" d="
  M 0.00 0.00
  L 1942.00 0.00
  L 1942.00 465.00
  L 0.00 465.00
  L 0.00 0.00
  Z
  M 83.58 240.50
  Q 84.36 242.24 83.75 244.74
  Q 83.58 244.75 83.42 244.75
  Q 83.05 244.75 82.76 244.52
  C 70.26 234.43 56.45 223.59 41.16 216.73
  C 40.10 216.26 38.78 215.57 37.93 216.51
  A 1.23 1.23 0.0 0 0 38.03 218.26
  Q 53.96 232.05 68.75 245.26
  Q 85.94 260.60 89.86 265.65
  C 92.91 269.60 87.09 274.10 83.94 270.29
  Q 63.25 245.23 39.33 226.46
  Q 37.69 225.17 36.10 224.24
  A 0.50 0.50 0.0 0 0 35.44 224.95
  C 36.64 226.70 37.75 228.56 39.09 230.15
  Q 58.66 253.44 76.63 277.89
  A 0.72 0.71 55.6 0 1 76.44 278.92
  C 75.65 279.42 74.79 279.19 74.14 278.51
  Q 51.50 254.50 25.26 234.49
  Q 24.93 234.24 24.53 234.25
  A 0.28 0.28 0.0 0 0 24.30 234.69
  C 35.21 250.72 46.83 267.20 60.48 281.02
  C 72.38 293.05 83.78 293.78 97.68 283.48
  A 1.81 1.80 82.1 0 1 100.44 285.57
  Q 95.12 299.66 102.11 314.18
  L 73.14 303.83
  L 9.13 233.51
  A 0.96 0.96 0.0 0 0 7.57 234.59
  C 22.77 264.45 39.33 297.10 66.56 317.84
  C 40.34 341.82 31.01 371.09 43.69 405.35
  Q 44.39 407.25 45.93 407.85
  Q 56.43 411.97 61.61 402.64
  A 1.34 1.31 54.0 0 0 61.75 401.70
  Q 60.86 397.60 60.02 393.50
  C 54.08 364.56 68.28 341.96 89.44 324.17
  Q 88.96 324.07 89.62 323.98
  Q 89.84 323.96 90.00 324.11
  Q 110.37 343.64 120.66 370.01
  Q 121.25 371.54 119.52 372.77
  Q 93.72 391.22 60.86 417.86
  C 39.71 435.00 63.69 459.76 83.83 457.69
  Q 89.61 457.09 100.38 451.42
  Q 132.40 434.56 159.48 410.39
  A 1.54 1.51 20.0 0 1 160.30 410.02
  Q 162.42 409.78 163.68 410.82
  Q 183.99 427.56 208.49 442.51
  C 218.92 448.88 231.88 455.67 243.61 457.49
  C 253.64 459.04 262.32 454.25 268.38 446.82
  C 275.90 437.59 277.46 427.88 267.28 419.72
  Q 233.78 392.87 211.67 377.23
  C 209.56 375.74 208.41 373.74 209.09 371.28
  C 213.81 354.10 222.73 336.98 236.12 324.88
  C 263.21 342.98 273.37 367.17 265.06 399.55
  C 264.42 402.05 264.75 403.36 266.46 405.11
  Q 272.36 411.14 280.08 407.44
  A 1.30 1.27 -1.6 0 0 280.71 406.79
  C 295.44 372.61 286.98 341.46 258.81 317.71
  C 286.92 298.04 302.47 264.16 317.46 234.54
  A 1.40 1.40 0.0 0 0 315.17 232.97
  L 264.77 288.73
  C 263.19 289.56 259.64 292.89 258.10 290.82
  A 2.32 2.32 0.0 0 1 258.18 287.96
  Q 278.87 262.98 299.58 237.10
  Q 300.47 235.99 299.58 235.43
  A 0.82 0.82 0.0 0 0 298.56 235.55
  L 255.26 279.07
  Q 253.41 279.11 253.20 276.97
  Q 253.08 275.75 255.23 272.93
  Q 272.55 250.23 290.91 228.31
  A 0.58 0.58 0.0 0 0 290.80 227.47
  C 289.01 226.19 287.35 226.83 285.87 228.42
  Q 264.79 251.24 241.74 272.42
  Q 239.22 269.65 241.30 267.30
  Q 263.94 241.72 288.44 218.37
  A 0.85 0.85 0.0 0 0 288.05 216.93
  Q 285.92 216.43 284.38 217.59
  Q 266.31 231.22 247.67 245.34
  L 250.18 176.95
  A 1.35 1.35 0.0 0 1 251.26 175.68
  C 254.50 175.04 258.28 174.86 261.15 174.29
  C 325.70 161.60 342.37 80.12 285.67 44.54
  C 279.51 40.67 268.99 35.34 261.75 29.95
  Q 257.87 27.07 252.96 23.04
  Q 238.68 11.33 218.99 7.32
  Q 192.98 3.09 168.72 14.31
  A 2.07 2.00 -56.3 0 1 167.80 14.51
  C 166.80 14.48 165.98 14.57 165.05 14.16
  C 138.67 2.49 113.52 0.88 88.42 15.17
  Q 87.52 15.69 78.52 21.92
  Q 70.47 27.50 61.24 30.73
  Q 51.01 34.30 49.98 34.77
  C 13.80 51.02 -10.07 90.59 4.04 130.20
  C 15.33 161.88 45.39 175.15 77.17 176.39
  A 1.90 1.89 89.1 0 1 78.98 178.15
  L 83.58 240.50
  Z
  M 358.72 375.78
  C 375.70 390.17 395.45 383.94 411.09 371.79
  A 1.43 1.39 26.2 0 1 411.98 371.50
  C 412.85 371.52 413.92 371.46 414.74 371.73
  C 469.58 390.26 517.80 374.37 556.42 332.68
  C 601.13 284.41 639.71 192.07 584.29 135.84
  C 559.54 110.74 520.09 98.50 485.56 99.83
  C 465.56 100.60 438.17 106.70 421.04 118.43
  C 384.81 143.23 388.67 196.99 425.36 218.89
  C 429.19 221.17 427.80 222.35 426.41 226.07
  Q 411.74 265.33 390.47 301.45
  C 389.71 302.74 386.77 304.08 384.96 304.16
  C 346.96 305.81 328.41 350.09 358.72 375.78
  Z
  M 1121.06 326.16
  L 1124.08 326.74
  C 1124.83 352.91 1142.20 379.92 1170.97 378.11
  C 1186.01 377.17 1199.67 367.12 1210.60 357.87
  A 1.53 1.53 0.0 0 1 1212.94 358.33
  C 1228.12 387.39 1252.44 391.99 1278.23 371.98
  A 1.16 1.15 -61.1 0 1 1279.04 371.74
  C 1279.91 371.82 1280.95 371.65 1281.74 371.91
  C 1334.98 388.90 1384.31 375.84 1421.79 334.80
  C 1446.33 307.93 1464.69 275.33 1473.58 239.82
  C 1486.03 190.17 1473.58 141.74 1425.98 116.89
  C 1394.62 100.51 1358.34 96.34 1323.82 103.82
  C 1294.66 110.13 1266.22 126.90 1262.81 159.70
  C 1260.24 184.47 1272.85 207.21 1294.09 220.04
  A 2.13 2.12 26.1 0 1 1294.98 222.62
  Q 1279.27 263.53 1257.45 301.69
  Q 1257.17 302.18 1255.84 303.10
  Q 1255.40 303.41 1254.86 303.44
  Q 1238.33 304.40 1224.77 313.81
  A 1.19 1.18 -36.7 0 1 1223.17 313.58
  C 1213.63 301.74 1203.85 295.57 1187.97 300.94
  C 1185.48 301.79 1184.20 300.42 1185.07 297.93
  Q 1191.17 280.44 1197.89 261.51
  A 2.72 2.71 10.6 0 1 1200.53 259.71
  C 1210.55 260.01 1224.66 262.06 1234.15 257.01
  C 1259.75 243.39 1256.04 214.23 1231.45 202.32
  A 1.45 1.45 0.0 0 1 1230.87 200.22
  C 1235.44 193.26 1241.14 185.04 1242.40 176.68
  C 1244.81 160.71 1233.27 142.98 1217.13 140.46
  C 1202.84 138.23 1189.41 145.74 1181.71 157.93
  Q 1177.59 164.47 1173.38 170.95
  C 1169.59 176.80 1152.15 200.45 1145.25 199.99
  Q 1134.35 199.27 1126.13 204.98
  A 1.57 1.56 -38.8 0 1 1124.09 204.77
  Q 1120.15 200.55 1115.53 196.48
  C 1070.86 157.10 1013.31 207.87 989.63 244.44
  A 0.99 0.98 60.4 0 1 987.82 243.94
  C 987.20 229.16 984.19 217.67 973.19 207.31
  C 931.72 168.23 869.45 203.57 837.39 235.44
  A 0.59 0.59 0.0 0 1 836.39 234.97
  C 840.66 180.98 781.20 195.81 755.00 212.33
  A 1.71 1.71 0.0 0 1 752.74 211.93
  C 750.43 208.95 747.86 205.75 744.87 203.60
  C 725.26 189.47 701.06 203.98 698.51 226.25
  C 693.96 265.90 689.98 304.02 682.74 344.75
  Q 681.54 351.53 683.02 358.34
  C 688.25 382.37 717.71 388.26 734.43 372.68
  C 744.52 363.28 745.76 350.75 748.71 338.00
  C 753.95 315.39 762.92 291.05 777.28 272.54
  C 784.12 263.73 791.40 257.75 802.81 256.31
  Q 810.79 255.30 819.16 254.19
  A 0.58 0.58 0.0 0 1 819.68 255.13
  C 793.19 287.09 780.94 336.51 821.49 364.49
  Q 827.70 368.77 832.79 370.79
  C 881.09 390.03 931.62 382.45 974.00 353.42
  A 2.18 2.17 -37.0 0 1 976.90 353.82
  C 1019.85 405.83 1090.61 370.01 1121.06 326.16
  Z
  M 703.43 149.48
  A 28.74 28.74 0.0 0 0 674.69 120.74
  A 28.74 28.74 0.0 0 0 645.95 149.48
  A 28.74 28.74 0.0 0 0 674.69 178.22
  A 28.74 28.74 0.0 0 0 703.43 149.48
  Z
  M 1571.42 149.52
  A 28.70 28.70 0.0 0 0 1542.72 120.82
  A 28.70 28.70 0.0 0 0 1514.02 149.52
  A 28.70 28.70 0.0 0 0 1542.72 178.22
  A 28.70 28.70 0.0 0 0 1571.42 149.52
  Z
  M 656.26 291.95
  Q 656.49 291.27 657.11 290.06
  Q 668.75 267.37 679.76 244.37
  C 682.72 238.18 685.79 232.16 687.60 225.83
  C 697.05 192.82 660.41 170.80 638.07 199.58
  C 634.44 204.26 631.73 209.56 628.83 214.91
  C 609.26 250.96 591.33 288.22 588.55 329.73
  Q 587.46 345.98 595.42 360.15
  C 617.37 399.27 657.56 369.36 674.22 345.19
  C 681.84 334.15 686.85 317.24 677.57 305.43
  C 672.75 299.29 665.39 296.64 657.94 294.91
  A 2.31 2.30 -74.6 0 1 656.26 291.95
  Z
  M 1556.49 223.70
  C 1556.85 221.33 1557.65 218.77 1557.80 216.33
  C 1559.28 192.09 1530.39 177.15 1511.66 192.66
  Q 1507.74 195.90 1502.65 204.42
  C 1486.27 231.87 1472.21 260.18 1462.47 291.43
  C 1457.20 308.34 1453.67 328.62 1457.65 345.78
  C 1460.68 358.86 1467.87 372.11 1481.04 376.94
  C 1509.84 387.49 1544.12 351.41 1550.98 326.90
  Q 1551.36 325.54 1552.74 325.25
  L 1567.99 322.03
  A 0.73 0.73 0.0 0 1 1568.77 323.10
  C 1559.22 339.76 1559.66 362.22 1579.72 370.78
  C 1592.84 376.38 1604.54 373.31 1614.81 364.30
  C 1629.78 351.15 1641.09 333.38 1651.64 316.48
  A 1.34 1.34 0.0 0 1 1654.10 317.36
  C 1652.42 330.29 1651.83 343.88 1654.50 356.75
  C 1658.47 375.83 1673.46 389.67 1693.24 388.04
  C 1713.72 386.34 1734.57 368.36 1746.33 352.59
  A 1.87 1.87 0.0 0 1 1749.06 352.30
  C 1776.39 376.25 1810.82 386.02 1846.84 380.39
  C 1872.66 376.36 1905.77 365.58 1924.52 346.53
  C 1953.99 316.58 1917.78 279.52 1886.33 301.81
  Q 1883.11 304.09 1879.83 306.30
  Q 1843.62 330.77 1801.25 318.14
  A 0.36 0.36 0.0 0 1 1801.21 317.47
  Q 1803.25 316.60 1805.47 317.04
  C 1841.38 324.18 1886.75 300.69 1912.33 277.35
  Q 1919.50 270.80 1924.11 261.54
  C 1937.48 234.68 1924.07 207.06 1897.55 195.95
  C 1840.34 171.97 1775.64 230.70 1747.77 274.33
  Q 1746.87 275.74 1745.93 275.93
  Q 1730.00 279.24 1721.57 293.08
  Q 1720.37 295.05 1718.93 293.57
  A 2.00 1.97 -59.5 0 1 1718.44 291.63
  C 1722.59 277.18 1726.40 258.77 1723.75 244.32
  C 1721.08 229.75 1711.51 212.95 1696.67 207.92
  C 1679.62 202.15 1661.79 211.11 1649.68 222.60
  A 1.70 1.69 -36.7 0 1 1647.05 222.22
  C 1636.82 204.53 1623.97 190.82 1602.25 193.72
  C 1584.64 196.06 1567.73 209.85 1557.81 224.22
  Q 1556.02 226.82 1556.49 223.70
  Z"
/>
<path fill="#d60d39" d="
  M 218.99 7.32
  Q 208.00 17.66 201.99 31.72
  Q 185.65 32.70 172.49 41.45
  C 170.95 42.47 168.10 42.83 166.73 42.04
  C 147.63 31.04 126.71 24.47 106.07 37.33
  C 93.13 45.39 83.69 59.32 77.02 73.19
  A 0.85 0.85 0.0 0 1 75.56 73.31
  C 74.87 72.29 74.54 71.14 75.00 69.88
  C 76.96 64.46 80.85 55.38 81.02 49.82
  A 1.03 1.02 -5.5 0 0 79.77 48.79
  C 61.00 53.00 43.00 63.82 31.98 79.75
  C 16.30 102.40 21.93 132.90 48.52 143.98
  Q 73.85 154.54 100.34 143.56
  L 101.95 170.11
  Q 100.57 199.16 105.13 228.68
  L 83.58 240.50
  L 78.98 178.15
  A 1.90 1.89 89.1 0 0 77.17 176.39
  C 45.39 175.15 15.33 161.88 4.04 130.20
  C -10.07 90.59 13.80 51.02 49.98 34.77
  Q 51.01 34.30 61.24 30.73
  Q 70.47 27.50 78.52 21.92
  Q 87.52 15.69 88.42 15.17
  C 113.52 0.88 138.67 2.49 165.05 14.16
  C 165.98 14.57 166.80 14.48 167.80 14.51
  A 2.07 2.00 -56.3 0 0 168.72 14.31
  Q 192.98 3.09 218.99 7.32
  Z"
/>
<path fill="#b3082d" d="
  M 218.99 7.32
  Q 238.68 11.33 252.96 23.04
  Q 257.87 27.07 261.75 29.95
  C 268.99 35.34 279.51 40.67 285.67 44.54
  C 342.37 80.12 325.70 161.60 261.15 174.29
  C 258.28 174.86 254.50 175.04 251.26 175.68
  A 1.35 1.35 0.0 0 0 250.18 176.95
  L 247.67 245.34
  L 236.39 258.23
  L 233.72 259.26
  L 211.96 257.50
  L 210.69 255.88
  L 223.55 246.47
  A 1.13 1.13 0.0 0 0 223.36 244.53
  Q 168.89 218.84 112.56 241.72
  Q 107.50 243.77 105.54 246.40
  Q 102.79 250.73 104.14 255.96
  A 0.97 0.97 0.0 0 1 103.94 256.82
  Q 102.51 258.47 100.19 258.21
  A 1.01 0.99 22.6 0 0 99.31 258.56
  L 98.94 259.02
  Q 91.58 252.19 83.99 245.59
  Q 83.79 245.42 83.75 245.21
  Q 83.72 244.99 83.75 244.74
  Q 84.36 242.24 83.58 240.50
  L 105.13 228.68
  Q 145.46 210.86 188.40 215.99
  C 200.91 217.49 213.06 222.04 224.88 225.93
  A 1.41 1.41 0.0 0 0 226.73 224.67
  Q 228.20 199.58 229.67 174.65
  C 229.86 171.50 229.33 170.80 227.29 168.72
  Q 207.08 148.15 178.51 142.23
  A 0.46 0.45 -51.2 0 1 178.42 141.37
  Q 192.50 135.02 208.11 134.27
  C 217.87 133.81 226.51 137.25 236.04 140.72
  C 253.84 147.19 278.70 137.91 287.54 120.81
  Q 292.38 111.44 291.42 100.80
  C 289.45 78.93 272.95 61.08 252.46 54.17
  Q 251.95 53.99 251.62 53.57
  Q 248.90 50.04 245.10 52.49
  A 1.60 1.59 -36.5 0 1 243.00 52.18
  C 232.41 39.52 218.84 31.41 201.99 31.72
  Q 208.00 17.66 218.99 7.32
  Z"
/>
<path fill="#ffffff" d="
  M 201.99 31.72
  C 218.84 31.41 232.41 39.52 243.00 52.18
  A 1.60 1.59 -36.5 0 0 245.10 52.49
  Q 248.90 50.04 251.62 53.57
  Q 251.95 53.99 252.46 54.17
  C 272.95 61.08 289.45 78.93 291.42 100.80
  Q 292.38 111.44 287.54 120.81
  C 278.70 137.91 253.84 147.19 236.04 140.72
  C 226.51 137.25 217.87 133.81 208.11 134.27
  Q 192.50 135.02 178.42 141.37
  A 0.46 0.45 -51.2 0 0 178.51 142.23
  Q 207.08 148.15 227.29 168.72
  C 229.33 170.80 229.86 171.50 229.67 174.65
  Q 228.20 199.58 226.73 224.67
  A 1.41 1.41 0.0 0 1 224.88 225.93
  C 213.06 222.04 200.91 217.49 188.40 215.99
  Q 145.46 210.86 105.13 228.68
  Q 100.57 199.16 101.95 170.11
  C 122.53 154.18 143.21 142.61 168.95 136.76
  A 0.76 0.76 0.0 0 0 169.17 135.37
  Q 167.74 134.52 165.52 134.30
  C 144.36 132.14 119.52 133.22 100.34 143.56
  Q 73.85 154.54 48.52 143.98
  C 21.93 132.90 16.30 102.40 31.98 79.75
  C 43.00 63.82 61.00 53.00 79.77 48.79
  A 1.03 1.02 -5.5 0 1 81.02 49.82
  C 80.85 55.38 76.96 64.46 75.00 69.88
  C 74.54 71.14 74.87 72.29 75.56 73.31
  A 0.85 0.85 0.0 0 0 77.02 73.19
  C 83.69 59.32 93.13 45.39 106.07 37.33
  C 126.71 24.47 147.63 31.04 166.73 42.04
  C 168.10 42.83 170.95 42.47 172.49 41.45
  Q 185.65 32.70 201.99 31.72
  Z"
/>
<path fill="#b40000" d="
  M 358.72 375.78
  C 328.41 350.09 346.96 305.81 384.96 304.16
  C 386.77 304.08 389.71 302.74 390.47 301.45
  Q 411.74 265.33 426.41 226.07
  C 427.80 222.35 429.19 221.17 425.36 218.89
  C 388.67 196.99 384.81 143.23 421.04 118.43
  C 438.17 106.70 465.56 100.60 485.56 99.83
  C 520.09 98.50 559.54 110.74 584.29 135.84
  C 639.71 192.07 601.13 284.41 556.42 332.68
  C 517.80 374.37 469.58 390.26 414.74 371.73
  C 413.92 371.46 412.85 371.52 411.98 371.50
  A 1.43 1.39 26.2 0 0 411.09 371.79
  C 395.45 383.94 375.70 390.17 358.72 375.78
  Z
  M 366.22 364.53
  C 379.90 375.98 395.05 370.99 405.77 358.44
  C 406.65 357.41 408.02 356.38 409.25 356.73
  Q 422.56 360.62 430.17 362.58
  C 489.29 377.83 537.20 345.56 567.40 297.38
  C 581.10 275.52 593.35 250.94 597.50 225.22
  C 603.47 188.21 591.95 154.28 560.34 132.91
  C 522.90 107.61 476.62 105.99 435.68 124.59
  C 392.14 144.38 403.86 198.58 443.68 213.30
  Q 445.43 213.95 444.79 215.70
  Q 425.99 267.43 397.95 314.95
  Q 397.48 315.75 396.70 316.16
  Q 395.50 316.78 395.01 316.79
  C 375.05 317.42 348.81 328.39 358.65 353.95
  Q 361.07 360.22 366.22 364.53
  Z"
/>
<path fill="#b40000" d="
  M 1124.08 326.74
  L 1124.67 305.21
  L 1130.78 274.66
  A 0.96 0.95 81.0 0 0 1129.38 273.64
  C 1101.01 289.54 1087.18 268.50 1080.55 244.47
  Q 1079.84 241.86 1076.79 241.59
  A 1.57 1.54 -56.3 0 0 1075.92 241.77
  Q 1035.54 264.69 1023.51 309.44
  C 1021.52 316.83 1024.14 320.76 1032.16 320.09
  Q 1046.27 318.90 1057.27 310.35
  C 1061.72 306.89 1066.21 301.29 1070.34 297.11
  C 1088.60 278.63 1110.50 283.88 1122.07 305.65
  L 1121.06 326.16
  C 1090.61 370.01 1019.85 405.83 976.90 353.82
  A 2.18 2.17 -37.0 0 0 974.00 353.42
  C 931.62 382.45 881.09 390.03 832.79 370.79
  Q 827.70 368.77 821.49 364.49
  C 780.94 336.51 793.19 287.09 819.68 255.13
  A 0.58 0.58 0.0 0 0 819.16 254.19
  Q 810.79 255.30 802.81 256.31
  C 791.40 257.75 784.12 263.73 777.28 272.54
  C 762.92 291.05 753.95 315.39 748.71 338.00
  C 745.76 350.75 744.52 363.28 734.43 372.68
  C 717.71 388.26 688.25 382.37 683.02 358.34
  Q 681.54 351.53 682.74 344.75
  C 689.98 304.02 693.96 265.90 698.51 226.25
  C 701.06 203.98 725.26 189.47 744.87 203.60
  C 747.86 205.75 750.43 208.95 752.74 211.93
  A 1.71 1.71 0.0 0 0 755.00 212.33
  C 781.20 195.81 840.66 180.98 836.39 234.97
  A 0.59 0.59 0.0 0 0 837.39 235.44
  C 869.45 203.57 931.72 168.23 973.19 207.31
  C 984.19 217.67 987.20 229.16 987.82 243.94
  A 0.99 0.98 60.4 0 0 989.63 244.44
  C 1013.31 207.87 1070.86 157.10 1115.53 196.48
  Q 1120.15 200.55 1124.09 204.77
  A 1.57 1.56 -38.8 0 0 1126.13 204.98
  Q 1134.35 199.27 1145.25 199.99
  C 1152.15 200.45 1169.59 176.80 1173.38 170.95
  Q 1177.59 164.47 1181.71 157.93
  C 1189.41 145.74 1202.84 138.23 1217.13 140.46
  C 1233.27 142.98 1244.81 160.71 1242.40 176.68
  C 1241.14 185.04 1235.44 193.26 1230.87 200.22
  A 1.45 1.45 0.0 0 0 1231.45 202.32
  C 1256.04 214.23 1259.75 243.39 1234.15 257.01
  C 1224.66 262.06 1210.55 260.01 1200.53 259.71
  A 2.72 2.71 10.6 0 0 1197.89 261.51
  Q 1191.17 280.44 1185.07 297.93
  C 1184.20 300.42 1185.48 301.79 1187.97 300.94
  C 1203.85 295.57 1213.63 301.74 1223.17 313.58
  A 1.19 1.18 -36.7 0 0 1224.77 313.81
  Q 1238.33 304.40 1254.86 303.44
  Q 1255.40 303.41 1255.84 303.10
  Q 1257.17 302.18 1257.45 301.69
  Q 1279.27 263.53 1294.98 222.62
  A 2.13 2.12 26.1 0 0 1294.09 220.04
  C 1272.85 207.21 1260.24 184.47 1262.81 159.70
  C 1266.22 126.90 1294.66 110.13 1323.82 103.82
  C 1358.34 96.34 1394.62 100.51 1425.98 116.89
  C 1473.58 141.74 1486.03 190.17 1473.58 239.82
  C 1464.69 275.33 1446.33 307.93 1421.79 334.80
  C 1384.31 375.84 1334.98 388.90 1281.74 371.91
  C 1280.95 371.65 1279.91 371.82 1279.04 371.74
  A 1.16 1.15 -61.1 0 0 1278.23 371.98
  C 1252.44 391.99 1228.12 387.39 1212.94 358.33
  A 1.53 1.53 0.0 0 0 1210.60 357.87
  C 1199.67 367.12 1186.01 377.17 1170.97 378.11
  C 1142.20 379.92 1124.83 352.91 1124.08 326.74
  Z
  M 1224.43 347.06
  C 1227.28 369.80 1250.34 379.38 1267.99 363.23
  C 1269.82 361.55 1274.28 356.01 1276.94 356.82
  Q 1300.77 364.10 1307.50 365.09
  C 1388.23 377.02 1444.34 303.86 1462.39 234.82
  C 1484.08 151.89 1410.91 105.15 1337.76 113.58
  C 1312.09 116.54 1280.14 130.28 1276.21 159.74
  C 1272.45 187.95 1286.88 204.10 1311.32 213.81
  A 1.26 1.26 0.0 0 1 1312.04 215.42
  Q 1292.84 267.42 1264.73 315.08
  C 1264.07 316.21 1262.74 317.44 1261.52 317.30
  C 1242.20 315.12 1221.53 323.99 1224.43 347.06
  Z
  M 1132.34 249.09
  C 1134.52 254.30 1138.94 257.70 1144.64 257.98
  C 1148.16 258.15 1150.39 259.23 1148.68 263.17
  Q 1133.40 298.35 1138.64 336.99
  C 1141.41 357.42 1154.66 369.02 1175.73 363.06
  C 1188.50 359.44 1200.23 351.02 1208.53 340.94
  C 1222.10 324.44 1209.80 309.84 1190.60 313.42
  Q 1190.11 313.51 1189.73 313.84
  C 1184.87 318.09 1177.64 327.43 1171.27 328.80
  A 1.08 1.07 -27.8 0 1 1170.28 328.50
  Q 1168.74 326.93 1168.98 323.99
  Q 1172.19 283.79 1189.97 249.44
  C 1190.54 248.34 1191.26 247.84 1192.36 247.30
  A 1.34 1.30 -56.6 0 1 1192.99 247.16
  Q 1204.25 247.51 1215.49 247.44
  C 1223.59 247.39 1232.03 245.97 1236.56 238.99
  C 1243.14 228.85 1236.24 216.11 1224.92 214.15
  C 1220.73 213.42 1214.30 214.15 1209.11 213.92
  A 1.45 1.44 -4.9 0 1 1207.76 212.79
  Q 1207.67 212.36 1207.83 211.59
  Q 1207.95 211.07 1208.28 210.49
  Q 1213.45 201.47 1219.81 193.25
  C 1227.65 183.12 1234.96 171.29 1225.33 159.93
  C 1216.83 149.90 1200.63 151.61 1193.82 162.59
  C 1183.15 179.79 1164.54 215.95 1138.30 212.78
  Q 1137.82 212.72 1137.39 212.93
  C 1120.92 220.87 1127.04 236.41 1132.34 249.09
  Z
  M 977.14 311.63
  A 1.17 1.17 0.0 0 1 975.33 311.69
  C 973.90 310.07 972.32 308.91 970.17 308.36
  C 956.62 304.94 947.63 316.84 936.51 322.78
  Q 899.15 342.74 857.80 330.96
  C 841.04 326.19 834.72 310.19 847.39 296.44
  A 0.61 0.61 0.0 0 1 848.30 296.45
  Q 855.58 304.78 866.75 305.73
  C 895.41 308.16 927.91 293.73 950.33 276.83
  C 964.93 265.83 983.02 244.70 971.43 225.32
  C 951.37 191.75 909.07 201.91 881.73 217.70
  Q 845.93 238.38 822.96 272.72
  C 800.07 306.94 799.40 347.09 845.18 361.84
  C 893.33 377.36 940.54 367.00 978.31 332.62
  A 1.09 1.09 0.0 0 1 980.04 332.99
  Q 991.24 358.49 1015.65 364.23
  C 1041.29 370.25 1067.21 359.92 1086.80 343.82
  C 1098.39 334.31 1122.02 315.67 1103.29 300.93
  C 1095.78 295.01 1085.75 300.02 1079.81 305.82
  C 1066.21 319.10 1054.84 330.93 1034.72 332.69
  C 1020.85 333.91 1010.28 328.89 1010.42 313.44
  Q 1010.45 309.07 1011.20 306.23
  Q 1023.42 259.70 1063.07 234.60
  C 1086.31 219.89 1089.71 235.59 1096.93 253.21
  Q 1099.44 259.31 1101.61 261.58
  C 1110.08 270.40 1122.32 265.29 1127.52 256.06
  Q 1128.59 254.16 1128.41 251.75
  C 1126.84 230.64 1115.56 207.07 1095.20 198.78
  Q 1081.46 193.19 1067.93 196.38
  Q 1056.69 199.04 1051.00 202.47
  C 1013.61 225.10 981.90 265.00 977.87 309.56
  Q 977.75 310.83 977.14 311.63
  Z
  M 695.55 351.22
  C 695.47 360.31 702.02 367.37 710.78 368.64
  C 718.23 369.73 724.68 365.49 728.54 359.27
  Q 732.24 353.32 732.63 350.78
  C 738.20 314.99 757.44 254.67 797.59 244.04
  C 801.76 242.93 807.06 242.81 811.42 241.90
  C 828.28 238.34 828.50 216.97 812.83 211.46
  Q 808.68 210.00 801.52 210.32
  C 779.13 211.34 760.68 221.09 745.63 237.68
  A 1.16 1.15 -17.3 0 1 743.65 236.64
  C 745.47 228.89 744.16 219.83 737.93 214.43
  C 732.54 209.76 724.93 209.17 719.27 213.69
  C 714.16 217.76 712.06 224.44 711.25 231.00
  Q 705.39 278.44 699.55 325.89
  C 698.60 333.58 695.61 343.57 695.55 351.22
  Z
  M 867.76 317.64
  Q 863.92 316.24 859.92 317.63
  A 0.41 0.41 0.0 0 0 859.96 318.41
  L 866.92 320.18
  Q 896.79 327.16 923.82 314.64
  C 930.88 311.36 939.15 305.56 945.82 301.57
  Q 954.50 296.38 964.84 293.47
  C 968.18 292.53 970.07 282.36 970.93 279.24
  A 0.90 0.89 78.0 0 0 969.50 278.31
  C 944.10 299.11 901.92 323.90 867.76 317.64
  Z"
/>
<path fill="#f4c824" d="
  M 366.22 364.53
  Q 361.07 360.22 358.65 353.95
  C 348.81 328.39 375.05 317.42 395.01 316.79
  Q 395.50 316.78 396.70 316.16
  Q 397.48 315.75 397.95 314.95
  Q 425.99 267.43 444.79 215.70
  Q 445.43 213.95 443.68 213.30
  C 403.86 198.58 392.14 144.38 435.68 124.59
  C 476.62 105.99 522.90 107.61 560.34 132.91
  C 591.95 154.28 603.47 188.21 597.50 225.22
  C 593.35 250.94 581.10 275.52 567.40 297.38
  C 537.20 345.56 489.29 377.83 430.17 362.58
  Q 422.56 360.62 409.25 356.73
  C 408.02 356.38 406.65 357.41 405.77 358.44
  C 395.05 370.99 379.90 375.98 366.22 364.53
  Z
  M 519.06 305.56
  C 544.33 279.40 566.08 241.51 566.25 204.49
  C 566.42 167.66 531.24 147.50 498.67 146.04
  A 1.74 1.74 0.0 0 0 496.88 147.48
  L 491.98 176.48
  A 2.83 2.82 25.6 0 0 492.89 179.06
  C 501.94 187.17 504.50 196.36 495.59 206.08
  C 492.77 209.16 488.54 209.78 484.61 210.59
  C 480.40 211.45 480.40 213.08 479.21 216.62
  Q 460.13 273.50 430.36 325.48
  A 1.44 1.44 0.0 0 0 431.07 327.54
  C 466.28 341.59 493.95 331.56 519.06 305.56
  Z
  M 462.08 149.96
  C 446.18 152.63 430.48 168.22 450.76 181.25
  C 453.91 183.28 456.25 181.32 457.04 178.09
  Q 460.30 164.77 463.43 151.40
  A 1.19 1.19 0.0 0 0 462.08 149.96
  Z"
/>
<path fill="#f4c824" d="
  M 1267.99 363.23
  C 1250.34 379.38 1227.28 369.80 1224.43 347.06
  C 1221.53 323.99 1242.20 315.12 1261.52 317.30
  C 1262.74 317.44 1264.07 316.21 1264.73 315.08
  Q 1292.84 267.42 1312.04 215.42
  A 1.26 1.26 0.0 0 0 1311.32 213.81
  C 1286.88 204.10 1272.45 187.95 1276.21 159.74
  C 1280.14 130.28 1312.09 116.54 1337.76 113.58
  C 1410.91 105.15 1484.08 151.89 1462.39 234.82
  C 1444.34 303.86 1388.23 377.02 1307.50 365.09
  Q 1300.77 364.10 1276.94 356.82
  C 1274.28 356.01 1269.82 361.55 1267.99 363.23
  Z
  M 1299.93 328.96
  C 1331.83 338.98 1360.83 331.17 1383.85 307.44
  C 1410.58 279.88 1445.97 224.04 1428.96 184.02
  C 1418.57 159.57 1390.38 146.94 1365.16 146.00
  A 1.22 1.21 -84.0 0 0 1363.92 147.01
  L 1358.89 176.94
  A 2.74 2.73 -68.6 0 0 1360.09 179.69
  C 1362.79 181.45 1365.37 183.01 1366.55 186.23
  C 1372.14 201.49 1362.78 206.76 1349.88 211.07
  C 1349.13 211.32 1348.45 212.02 1347.80 212.53
  Q 1347.44 212.82 1347.29 213.26
  Q 1328.33 270.64 1297.74 324.74
  C 1296.47 326.99 1297.79 328.29 1299.93 328.96
  Z
  M 1311.77 159.75
  C 1303.44 170.31 1310.14 178.15 1320.50 181.39
  Q 1322.85 182.13 1323.45 179.74
  L 1330.42 151.90
  A 1.49 1.49 0.0 0 0 1328.74 150.07
  Q 1318.06 151.79 1311.77 159.75
  Z"
/>
<path fill="#b40000" d="
  M 703.43 149.48
  A 28.74 28.74 0.0 0 1 674.69 178.22
  A 28.74 28.74 0.0 0 1 645.95 149.48
  A 28.74 28.74 0.0 0 1 674.69 120.74
  A 28.74 28.74 0.0 0 1 703.43 149.48
  Z
  M 690.85 149.61
  A 16.08 16.08 0.0 0 0 674.77 133.53
  A 16.08 16.08 0.0 0 0 658.69 149.61
  A 16.08 16.08 0.0 0 0 674.77 165.69
  A 16.08 16.08 0.0 0 0 690.85 149.61
  Z"
/>
<path fill="#b40000" d="
  M 1571.42 149.52
  A 28.70 28.70 0.0 0 1 1542.72 178.22
  A 28.70 28.70 0.0 0 1 1514.02 149.52
  A 28.70 28.70 0.0 0 1 1542.72 120.82
  A 28.70 28.70 0.0 0 1 1571.42 149.52
  Z
  M 1558.84 149.60
  A 16.08 16.08 0.0 0 0 1542.76 133.52
  A 16.08 16.08 0.0 0 0 1526.68 149.60
  A 16.08 16.08 0.0 0 0 1542.76 165.68
  A 16.08 16.08 0.0 0 0 1558.84 149.60
  Z"
/>
<path fill="#b3082d" d="
  M 101.95 170.11
  L 100.34 143.56
  C 119.52 133.22 144.36 132.14 165.52 134.30
  Q 167.74 134.52 169.17 135.37
  A 0.76 0.76 0.0 0 1 168.95 136.76
  C 143.21 142.61 122.53 154.18 101.95 170.11
  Z"
/>
<circle fill="#f4c824" cx="674.77" cy="149.61" r="16.08"/>
<circle fill="#f4c824" cx="1542.76" cy="149.60" r="16.08"/>
<path fill="#b40000" d="
  M 519.06 305.56
  C 493.95 331.56 466.28 341.59 431.07 327.54
  A 1.44 1.44 0.0 0 1 430.36 325.48
  Q 460.13 273.50 479.21 216.62
  C 480.40 213.08 480.40 211.45 484.61 210.59
  C 488.54 209.78 492.77 209.16 495.59 206.08
  C 504.50 196.36 501.94 187.17 492.89 179.06
  A 2.83 2.82 25.6 0 1 491.98 176.48
  L 496.88 147.48
  A 1.74 1.74 0.0 0 1 498.67 146.04
  C 531.24 147.50 566.42 167.66 566.25 204.49
  C 566.08 241.51 544.33 279.40 519.06 305.56
  Z
  M 451.17 319.56
  A 1.43 1.33 61.1 0 0 451.72 319.74
  C 502.82 325.49 537.72 268.53 549.40 227.33
  C 558.45 195.41 547.34 169.04 513.76 161.72
  C 509.59 160.81 505.51 163.86 505.25 167.99
  C 505.04 171.30 509.62 178.37 511.29 182.19
  C 519.33 200.60 508.72 215.08 492.23 222.44
  A 0.50 0.42 -76.7 0 0 492.07 222.56
  L 490.43 224.19
  A 1.20 1.11 -16.1 0 0 490.17 224.62
  Q 474.09 271.85 450.59 315.84
  C 449.79 317.35 449.57 318.60 451.17 319.56
  Z"
/>
<path fill="#b40000" d="
  M 1299.93 328.96
  C 1297.79 328.29 1296.47 326.99 1297.74 324.74
  Q 1328.33 270.64 1347.29 213.26
  Q 1347.44 212.82 1347.80 212.53
  C 1348.45 212.02 1349.13 211.32 1349.88 211.07
  C 1362.78 206.76 1372.14 201.49 1366.55 186.23
  C 1365.37 183.01 1362.79 181.45 1360.09 179.69
  A 2.74 2.73 -68.6 0 1 1358.89 176.94
  L 1363.92 147.01
  A 1.22 1.21 -84.0 0 1 1365.16 146.00
  C 1390.38 146.94 1418.57 159.57 1428.96 184.02
  C 1445.97 224.04 1410.58 279.88 1383.85 307.44
  C 1360.83 331.17 1331.83 338.98 1299.93 328.96
  Z
  M 1380.11 186.89
  C 1383.66 200.94 1375.87 215.53 1362.11 220.84
  C 1360.12 221.61 1357.45 223.64 1356.90 225.25
  Q 1340.54 273.52 1316.40 317.91
  A 1.25 1.25 0.0 0 0 1317.36 319.75
  C 1342.75 322.49 1361.64 312.79 1378.32 294.82
  Q 1401.48 269.85 1413.25 238.51
  C 1423.85 210.25 1423.66 172.52 1387.26 163.97
  C 1382.10 162.76 1372.88 160.63 1372.19 168.98
  Q 1372.03 171.01 1373.55 173.60
  C 1376.02 177.79 1378.97 182.37 1380.11 186.89
  Z"
/>
<path fill="#b40000" d="
  M 450.76 181.25
  C 430.48 168.22 446.18 152.63 462.08 149.96
  A 1.19 1.19 0.0 0 1 463.43 151.40
  Q 460.30 164.77 457.04 178.09
  C 456.25 181.32 453.91 183.28 450.76 181.25
  Z"
/>
<path fill="#b40000" d="
  M 1311.77 159.75
  Q 1318.06 151.79 1328.74 150.07
  A 1.49 1.49 0.0 0 1 1330.42 151.90
  L 1323.45 179.74
  Q 1322.85 182.13 1320.50 181.39
  C 1310.14 178.15 1303.44 170.31 1311.77 159.75
  Z"
/>
<path fill="#f4c824" d="
  M 1144.64 257.98
  C 1138.94 257.70 1134.52 254.30 1132.34 249.09
  C 1127.04 236.41 1120.92 220.87 1137.39 212.93
  Q 1137.82 212.72 1138.30 212.78
  C 1164.54 215.95 1183.15 179.79 1193.82 162.59
  C 1200.63 151.61 1216.83 149.90 1225.33 159.93
  C 1234.96 171.29 1227.65 183.12 1219.81 193.25
  Q 1213.45 201.47 1208.28 210.49
  Q 1207.95 211.07 1207.83 211.59
  Q 1207.67 212.36 1207.76 212.79
  A 1.45 1.44 -4.9 0 0 1209.11 213.92
  C 1214.30 214.15 1220.73 213.42 1224.92 214.15
  C 1236.24 216.11 1243.14 228.85 1236.56 238.99
  C 1232.03 245.97 1223.59 247.39 1215.49 247.44
  Q 1204.25 247.51 1192.99 247.16
  A 1.34 1.30 -56.6 0 0 1192.36 247.30
  C 1191.26 247.84 1190.54 248.34 1189.97 249.44
  Q 1172.19 283.79 1168.98 323.99
  Q 1168.74 326.93 1170.28 328.50
  A 1.08 1.07 -27.8 0 0 1171.27 328.80
  C 1177.64 327.43 1184.87 318.09 1189.73 313.84
  Q 1190.11 313.51 1190.60 313.42
  C 1209.80 309.84 1222.10 324.44 1208.53 340.94
  C 1200.23 351.02 1188.50 359.44 1175.73 363.06
  C 1154.66 369.02 1141.41 357.42 1138.64 336.99
  Q 1133.40 298.35 1148.68 263.17
  C 1150.39 259.23 1148.16 258.15 1144.64 257.98
  Z"
/>
<path fill="#ffffff" d="
  M 451.17 319.56
  C 449.57 318.60 449.79 317.35 450.59 315.84
  Q 474.09 271.85 490.17 224.62
  A 1.20 1.11 -16.1 0 1 490.43 224.19
  L 492.07 222.56
  A 0.50 0.42 -76.7 0 1 492.23 222.44
  C 508.72 215.08 519.33 200.60 511.29 182.19
  C 509.62 178.37 505.04 171.30 505.25 167.99
  C 505.51 163.86 509.59 160.81 513.76 161.72
  C 547.34 169.04 558.45 195.41 549.40 227.33
  C 537.72 268.53 502.82 325.49 451.72 319.74
  A 1.43 1.33 61.1 0 1 451.17 319.56
  Z"
/>
<path fill="#ffffff" d="
  M 1362.11 220.84
  C 1375.87 215.53 1383.66 200.94 1380.11 186.89
  C 1378.97 182.37 1376.02 177.79 1373.55 173.60
  Q 1372.03 171.01 1372.19 168.98
  C 1372.88 160.63 1382.10 162.76 1387.26 163.97
  C 1423.66 172.52 1423.85 210.25 1413.25 238.51
  Q 1401.48 269.85 1378.32 294.82
  C 1361.64 312.79 1342.75 322.49 1317.36 319.75
  A 1.25 1.25 0.0 0 1 1316.40 317.91
  Q 1340.54 273.52 1356.90 225.25
  C 1357.45 223.64 1360.12 221.61 1362.11 220.84
  Z"
/>
<path fill="#b40000" d="
  M 656.26 291.95
  A 2.31 2.30 -74.6 0 0 657.94 294.91
  C 665.39 296.64 672.75 299.29 677.57 305.43
  C 686.85 317.24 681.84 334.15 674.22 345.19
  C 657.56 369.36 617.37 399.27 595.42 360.15
  Q 587.46 345.98 588.55 329.73
  C 591.33 288.22 609.26 250.96 628.83 214.91
  C 631.73 209.56 634.44 204.26 638.07 199.58
  C 660.41 170.80 697.05 192.82 687.60 225.83
  C 685.79 232.16 682.72 238.18 679.76 244.37
  Q 668.75 267.37 657.11 290.06
  Q 656.49 291.27 656.26 291.95
  Z
  M 636.94 318.39
  Q 634.77 320.57 635.44 317.56
  C 642.27 286.83 657.43 258.61 671.85 230.89
  C 675.68 223.53 678.70 216.82 676.17 209.31
  Q 673.64 201.81 666.78 200.00
  C 657.97 197.67 649.43 203.92 645.18 211.44
  Q 627.78 242.23 613.48 275.99
  Q 602.87 301.04 601.59 328.25
  Q 601.07 339.18 603.09 346.68
  C 607.08 361.59 618.68 370.02 633.79 363.56
  Q 652.17 355.69 664.88 337.61
  C 670.03 330.30 672.52 319.59 666.21 312.62
  C 660.89 306.76 652.44 305.98 645.66 309.93
  C 642.35 311.86 639.75 315.56 636.94 318.39
  Z"
/>
<path fill="#b40000" d="
  M 1556.49 223.70
  Q 1556.02 226.82 1557.81 224.22
  C 1567.73 209.85 1584.64 196.06 1602.25 193.72
  C 1623.97 190.82 1636.82 204.53 1647.05 222.22
  A 1.70 1.69 -36.7 0 0 1649.68 222.60
  C 1661.79 211.11 1679.62 202.15 1696.67 207.92
  C 1711.51 212.95 1721.08 229.75 1723.75 244.32
  C 1726.40 258.77 1722.59 277.18 1718.44 291.63
  A 2.00 1.97 -59.5 0 0 1718.93 293.57
  Q 1720.37 295.05 1721.57 293.08
  Q 1730.00 279.24 1745.93 275.93
  Q 1746.87 275.74 1747.77 274.33
  C 1775.64 230.70 1840.34 171.97 1897.55 195.95
  C 1924.07 207.06 1937.48 234.68 1924.11 261.54
  Q 1919.50 270.80 1912.33 277.35
  C 1886.75 300.69 1841.38 324.18 1805.47 317.04
  Q 1803.25 316.60 1801.21 317.47
  A 0.36 0.36 0.0 0 0 1801.25 318.14
  Q 1843.62 330.77 1879.83 306.30
  Q 1883.11 304.09 1886.33 301.81
  C 1917.78 279.52 1953.99 316.58 1924.52 346.53
  C 1905.77 365.58 1872.66 376.36 1846.84 380.39
  C 1810.82 386.02 1776.39 376.25 1749.06 352.30
  A 1.87 1.87 0.0 0 0 1746.33 352.59
  C 1734.57 368.36 1713.72 386.34 1693.24 388.04
  C 1673.46 389.67 1658.47 375.83 1654.50 356.75
  C 1651.83 343.88 1652.42 330.29 1654.10 317.36
  A 1.34 1.34 0.0 0 0 1651.64 316.48
  C 1641.09 333.38 1629.78 351.15 1614.81 364.30
  C 1604.54 373.31 1592.84 376.38 1579.72 370.78
  C 1559.66 362.22 1559.22 339.76 1568.77 323.10
  A 0.73 0.73 0.0 0 0 1567.99 322.03
  L 1552.74 325.25
  Q 1551.36 325.54 1550.98 326.90
  C 1544.12 351.41 1509.84 387.49 1481.04 376.94
  C 1467.87 372.11 1460.68 358.86 1457.65 345.78
  C 1453.67 328.62 1457.20 308.34 1462.47 291.43
  C 1472.21 260.18 1486.27 231.87 1502.65 204.42
  Q 1507.74 195.90 1511.66 192.66
  C 1530.39 177.15 1559.28 192.09 1557.80 216.33
  C 1557.65 218.77 1556.85 221.33 1556.49 223.70
  Z
  M 1504.85 318.43
  Q 1502.86 320.20 1503.44 317.59
  C 1510.45 286.10 1526.02 257.89 1540.81 229.50
  Q 1543.90 223.56 1544.48 218.00
  C 1546.06 202.83 1529.18 191.24 1517.54 204.28
  Q 1515.95 206.07 1512.97 211.45
  C 1498.51 237.55 1441.75 344.83 1483.47 363.58
  C 1503.96 372.78 1521.33 351.37 1532.81 337.30
  C 1539.46 329.13 1541.62 314.84 1530.16 309.31
  C 1520.22 304.51 1511.34 312.66 1504.85 318.43
  Z
  M 1637.74 256.27
  Q 1637.68 255.98 1637.72 255.50
  Q 1638.47 244.74 1637.30 234.02
  C 1636.14 223.33 1626.02 210.89 1616.06 207.12
  C 1586.65 195.96 1552.46 249.02 1542.35 270.01
  Q 1534.74 285.80 1539.39 302.77
  C 1540.52 306.91 1546.65 309.60 1550.20 310.52
  Q 1559.23 312.86 1565.30 306.05
  Q 1569.77 301.03 1570.49 296.75
  C 1571.98 287.85 1573.47 279.68 1578.38 271.89
  Q 1588.64 255.62 1602.18 242.60
  A 1.63 1.63 0.0 0 1 1604.92 243.55
  Q 1605.20 245.62 1604.99 248.34
  Q 1601.62 290.86 1581.26 328.00
  C 1574.96 339.48 1571.98 354.27 1587.55 360.05
  C 1599.79 364.60 1606.22 357.73 1613.33 347.98
  Q 1644.23 305.57 1674.85 263.32
  A 1.47 1.46 35.0 0 1 1676.86 262.97
  Q 1677.06 263.11 1677.25 263.65
  Q 1677.36 264.00 1677.26 264.40
  Q 1670.59 291.04 1667.21 318.27
  C 1665.05 335.59 1662.38 373.32 1688.58 375.40
  C 1710.92 377.17 1736.79 347.13 1748.96 330.95
  Q 1749.90 329.70 1750.80 329.28
  A 0.82 0.81 -24.7 0 1 1751.89 329.68
  C 1775.83 382.13 1849.04 372.46 1890.60 353.21
  C 1903.49 347.23 1927.73 334.35 1921.34 317.29
  C 1917.04 305.81 1905.11 305.27 1895.93 311.36
  C 1891.24 314.47 1886.22 318.05 1881.83 320.47
  C 1854.61 335.51 1814.73 343.86 1787.07 324.49
  C 1779.88 319.46 1784.27 304.37 1787.79 298.34
  A 1.16 1.16 0.0 0 1 1789.35 297.91
  C 1802.77 305.49 1816.25 308.40 1831.51 305.03
  C 1857.49 299.31 1895.03 282.01 1910.80 258.09
  C 1920.97 242.69 1917.66 225.07 1903.09 214.16
  C 1876.83 194.49 1843.94 204.12 1819.05 220.59
  Q 1779.20 246.95 1754.74 287.83
  A 1.90 1.88 -74.9 0 1 1753.16 288.75
  C 1742.49 288.96 1732.66 298.46 1725.83 305.83
  Q 1717.26 315.06 1702.25 333.71
  Q 1700.69 335.66 1699.05 334.44
  A 1.34 1.32 23.0 0 1 1698.53 333.18
  Q 1703.79 300.52 1710.04 267.91
  C 1713.46 250.02 1711.77 234.81 1696.70 223.02
  C 1674.25 205.46 1649.54 241.26 1639.19 256.57
  A 0.80 0.80 0.0 0 1 1637.74 256.27
  Z"
/>
<path fill="#f4c824" d="
  M 977.14 311.63
  Q 977.75 310.83 977.87 309.56
  C 981.90 265.00 1013.61 225.10 1051.00 202.47
  Q 1056.69 199.04 1067.93 196.38
  Q 1081.46 193.19 1095.20 198.78
  C 1115.56 207.07 1126.84 230.64 1128.41 251.75
  Q 1128.59 254.16 1127.52 256.06
  C 1122.32 265.29 1110.08 270.40 1101.61 261.58
  Q 1099.44 259.31 1096.93 253.21
  C 1089.71 235.59 1086.31 219.89 1063.07 234.60
  Q 1023.42 259.70 1011.20 306.23
  Q 1010.45 309.07 1010.42 313.44
  C 1010.28 328.89 1020.85 333.91 1034.72 332.69
  C 1054.84 330.93 1066.21 319.10 1079.81 305.82
  C 1085.75 300.02 1095.78 295.01 1103.29 300.93
  C 1122.02 315.67 1098.39 334.31 1086.80 343.82
  C 1067.21 359.92 1041.29 370.25 1015.65 364.23
  Q 991.24 358.49 980.04 332.99
  A 1.09 1.09 0.0 0 0 978.31 332.62
  C 940.54 367.00 893.33 377.36 845.18 361.84
  C 799.40 347.09 800.07 306.94 822.96 272.72
  Q 845.93 238.38 881.73 217.70
  C 909.07 201.91 951.37 191.75 971.43 225.32
  C 983.02 244.70 964.93 265.83 950.33 276.83
  C 927.91 293.73 895.41 308.16 866.75 305.73
  Q 855.58 304.78 848.30 296.45
  A 0.61 0.61 0.0 0 0 847.39 296.44
  C 834.72 310.19 841.04 326.19 857.80 330.96
  Q 899.15 342.74 936.51 322.78
  C 947.63 316.84 956.62 304.94 970.17 308.36
  C 972.32 308.91 973.90 310.07 975.33 311.69
  A 1.17 1.17 0.0 0 0 977.14 311.63
  Z
  M 867.76 271.04
  C 891.94 277.27 922.34 257.85 939.96 243.20
  Q 941.98 241.51 940.11 239.82
  C 922.83 224.12 879.84 258.22 867.50 270.04
  A 0.59 0.59 0.0 0 0 867.76 271.04
  Z"
/>
<path fill="#f4c824" d="
  M 1504.85 318.43
  C 1511.34 312.66 1520.22 304.51 1530.16 309.31
  C 1541.62 314.84 1539.46 329.13 1532.81 337.30
  C 1521.33 351.37 1503.96 372.78 1483.47 363.58
  C 1441.75 344.83 1498.51 237.55 1512.97 211.45
  Q 1515.95 206.07 1517.54 204.28
  C 1529.18 191.24 1546.06 202.83 1544.48 218.00
  Q 1543.90 223.56 1540.81 229.50
  C 1526.02 257.89 1510.45 286.10 1503.44 317.59
  Q 1502.86 320.20 1504.85 318.43
  Z"
/>
<path fill="#f4c824" d="
  M 636.94 318.39
  C 639.75 315.56 642.35 311.86 645.66 309.93
  C 652.44 305.98 660.89 306.76 666.21 312.62
  C 672.52 319.59 670.03 330.30 664.88 337.61
  Q 652.17 355.69 633.79 363.56
  C 618.68 370.02 607.08 361.59 603.09 346.68
  Q 601.07 339.18 601.59 328.25
  Q 602.87 301.04 613.48 275.99
  Q 627.78 242.23 645.18 211.44
  C 649.43 203.92 657.97 197.67 666.78 200.00
  Q 673.64 201.81 676.17 209.31
  C 678.70 216.82 675.68 223.53 671.85 230.89
  C 657.43 258.61 642.27 286.83 635.44 317.56
  Q 634.77 320.57 636.94 318.39
  Z"
/>
<path fill="#f4c824" d="
  M 1637.74 256.27
  A 0.80 0.80 0.0 0 0 1639.19 256.57
  C 1649.54 241.26 1674.25 205.46 1696.70 223.02
  C 1711.77 234.81 1713.46 250.02 1710.04 267.91
  Q 1703.79 300.52 1698.53 333.18
  A 1.34 1.32 23.0 0 0 1699.05 334.44
  Q 1700.69 335.66 1702.25 333.71
  Q 1717.26 315.06 1725.83 305.83
  C 1732.66 298.46 1742.49 288.96 1753.16 288.75
  A 1.90 1.88 -74.9 0 0 1754.74 287.83
  Q 1779.20 246.95 1819.05 220.59
  C 1843.94 204.12 1876.83 194.49 1903.09 214.16
  C 1917.66 225.07 1920.97 242.69 1910.80 258.09
  C 1895.03 282.01 1857.49 299.31 1831.51 305.03
  C 1816.25 308.40 1802.77 305.49 1789.35 297.91
  A 1.16 1.16 0.0 0 0 1787.79 298.34
  C 1784.27 304.37 1779.88 319.46 1787.07 324.49
  C 1814.73 343.86 1854.61 335.51 1881.83 320.47
  C 1886.22 318.05 1891.24 314.47 1895.93 311.36
  C 1905.11 305.27 1917.04 305.81 1921.34 317.29
  C 1927.73 334.35 1903.49 347.23 1890.60 353.21
  C 1849.04 372.46 1775.83 382.13 1751.89 329.68
  A 0.82 0.81 -24.7 0 0 1750.80 329.28
  Q 1749.90 329.70 1748.96 330.95
  C 1736.79 347.13 1710.92 377.17 1688.58 375.40
  C 1662.38 373.32 1665.05 335.59 1667.21 318.27
  Q 1670.59 291.04 1677.26 264.40
  Q 1677.36 264.00 1677.25 263.65
  Q 1677.06 263.11 1676.86 262.97
  A 1.47 1.46 35.0 0 0 1674.85 263.32
  Q 1644.23 305.57 1613.33 347.98
  C 1606.22 357.73 1599.79 364.60 1587.55 360.05
  C 1571.98 354.27 1574.96 339.48 1581.26 328.00
  Q 1601.62 290.86 1604.99 248.34
  Q 1605.20 245.62 1604.92 243.55
  A 1.63 1.63 0.0 0 0 1602.18 242.60
  Q 1588.64 255.62 1578.38 271.89
  C 1573.47 279.68 1571.98 287.85 1570.49 296.75
  Q 1569.77 301.03 1565.30 306.05
  Q 1559.23 312.86 1550.20 310.52
  C 1546.65 309.60 1540.52 306.91 1539.39 302.77
  Q 1534.74 285.80 1542.35 270.01
  C 1552.46 249.02 1586.65 195.96 1616.06 207.12
  C 1626.02 210.89 1636.14 223.33 1637.30 234.02
  Q 1638.47 244.74 1637.72 255.50
  Q 1637.68 255.98 1637.74 256.27
  Z
  M 1810.08 271.91
  C 1836.34 274.24 1862.24 260.04 1881.55 243.62
  C 1883.79 241.71 1883.36 239.83 1880.92 238.52
  C 1860.36 227.54 1823.23 256.55 1809.46 270.17
  A 1.02 1.02 0.0 0 0 1810.08 271.91
  Z"
/>
<path fill="#f4c824" d="
  M 710.78 368.64
  C 702.02 367.37 695.47 360.31 695.55 351.22
  C 695.61 343.57 698.60 333.58 699.55 325.89
  Q 705.39 278.44 711.25 231.00
  C 712.06 224.44 714.16 217.76 719.27 213.69
  C 724.93 209.17 732.54 209.76 737.93 214.43
  C 744.16 219.83 745.47 228.89 743.65 236.64
  A 1.16 1.15 -17.3 0 0 745.63 237.68
  C 760.68 221.09 779.13 211.34 801.52 210.32
  Q 808.68 210.00 812.83 211.46
  C 828.50 216.97 828.28 238.34 811.42 241.90
  C 807.06 242.81 801.76 242.93 797.59 244.04
  C 757.44 254.67 738.20 314.99 732.63 350.78
  Q 732.24 353.32 728.54 359.27
  C 724.68 365.49 718.23 369.73 710.78 368.64
  Z"
/>
<path fill="#f4c824" d="
  M 83.75 244.74
  Q 83.72 244.99 83.75 245.21
  Q 83.79 245.42 83.99 245.59
  Q 91.58 252.19 98.94 259.02
  L 102.34 262.02
  L 110.58 274.21
  A 2.30 2.29 40.8 0 1 110.75 276.46
  C 103.11 292.77 101.66 309.21 115.26 322.67
  Q 114.50 322.91 113.71 323.95
  L 102.11 314.18
  Q 95.12 299.66 100.44 285.57
  A 1.81 1.80 82.1 0 0 97.68 283.48
  C 83.78 293.78 72.38 293.05 60.48 281.02
  C 46.83 267.20 35.21 250.72 24.30 234.69
  A 0.28 0.28 0.0 0 1 24.53 234.25
  Q 24.93 234.24 25.26 234.49
  Q 51.50 254.50 74.14 278.51
  C 74.79 279.19 75.65 279.42 76.44 278.92
  A 0.72 0.71 55.6 0 0 76.63 277.89
  Q 58.66 253.44 39.09 230.15
  C 37.75 228.56 36.64 226.70 35.44 224.95
  A 0.50 0.50 0.0 0 1 36.10 224.24
  Q 37.69 225.17 39.33 226.46
  Q 63.25 245.23 83.94 270.29
  C 87.09 274.10 92.91 269.60 89.86 265.65
  Q 85.94 260.60 68.75 245.26
  Q 53.96 232.05 38.03 218.26
  A 1.23 1.23 0.0 0 1 37.93 216.51
  C 38.78 215.57 40.10 216.26 41.16 216.73
  C 56.45 223.59 70.26 234.43 82.76 244.52
  Q 83.05 244.75 83.42 244.75
  Q 83.58 244.75 83.75 244.74
  Z"
/>
<path fill="#f4c824" d="
  M 241.74 272.42
  C 242.76 276.42 244.80 285.87 249.21 286.06
  C 252.88 286.21 254.68 282.16 255.26 279.07
  L 298.56 235.55
  A 0.82 0.82 0.0 0 1 299.58 235.43
  Q 300.47 235.99 299.58 237.10
  Q 278.87 262.98 258.18 287.96
  A 2.32 2.32 0.0 0 0 258.10 290.82
  C 259.64 292.89 263.19 289.56 264.77 288.73
  C 257.35 303.46 233.94 310.91 219.63 316.69
  Q 228.91 300.01 225.61 281.32
  C 225.41 280.18 225.83 278.54 226.39 277.52
  Q 231.55 268.08 236.39 258.23
  L 247.67 245.34
  Q 266.31 231.22 284.38 217.59
  Q 285.92 216.43 288.05 216.93
  A 0.85 0.85 0.0 0 1 288.44 218.37
  Q 263.94 241.72 241.30 267.30
  Q 239.22 269.65 241.74 272.42
  Z"
/>
<path fill="#e07617" d="
  M 255.26 279.07
  C 254.68 282.16 252.88 286.21 249.21 286.06
  C 244.80 285.87 242.76 276.42 241.74 272.42
  Q 264.79 251.24 285.87 228.42
  C 287.35 226.83 289.01 226.19 290.80 227.47
  A 0.58 0.58 0.0 0 1 290.91 228.31
  Q 272.55 250.23 255.23 272.93
  Q 253.08 275.75 253.20 276.97
  Q 253.41 279.11 255.26 279.07
  Z"
/>
<path fill="#ffffff" d="
  M 210.69 255.88
  L 210.32 256.09
  Q 209.96 256.28 209.58 256.17
  Q 167.07 243.91 124.46 255.81
  Q 123.64 256.04 123.00 256.04
  Q 121.94 256.04 121.51 255.78
  Q 113.99 251.24 105.54 246.40
  Q 107.50 243.77 112.56 241.72
  Q 168.89 218.84 223.36 244.53
  A 1.13 1.13 0.0 0 1 223.55 246.47
  L 210.69 255.88
  Z"
/>
<path fill="#e07617" d="
  M 258.81 317.71
  Q 248.58 323.12 236.12 324.88
  C 222.73 336.98 213.81 354.10 209.09 371.28
  C 208.41 373.74 209.56 375.74 211.67 377.23
  Q 233.78 392.87 267.28 419.72
  C 277.46 427.88 275.90 437.59 268.38 446.82
  C 262.32 454.25 253.64 459.04 243.61 457.49
  C 231.88 455.67 218.92 448.88 208.49 442.51
  Q 183.99 427.56 163.68 410.82
  Q 162.42 409.78 160.30 410.02
  A 1.54 1.51 20.0 0 0 159.48 410.39
  Q 132.40 434.56 100.38 451.42
  Q 89.61 457.09 83.83 457.69
  C 63.69 459.76 39.71 435.00 60.86 417.86
  Q 93.72 391.22 119.52 372.77
  Q 121.25 371.54 120.66 370.01
  Q 110.37 343.64 90.00 324.11
  Q 89.84 323.96 89.62 323.98
  Q 88.96 324.07 89.44 324.17
  L 88.95 323.83
  Q 88.56 323.57 88.09 323.56
  Q 77.05 323.50 66.60 317.18
  Q 73.99 311.52 73.14 303.83
  L 102.11 314.18
  L 113.71 323.95
  Q 120.37 340.95 132.52 354.38
  Q 131.73 355.69 132.07 357.87
  Q 132.14 358.35 132.44 358.73
  C 144.97 374.51 161.07 389.27 176.63 402.06
  C 192.46 415.06 209.12 427.18 227.27 436.00
  C 233.26 438.91 247.67 443.74 254.17 440.67
  C 261.04 437.43 260.14 430.08 254.59 426.16
  Q 190.55 380.83 130.30 330.59
  C 127.65 328.39 124.94 327.35 122.66 330.59
  L 115.26 322.67
  C 101.66 309.21 103.11 292.77 110.75 276.46
  A 2.30 2.29 40.8 0 0 110.58 274.21
  L 102.34 262.02
  Q 106.93 256.92 113.61 258.05
  Q 116.32 258.51 117.10 259.92
  Q 124.38 273.06 119.68 286.90
  C 118.63 290.01 113.30 297.19 114.44 300.05
  Q 119.18 311.95 129.75 315.46
  L 162.25 338.19
  A 2.76 2.76 0.0 0 0 165.43 338.17
  L 198.35 314.58
  Q 201.68 313.96 203.06 310.80
  L 214.51 316.19
  Q 196.68 333.24 176.11 345.64
  Q 173.76 347.05 175.37 348.61
  Q 178.99 352.11 191.78 362.74
  C 193.10 363.83 194.88 362.37 195.44 360.94
  Q 204.77 337.23 219.63 316.69
  C 233.94 310.91 257.35 303.46 264.77 288.73
  L 315.17 232.97
  A 1.40 1.40 0.0 0 1 317.46 234.54
  C 302.47 264.16 286.92 298.04 258.81 317.71
  Z
  M 65.84 434.16
  C 74.33 444.11 82.75 443.10 93.79 437.44
  Q 123.10 422.39 147.28 400.05
  A 2.14 2.12 53.4 0 0 147.66 397.41
  Q 146.22 394.95 144.58 393.97
  L 133.53 383.22
  A 1.89 1.89 0.0 0 0 131.23 382.96
  Q 95.76 404.51 65.84 434.16
  Z"
/>
<path fill="#f4c824" d="
  M 73.14 303.83
  Q 73.99 311.52 66.60 317.18
  Q 66.58 317.51 66.56 317.84
  C 39.33 297.10 22.77 264.45 7.57 234.59
  A 0.96 0.96 0.0 0 1 9.13 233.51
  L 73.14 303.83
  Z"
/>
<path fill="#b40000" d="
  M 867.76 271.04
  A 0.59 0.59 0.0 0 1 867.50 270.04
  C 879.84 258.22 922.83 224.12 940.11 239.82
  Q 941.98 241.51 939.96 243.20
  C 922.34 257.85 891.94 277.27 867.76 271.04
  Z"
/>
<path fill="#b40000" d="
  M 1810.08 271.91
  A 1.02 1.02 0.0 0 1 1809.46 270.17
  C 1823.23 256.55 1860.36 227.54 1880.92 238.52
  C 1883.36 239.83 1883.79 241.71 1881.55 243.62
  C 1862.24 260.04 1836.34 274.24 1810.08 271.91
  Z"
/>
<path fill="#ffffff" d="
  M 1124.67 305.21
  L 1122.07 305.65
  C 1110.50 283.88 1088.60 278.63 1070.34 297.11
  C 1066.21 301.29 1061.72 306.89 1057.27 310.35
  Q 1046.27 318.90 1032.16 320.09
  C 1024.14 320.76 1021.52 316.83 1023.51 309.44
  Q 1035.54 264.69 1075.92 241.77
  A 1.57 1.54 -56.3 0 1 1076.79 241.59
  Q 1079.84 241.86 1080.55 244.47
  C 1087.18 268.50 1101.01 289.54 1129.38 273.64
  A 0.96 0.95 81.0 0 1 1130.78 274.66
  L 1124.67 305.21
  Z"
/>
<path fill="#d60d39" d="
  M 105.54 246.40
  Q 113.99 251.24 121.51 255.78
  Q 121.94 256.04 123.00 256.04
  Q 123.64 256.04 124.46 255.81
  Q 167.07 243.91 209.58 256.17
  Q 209.96 256.28 210.32 256.09
  L 210.69 255.88
  L 211.96 257.50
  L 209.80 271.08
  Q 171.63 257.99 133.06 268.60
  C 126.45 270.42 129.19 280.48 131.63 284.48
  C 130.26 286.23 128.35 290.56 131.22 291.86
  Q 131.66 292.06 132.13 291.91
  Q 136.83 290.37 141.56 288.96
  C 161.77 282.93 180.46 283.63 200.29 290.30
  Q 204.66 291.77 209.12 292.01
  L 221.38 298.66
  L 214.51 316.19
  L 203.06 310.80
  Q 199.69 308.54 197.02 311.42
  C 183.97 296.02 145.38 307.98 129.75 315.46
  Q 119.18 311.95 114.44 300.05
  C 113.30 297.19 118.63 290.01 119.68 286.90
  Q 124.38 273.06 117.10 259.92
  Q 116.32 258.51 113.61 258.05
  Q 106.93 256.92 102.34 262.02
  L 98.94 259.02
  L 99.31 258.56
  A 1.01 0.99 22.6 0 1 100.19 258.21
  Q 102.51 258.47 103.94 256.82
  A 0.97 0.97 0.0 0 0 104.14 255.96
  Q 102.79 250.73 105.54 246.40
  Z"
/>
<path fill="#e07617" d="
  M 211.96 257.50
  L 233.72 259.26
  L 223.77 271.52
  A 7.03 6.98 65.8 0 0 222.21 275.67
  L 221.38 298.66
  L 209.12 292.01
  L 208.31 286.89
  Q 211.22 278.97 209.80 271.08
  L 211.96 257.50
  Z"
/>
<path fill="#ffffff" d="
  M 236.39 258.23
  Q 231.55 268.08 226.39 277.52
  C 225.83 278.54 225.41 280.18 225.61 281.32
  Q 228.91 300.01 219.63 316.69
  Q 204.77 337.23 195.44 360.94
  C 194.88 362.37 193.10 363.83 191.78 362.74
  Q 178.99 352.11 175.37 348.61
  Q 173.76 347.05 176.11 345.64
  Q 196.68 333.24 214.51 316.19
  L 221.38 298.66
  L 222.21 275.67
  A 7.03 6.98 65.8 0 1 223.77 271.52
  L 233.72 259.26
  L 236.39 258.23
  Z"
/>
<path fill="#b3082d" d="
  M 209.80 271.08
  Q 211.22 278.97 208.31 286.89
  C 183.05 278.25 157.09 276.86 131.63 284.48
  C 129.19 280.48 126.45 270.42 133.06 268.60
  Q 171.63 257.99 209.80 271.08
  Z"
/>
<path fill="#ffffff" d="
  M 866.92 320.18
  Q 867.12 318.55 867.76 317.64
  C 901.92 323.90 944.10 299.11 969.50 278.31
  A 0.90 0.89 78.0 0 1 970.93 279.24
  C 970.07 282.36 968.18 292.53 964.84 293.47
  Q 954.50 296.38 945.82 301.57
  C 939.15 305.56 930.88 311.36 923.82 314.64
  Q 896.79 327.16 866.92 320.18
  Z"
/>
<path fill="#ffffff" d="
  M 208.31 286.89
  L 209.12 292.01
  Q 204.66 291.77 200.29 290.30
  C 180.46 283.63 161.77 282.93 141.56 288.96
  Q 136.83 290.37 132.13 291.91
  Q 131.66 292.06 131.22 291.86
  C 128.35 290.56 130.26 286.23 131.63 284.48
  C 157.09 276.86 183.05 278.25 208.31 286.89
  Z"
/>
<path fill="#ffffff" d="
  M 197.02 311.42
  L 198.35 314.58
  L 165.43 338.17
  A 2.76 2.76 0.0 0 1 162.25 338.19
  L 129.75 315.46
  C 145.38 307.98 183.97 296.02 197.02 311.42
  Z"
/>
<path fill="#f4c824" d="
  M 1124.67 305.21
  L 1124.08 326.74
  L 1121.06 326.16
  L 1122.07 305.65
  L 1124.67 305.21
  Z"
/>
<path fill="#f4c824" d="
  M 203.06 310.80
  Q 201.68 313.96 198.35 314.58
  L 197.02 311.42
  Q 199.69 308.54 203.06 310.80
  Z"
/>
<path fill="#f4c824" d="
  M 867.76 317.64
  Q 867.12 318.55 866.92 320.18
  L 859.96 318.41
  A 0.41 0.41 0.0 0 1 859.92 317.63
  Q 863.92 316.24 867.76 317.64
  Z"
/>
<path fill="#d60d39" d="
  M 66.56 317.84
  Q 66.58 317.51 66.60 317.18
  Q 77.05 323.50 88.09 323.56
  Q 88.56 323.57 88.95 323.83
  L 89.44 324.17
  C 68.28 341.96 54.08 364.56 60.02 393.50
  Q 60.86 397.60 61.75 401.70
  A 1.34 1.31 54.0 0 1 61.61 402.64
  Q 56.43 411.97 45.93 407.85
  Q 44.39 407.25 43.69 405.35
  C 31.01 371.09 40.34 341.82 66.56 317.84
  Z"
/>
<path fill="#b3082d" d="
  M 258.81 317.71
  C 286.98 341.46 295.44 372.61 280.71 406.79
  A 1.30 1.27 -1.6 0 1 280.08 407.44
  Q 272.36 411.14 266.46 405.11
  C 264.75 403.36 264.42 402.05 265.06 399.55
  C 273.37 367.17 263.21 342.98 236.12 324.88
  Q 248.58 323.12 258.81 317.71
  Z"
/>
<path fill="#ffffff" d="
  M 115.26 322.67
  L 122.66 330.59
  C 153.53 360.94 188.31 388.37 223.38 412.51
  Q 226.18 414.43 222.89 413.61
  C 186.93 404.70 157.79 380.24 132.52 354.38
  Q 120.37 340.95 113.71 323.95
  Q 114.50 322.91 115.26 322.67
  Z"
/>
<path fill="#f4c824" d="
  M 132.52 354.38
  C 157.79 380.24 186.93 404.70 222.89 413.61
  Q 226.18 414.43 223.38 412.51
  C 188.31 388.37 153.53 360.94 122.66 330.59
  C 124.94 327.35 127.65 328.39 130.30 330.59
  Q 190.55 380.83 254.59 426.16
  C 260.14 430.08 261.04 437.43 254.17 440.67
  C 247.67 443.74 233.26 438.91 227.27 436.00
  C 209.12 427.18 192.46 415.06 176.63 402.06
  C 161.07 389.27 144.97 374.51 132.44 358.73
  Q 132.14 358.35 132.07 357.87
  Q 131.73 355.69 132.52 354.38
  Z"
/>
<path fill="#ffffff" d="
  M 144.58 393.97
  Q 107.88 419.28 65.84 434.16
  Q 95.76 404.51 131.23 382.96
  A 1.89 1.89 0.0 0 1 133.53 383.22
  L 144.58 393.97
  Z"
/>
<path fill="#f4c824" d="
  M 144.58 393.97
  Q 146.22 394.95 147.66 397.41
  A 2.14 2.12 53.4 0 1 147.28 400.05
  Q 123.10 422.39 93.79 437.44
  C 82.75 443.10 74.33 444.11 65.84 434.16
  Q 107.88 419.28 144.58 393.97
  Z"
/>
</svg>
