<?xml version="1.0" encoding="UTF-8" standalone="no"?>
<!DOCTYPE svg PUBLIC "-//W3C//DTD SVG 1.1//EN" "http://www.w3.org/Graphics/SVG/1.1/DTD/svg11.dtd">
<svg xmlns="http://www.w3.org/2000/svg" version="1.1" viewBox="0.00 0.00 500.00 500.00">
<g stroke-width="2.00" fill="none" stroke-linecap="butt">
<path stroke="#c8858f" vector-effect="non-scaling-stroke" d="
  M 191.57 260.52
  L 191.69 263.79"
/>
<path stroke="#f8e583" vector-effect="non-scaling-stroke" d="
  M 191.69 263.79
  C 180.83 255.68 169.28 244.69 155.74 240.35
  A 0.56 0.56 0.0 0 0 155.02 240.97
  Q 155.10 241.52 155.71 242.04
  C 165.19 250.19 175.58 257.85 184.36 266.72
  C 188.85 271.26 195.17 276.38 197.39 282.45
  A 0.89 0.89 0.0 0 1 195.96 283.41
  Q 189.55 277.60 183.26 271.49
  Q 183.09 271.31 182.83 271.33
  Q 182.31 271.36 182.66 271.74
  C 185.66 274.99 192.79 280.81 194.44 284.44
  Q 194.75 285.13 194.00 284.98
  L 192.91 284.75"
/>
<path stroke="#f4ce85" vector-effect="non-scaling-stroke" d="
  M 192.91 284.75
  Q 181.49 272.14 169.84 259.66
  Q 162.76 252.07 153.73 247.11
  A 0.18 0.18 0.0 0 0 153.51 247.38
  Q 167.13 263.57 180.09 280.19
  C 182.06 282.72 184.14 285.93 186.63 287.97
  Q 188.22 289.26 186.28 289.85"
/>
<path stroke="#f8e583" vector-effect="non-scaling-stroke" d="
  M 186.28 289.85
  Q 183.41 288.15 182.48 287.27
  C 170.37 275.75 158.76 264.06 145.34 254.35
  A 0.26 0.26 0.0 0 0 144.98 254.72
  C 155.62 268.09 165.65 281.82 176.82 294.43
  Q 178.44 296.26 180.46 297.57
  C 186.93 301.74 199.24 295.79 204.30 291.26
  A 0.24 0.24 0.0 0 1 204.69 291.50
  C 202.43 300.28 201.03 309.63 206.51 317.63"
/>
<path stroke="#ebb989" vector-effect="non-scaling-stroke" d="
  M 206.51 317.63
  C 200.25 313.68 193.84 311.92 187.14 309.44"
/>
<path stroke="#f4ce85" vector-effect="non-scaling-stroke" d="
  M 187.14 309.44
  Q 177.70 304.35 173.02 298.47
  Q 155.03 275.84 134.72 255.28
  Q 133.79 254.34 132.90 253.67
  A 0.36 0.35 4.9 0 0 132.37 254.11
  Q 142.54 273.31 153.81 291.69
  C 160.01 301.79 167.35 311.91 177.86 318.53"
/>
<path stroke="#ebb989" vector-effect="non-scaling-stroke" d="
  M 177.86 318.53
  Q 178.41 318.93 178.63 319.59"
/>
<path stroke="#e8849b" vector-effect="non-scaling-stroke" d="
  M 178.63 319.59
  C 158.09 336.64 152.13 358.45 159.78 384.01
  Q 161.86 390.93 168.97 389.23
  C 174.11 388.01 174.34 384.47 173.40 379.77
  C 168.31 354.24 177.86 340.96 195.38 323.96"
/>
<path stroke="#ebb989" vector-effect="non-scaling-stroke" d="
  M 195.38 323.96
  Q 204.10 328.58 209.16 338.34
  Q 214.72 349.04 220.99 359.53
  Q 221.25 359.96 220.84 360.25
  Q 202.10 373.61 174.19 394.92
  C 157.43 407.73 176.28 429.88 192.50 426.48
  Q 198.82 425.15 207.19 420.44
  Q 230.59 407.27 250.58 389.63
  A 0.77 0.76 43.4 0 1 251.57 389.61
  Q 273.77 407.69 299.15 421.28
  Q 305.75 424.81 313.03 426.66
  C 325.64 429.85 342.52 415.06 336.41 402.02
  C 334.95 398.90 331.15 396.03 328.52 393.98
  Q 307.85 377.79 286.55 362.48
  Q 286.19 362.22 286.35 361.81
  C 291.87 348.07 297.59 332.17 306.30 325.55
  Q 307.90 324.33 310.14 325.74"
/>
<path stroke="#c8858f" vector-effect="non-scaling-stroke" d="
  M 310.14 325.74
  C 322.22 334.34 330.27 343.66 332.29 359.01
  Q 333.83 370.81 330.56 382.13
  C 328.82 388.15 340.99 393.24 343.95 384.55
  Q 347.85 373.13 347.93 363.51
  C 348.11 343.62 339.94 331.83 325.85 319.11"
/>
<path stroke="#ebb989" vector-effect="non-scaling-stroke" d="
  M 325.85 319.11
  C 336.43 311.66 342.77 304.83 349.69 293.19
  Q 354.13 285.72 366.64 263.36
  Q 369.32 258.55 371.58 253.52
  A 0.35 0.35 0.0 0 0 371.05 253.09
  Q 369.70 254.06 368.36 255.37
  Q 354.59 268.84 342.88 283.17"
/>
<path stroke="#f8e583" vector-effect="non-scaling-stroke" d="
  M 342.88 283.17
  C 339.61 286.53 329.77 297.81 326.16 298.65
  A 1.13 1.13 0.0 0 1 325.02 296.83
  L 358.15 256.19
  A 0.38 0.38 0.0 0 0 357.61 255.65
  Q 340.93 269.25 327.20 285.69
  Q 325.08 288.24 322.27 288.89"
/>
<path stroke="#ebb989" vector-effect="non-scaling-stroke" d="
  M 322.27 288.89
  L 320.92 288.42
  Q 320.32 288.21 320.70 287.71
  Q 332.88 271.62 345.90 256.22
  C 347.98 253.75 349.74 250.56 351.73 247.86
  A 0.43 0.43 0.0 0 0 351.12 247.27
  C 339.56 256.31 329.60 267.84 319.72 278.71
  Q 317.28 281.39 313.97 283.08"
/>
<path stroke="#f8e583" vector-effect="non-scaling-stroke" d="
  M 313.97 283.08
  Q 313.20 283.20 312.60 283.57
  Q 312.27 283.78 311.94 283.58
  Q 310.72 282.86 311.44 281.94
  Q 323.95 265.94 342.07 249.20
  C 344.70 246.77 346.81 244.26 348.93 241.57
  A 0.52 0.52 0.0 0 0 348.24 240.82
  Q 332.84 250.81 318.64 262.88
  Q 318.21 263.25 317.40 263.32"
/>
<path stroke="#c8858f" vector-effect="non-scaling-stroke" d="
  M 317.40 263.32
  Q 317.08 260.39 317.39 256.68
  Q 318.51 243.17 318.99 226.75
  Q 319.11 222.79 318.55 209.48"
/>
<path stroke="#d68194" vector-effect="non-scaling-stroke" d="
  M 318.55 209.48
  C 333.09 210.56 346.95 203.78 357.11 193.61
  C 383.23 167.47 375.97 127.24 345.14 108.90
  C 339.63 105.62 332.54 104.21 328.10 99.40
  Q 314.41 84.57 293.82 80.72"
/>
<path stroke="#e8849b" vector-effect="non-scaling-stroke" d="
  M 293.82 80.72
  Q 274.09 78.08 254.57 87.26
  Q 254.17 87.45 253.80 87.21
  C 231.08 72.63 201.26 79.06 181.89 96.65
  Q 181.53 96.98 181.05 97.08
  C 155.21 102.81 130.14 123.57 127.19 151.31
  C 123.46 186.34 153.90 212.09 187.72 210.38
  Q 188.21 210.35 188.25 210.85
  L 191.57 260.52"
/>
<path stroke="#c80b35" vector-effect="non-scaling-stroke" d="
  M 293.82 80.72
  L 291.22 85.32
  Q 290.99 85.73 291.00 85.26
  Q 291.00 85.12 291.00 84.98
  A 0.18 0.18 0.0 0 0 290.66 84.89
  Q 288.55 88.80 287.71 90.73
  C 286.65 93.18 287.84 95.35 287.55 97.89
  Q 287.50 98.37 287.02 98.44
  Q 285.90 98.61 286.03 99.90"
/>
<path stroke="#e8849b" vector-effect="non-scaling-stroke" d="
  M 286.03 99.90
  C 274.76 99.35 266.00 103.05 256.37 108.96
  Q 255.93 109.23 255.54 108.90
  C 241.54 97.35 219.51 93.93 204.86 106.57
  Q 190.43 119.02 184.59 135.37
  Q 183.00 139.80 183.86 135.17
  Q 186.04 123.49 190.52 112.49
  Q 190.67 112.13 190.29 112.24
  Q 180.97 114.79 178.53 115.77
  C 161.27 122.68 142.89 139.90 145.45 160.22
  C 148.62 185.46 176.20 195.12 198.05 188.17"
/>
<path stroke="#c80b35" vector-effect="non-scaling-stroke" d="
  M 198.05 188.17
  L 197.79 188.65
  Q 197.64 188.93 197.96 188.94
  Q 198.19 188.94 198.35 189.06
  Q 198.51 189.19 198.57 189.52
  Q 200.09 197.55 204.92 204.19
  Q 205.22 204.60 205.17 205.10
  L 205.07 206.11"
/>
<path stroke="#e8849b" vector-effect="non-scaling-stroke" d="
  M 205.07 206.11
  Q 204.17 206.14 204.25 207.25
  Q 205.95 228.75 207.44 251.07"
/>
<path stroke="#ba0f30" vector-effect="non-scaling-stroke" d="
  M 207.44 251.07
  L 191.57 260.52"
/>
<path stroke="#a80c29" vector-effect="non-scaling-stroke" d="
  M 318.55 209.48
  L 314.72 206.63
  A 0.88 0.88 0.0 0 0 313.95 206.49
  Q 312.81 206.81 312.37 205.78
  Q 312.12 205.19 311.59 204.84
  L 306.00 201.05
  A 0.56 0.56 0.0 0 1 305.82 200.33
  L 306.20 199.62
  Q 306.44 199.19 306.12 198.81
  L 301.56 193.35
  A 1.61 1.52 -69.9 0 1 301.22 192.56
  Q 300.90 190.21 300.30 187.91
  Q 300.24 187.71 300.11 187.62
  Q 299.91 187.47 299.69 187.45
  Q 299.24 187.42 299.12 186.99
  Q 298.15 183.68 299.21 180.61"
/>
<path stroke="#b08092" vector-effect="non-scaling-stroke" d="
  M 299.21 180.61
  Q 308.69 185.11 318.65 184.93
  C 335.80 184.63 352.31 169.80 351.14 152.06
  C 350.20 137.91 340.85 127.00 329.10 120.43"
/>
<path stroke="#d68194" vector-effect="non-scaling-stroke" d="
  M 329.10 120.43
  Q 327.93 118.37 323.11 118.59
  Q 322.60 118.62 322.21 118.29
  L 316.21 113.27
  A 0.21 0.21 0.0 0 0 315.87 113.50
  L 317.01 117.19
  A 0.62 0.62 0.0 0 1 315.94 117.78
  C 307.80 108.24 299.15 101.14 286.03 99.90"
/>
<path stroke="#d0f9f8" vector-effect="non-scaling-stroke" d="
  M 329.10 120.43
  Q 337.55 134.34 342.32 148.84
  C 343.20 151.55 343.45 154.74 341.97 156.96
  C 336.73 164.85 326.64 173.05 318.40 176.68
  Q 308.24 181.15 296.16 178.59"
/>
<path stroke="#c8858f" vector-effect="non-scaling-stroke" d="
  M 296.16 178.59
  Q 288.91 177.91 285.31 178.36
  Q 273.43 179.83 261.55 184.24
  Q 259.34 185.06 261.65 184.62
  C 265.65 183.87 271.74 186.16 276.99 188.18
  C 286.12 191.70 293.84 197.82 300.99 204.28
  C 301.62 204.84 302.69 205.31 303.46 205.75
  A 0.74 0.74 0.0 0 1 303.83 206.47
  Q 301.70 227.67 301.67 248.97
  A 0.68 0.68 0.0 0 1 300.71 249.59
  C 270.07 235.86 237.92 236.98 207.44 251.07"
/>
<path stroke="#d68194" vector-effect="non-scaling-stroke" d="
  M 205.07 206.11
  C 211.92 201.65 218.31 195.52 225.33 191.93
  Q 238.82 185.02 253.47 180.88
  Q 257.16 179.84 261.05 179.71
  Q 265.80 179.55 261.10 178.90
  Q 243.87 176.51 224.48 179.01
  C 214.76 180.26 206.82 184.29 198.05 188.17"
/>
<path stroke="#c97018" vector-effect="non-scaling-stroke" d="
  M 317.40 263.32
  Q 317.63 263.92 316.56 264.81
  Q 314.61 266.45 308.96 272.62"
/>
<path stroke="#c8858f" vector-effect="non-scaling-stroke" d="
  M 308.96 272.62
  Q 307.69 273.43 307.14 274.40"
/>
<path stroke="#bd441f" vector-effect="non-scaling-stroke" d="
  M 307.14 274.40
  Q 298.21 274.44 289.33 272.95"
/>
<path stroke="#ba0f30" vector-effect="non-scaling-stroke" d="
  M 289.33 272.95
  Q 288.65 272.73 288.46 271.50"
/>
<path stroke="#c8858f" vector-effect="non-scaling-stroke" d="
  M 288.46 271.50
  L 299.28 263.94
  Q 299.73 263.62 299.23 263.39
  Q 253.33 241.24 207.75 263.70
  Q 207.25 263.95 207.73 264.23
  L 219.29 270.98"
/>
<path stroke="#ba0f30" vector-effect="non-scaling-stroke" d="
  M 219.29 270.98
  Q 219.43 272.49 217.82 273.43"
/>
<path stroke="#bd441f" vector-effect="non-scaling-stroke" d="
  M 217.82 273.43
  L 202.70 274.57"
/>
<path stroke="#c97018" vector-effect="non-scaling-stroke" d="
  M 202.70 274.57
  L 191.69 263.79"
/>
<path stroke="#a2838d" vector-effect="non-scaling-stroke" d="
  M 299.21 180.61
  Q 297.34 180.03 296.16 178.59"
/>
<path stroke="#dd432b" vector-effect="non-scaling-stroke" d="
  M 289.33 272.95
  L 288.80 285.25"
/>
<path stroke="#c80b35" vector-effect="non-scaling-stroke" d="
  M 288.80 285.25
  C 269.21 274.93 247.14 276.28 226.86 282.51
  Q 226.00 282.78 225.94 283.68
  Q 225.57 288.91 227.23 293.95"
/>
<path stroke="#e8849b" vector-effect="non-scaling-stroke" d="
  M 227.23 293.95
  L 227.26 299.42
  Q 227.26 299.92 227.73 299.73
  Q 257.44 287.77 287.24 300.23"
/>
<path stroke="#c80b35" vector-effect="non-scaling-stroke" d="
  M 287.24 300.23
  Q 287.33 300.66 288.49 300.48"
/>
<path stroke="#dd432b" vector-effect="non-scaling-stroke" d="
  M 288.49 300.48
  L 293.07 302.04
  A 1.04 1.04 0.0 0 1 293.68 302.58
  L 296.87 309.23"
/>
<path stroke="#e8849b" vector-effect="non-scaling-stroke" d="
  M 296.87 309.23
  L 291.58 316.27"
/>
<path stroke="#e8849b" vector-effect="non-scaling-stroke" d="
  M 276.80 311.36
  C 261.30 307.77 239.52 307.80 226.71 318.00"
/>
<path stroke="#cb4024" vector-effect="non-scaling-stroke" d="
  M 288.49 300.48
  Q 288.49 300.30 288.35 300.26
  Q 288.21 300.22 288.22 300.08
  L 288.80 285.25"
/>
<path stroke="#e8849b" vector-effect="non-scaling-stroke" d="
  M 288.46 271.50
  C 288.07 271.73 287.30 271.88 286.84 271.74
  Q 254.16 261.85 221.62 272.07
  Q 221.17 272.21 220.77 271.95
  L 219.29 270.98"
/>
<path stroke="#eda413" vector-effect="non-scaling-stroke" d="
  M 202.70 274.57
  L 212.27 285.88
  A 1.27 1.26 -52.3 0 1 212.44 287.26
  C 207.18 297.91 204.29 312.09 215.02 320.80
  Q 216.72 322.18 218.46 323.49
  Q 244.02 342.59 268.83 362.67
  Q 281.55 372.96 322.36 402.36
  Q 327.28 405.91 325.01 410.49
  C 322.27 416.02 313.01 415.14 308.40 413.11
  Q 300.73 409.73 295.58 405.92
  Q 294.67 405.25 294.01 405.24
  A 0.88 0.87 -27.0 0 1 293.57 405.10
  L 268.23 388.80"
/>
<path stroke="#c97018" vector-effect="non-scaling-stroke" d="
  M 268.23 388.80
  C 253.33 377.85 241.33 368.18 230.72 353.31"
/>
<path stroke="#eda413" vector-effect="non-scaling-stroke" d="
  M 230.72 353.31
  L 227.14 346.56"
/>
<path stroke="#f8e583" vector-effect="non-scaling-stroke" d="
  M 227.14 346.56
  Q 229.16 346.32 230.29 347.72
  C 243.34 363.91 260.33 375.73 278.52 385.46
  C 285.17 389.01 292.26 390.99 299.52 393.01
  A 0.19 0.18 -19.5 0 0 299.68 392.68
  C 274.59 375.33 249.72 356.39 227.79 335.12
  Q 221.22 328.73 213.61 323.40"
/>
<path stroke="#eda413" vector-effect="non-scaling-stroke" d="
  M 213.61 323.40
  L 206.51 317.63"
/>
<path stroke="#f6b90e" vector-effect="non-scaling-stroke" d="
  M 186.28 289.85
  Q 186.40 290.01 186.82 290.02
  Q 187.39 290.04 187.43 289.47
  Q 187.55 287.80 188.96 286.79
  A 0.89 0.88 -24.1 0 0 189.31 285.89
  Q 188.96 284.36 190.24 283.98
  Q 190.78 283.83 191.23 284.15
  Q 192.03 284.71 192.91 284.75"
/>
<path stroke="#ebb989" vector-effect="non-scaling-stroke" d="
  M 296.87 309.23
  Q 298.93 296.86 297.80 284.17
  Q 297.75 283.57 298.32 283.35
  L 300.29 282.60
  Q 300.79 282.41 301.12 281.99
  L 307.14 274.40"
/>
<path stroke="#bd441f" vector-effect="non-scaling-stroke" d="
  M 325.85 319.11
  L 310.14 325.74"
/>
<path stroke="#dd432b" vector-effect="non-scaling-stroke" d="
  M 195.38 323.96
  Q 187.40 323.93 180.62 319.83
  C 179.96 319.43 179.31 319.38 178.63 319.59"
/>
<path stroke="#e98d15" vector-effect="non-scaling-stroke" d="
  M 177.86 318.53
  L 183.02 318.94
  Q 183.22 318.96 183.14 318.77
  Q 183.08 318.63 183.14 318.49
  C 183.56 317.54 185.98 316.90 186.80 314.64
  Q 187.02 314.01 186.36 314.00
  Q 186.21 314.00 186.05 314.00
  Q 185.38 314.01 185.74 313.45
  Q 187.01 311.46 187.14 309.44"
/>
<path stroke="#ebb989" vector-effect="non-scaling-stroke" d="
  M 213.61 323.40
  L 227.14 346.56"
/>
<path stroke="#bd441f" vector-effect="non-scaling-stroke" d="
  M 230.72 353.31
  C 236.90 367.52 255.44 381.52 268.23 388.80"
/>
<path stroke="#dd432b" vector-effect="non-scaling-stroke" d="
  M 217.82 273.43
  Q 218.29 278.08 220.36 282.26
  C 221.91 285.40 218.73 296.08 217.98 299.82
  Q 217.88 300.31 217.48 300.62
  Q 212.99 304.06 216.69 309.33
  Q 221.71 316.46 226.71 318.00"
/>
<path stroke="#ebb989" vector-effect="non-scaling-stroke" d="
  M 226.71 318.00
  Q 240.60 325.92 252.47 335.62
  A 1.13 1.12 42.0 0 0 253.99 335.55
  Q 261.41 328.09 270.48 322.26
  C 273.21 320.50 277.01 318.98 280.20 317.06
  Q 280.99 316.59 280.08 316.56
  Q 275.23 316.36 276.80 311.36"
/>
<path stroke="#dd432b" vector-effect="non-scaling-stroke" d="
  M 276.80 311.36
  L 283.65 314.34
  Q 284.09 314.53 284.56 314.49
  Q 285.55 314.42 286.02 314.71
  Q 288.36 316.17 290.98 317.07
  Q 291.42 317.22 291.50 316.75
  L 291.58 316.27"
/>
<path stroke="#ebb989" vector-effect="non-scaling-stroke" d="
  M 291.58 316.27
  Q 292.14 316.62 292.49 317.21
  Q 292.76 317.66 292.45 318.09
  C 291.08 319.97 289.77 321.89 287.78 323.22
  Q 274.46 332.12 261.52 341.69
  Q 261.09 342.01 261.48 342.38
  Q 267.97 348.69 275.46 353.76
  Q 275.92 354.07 276.16 353.57
  L 288.15 328.98"
/>
<path stroke="#eda413" vector-effect="non-scaling-stroke" d="
  M 313.97 283.08
  Q 315.28 283.32 316.24 284.19
  Q 316.63 284.54 316.28 284.94
  C 311.57 290.34 316.18 298.87 321.91 291.46
  Q 322.75 290.37 322.27 288.89"
/>
<path stroke="#eda413" vector-effect="non-scaling-stroke" d="
  M 342.88 283.17
  Q 337.00 294.43 327.25 302.74
  C 319.25 309.56 303.77 312.47 295.72 321.21
  Q 292.11 325.14 288.15 328.98"
/>
<path stroke="#f8e583" vector-effect="non-scaling-stroke" d="
  M 288.15 328.98
  Q 293.51 320.35 298.94 311.86
  C 304.12 303.78 297.58 292.30 302.97 284.72
  Q 306.46 279.80 309.10 274.34
  Q 309.57 273.38 308.96 272.62"
/>
<path stroke="#d68194" vector-effect="non-scaling-stroke" d="
  M 287.24 300.23
  L 287.47 295.56
  Q 287.50 295.03 286.97 294.90
  C 270.97 291.16 257.20 288.10 240.99 290.62
  C 236.67 291.29 231.87 292.78 227.23 293.95"
/>
<path stroke="#7b7d7d" vector-effect="non-scaling-stroke" d="
  M 252.88 433.16
  L 253.19 436.21
  A 0.63 0.63 0.0 0 0 254.43 436.29
  L 255.37 432.41
  A 0.76 0.76 0.0 0 0 254.92 431.53
  C 246.89 428.17 238.59 432.19 238.86 441.69
  C 239.10 450.20 247.52 454.31 254.42 449.42
  Q 255.01 448.99 254.95 448.38
  Q 254.88 447.75 254.33 448.08
  C 238.47 457.61 238.25 427.42 252.39 432.52
  Q 252.84 432.68 252.88 433.16"
/>
<path stroke="#7b7d7d" vector-effect="non-scaling-stroke" d="
  M 157.00 433.14
  L 157.00 448.83
  A 0.93 0.92 80.1 0 1 156.39 449.70
  L 154.72 450.31
  A 0.43 0.43 0.0 0 0 154.88 451.14
  C 163.26 450.81 174.19 452.25 173.28 439.56
  C 172.58 429.75 162.01 430.69 155.01 430.83
  A 0.49 0.49 0.0 0 0 154.87 431.79
  L 156.35 432.26
  A 0.92 0.92 0.0 0 1 157.00 433.14"
/>
<path stroke="#7b7d7d" vector-effect="non-scaling-stroke" d="
  M 185.87 432.24
  L 187.42 431.81
  A 0.49 0.49 0.0 0 0 187.29 430.84
  L 180.59 430.86
  Q 180.38 430.87 180.32 431.06
  Q 180.27 431.19 180.23 431.33
  A 0.47 0.47 0.0 0 0 180.57 431.92
  L 181.94 432.24
  Q 182.50 432.37 182.50 432.94
  L 182.50 448.84
  A 0.83 0.82 -10.3 0 1 181.96 449.61
  L 180.11 450.27
  A 0.44 0.44 0.0 0 0 180.27 451.13
  L 187.29 450.95
  A 0.38 0.38 0.0 0 0 187.40 450.21
  L 185.80 449.64
  Q 185.32 449.47 185.33 448.97
  L 185.52 432.69
  Q 185.53 432.33 185.87 432.24"
/>
<path stroke="#7b7d7d" vector-effect="non-scaling-stroke" d="
  M 205.48 441.10
  C 211.71 438.32 208.35 430.39 202.48 430.74
  Q 198.45 430.98 194.44 430.84
  Q 194.01 430.82 194.00 431.25
  Q 194.00 431.41 194.00 431.58
  Q 194.00 431.81 194.22 431.87
  L 195.70 432.25
  Q 196.25 432.39 196.25 432.96
  L 196.25 449.04
  Q 196.25 449.61 195.70 449.72
  L 194.10 450.07
  A 0.52 0.52 0.0 0 0 194.22 451.09
  L 201.03 450.96
  A 0.39 0.38 -35.5 0 0 201.16 450.21
  L 199.62 449.67
  Q 199.18 449.51 199.19 449.05
  L 199.23 442.49
  Q 199.23 441.97 199.76 441.98
  L 202.22 442.06
  A 0.81 0.79 80.2 0 1 202.95 442.59
  C 204.28 446.35 206.29 453.15 211.22 450.92
  A 0.34 0.34 0.0 0 0 211.17 450.28
  L 209.44 449.76
  A 1.11 1.10 -4.3 0 1 208.76 449.18
  L 205.22 441.81
  Q 204.99 441.32 205.48 441.10"
/>
<path stroke="#7b7d7d" vector-effect="non-scaling-stroke" d="
  M 229.77 449.75
  L 222.25 449.75
  A 0.50 0.50 0.0 0 1 221.75 449.25
  L 221.75 442.25
  Q 221.75 441.50 222.50 441.50
  L 226.97 441.50
  A 0.57 0.57 0.0 0 1 227.53 442.18
  Q 227.36 442.98 227.71 443.73
  A 0.58 0.58 0.0 0 0 228.81 443.48
  L 228.80 438.16
  A 0.59 0.58 50.3 0 0 227.64 438.05
  L 227.40 439.37
  A 0.77 0.77 0.0 0 1 226.63 440.00
  L 222.40 439.99
  A 0.65 0.65 0.0 0 1 221.75 439.34
  L 221.75 432.88
  A 0.63 0.63 0.0 0 1 222.38 432.25
  L 228.66 432.25
  Q 229.33 432.25 229.43 432.91
  L 229.80 435.39
  A 0.73 0.73 0.0 0 0 231.25 435.28
  L 231.25 431.53
  Q 231.25 431.07 230.78 431.06
  L 217.18 430.86
  Q 216.83 430.85 216.78 431.20
  L 216.74 431.46
  A 0.40 0.39 -80.1 0 0 217.04 431.89
  L 218.49 432.26
  Q 218.99 432.38 218.99 432.90
  Q 219.02 440.60 218.98 448.30
  C 218.98 449.47 218.26 449.97 217.18 450.03
  Q 216.83 450.05 216.79 450.39
  L 216.74 450.71
  Q 216.70 451.05 217.04 451.05
  L 231.36 450.98
  Q 232.46 450.97 232.32 449.88
  L 231.85 446.23
  A 0.58 0.57 -45.8 0 0 230.71 446.25
  L 230.42 449.16
  A 0.66 0.65 -87.1 0 1 229.77 449.75"
/>
<path stroke="#7b7d7d" vector-effect="non-scaling-stroke" d="
  M 285.70 432.91
  L 285.77 448.96
  Q 285.77 449.54 285.22 449.68
  L 283.42 450.14
  A 0.43 0.43 0.0 0 0 283.53 450.98
  C 291.12 451.05 300.57 452.46 301.90 442.48
  C 303.52 430.33 291.99 430.34 283.67 430.87
  A 0.40 0.40 0.0 0 0 283.55 431.65
  L 285.32 432.35
  Q 285.70 432.50 285.70 432.91"
/>
<path stroke="#7b7d7d" vector-effect="non-scaling-stroke" d="
  M 311.00 432.94
  L 311.00 448.83
  A 0.93 0.92 -9.9 0 1 310.38 449.70
  L 308.79 450.28
  A 0.43 0.43 0.0 0 0 308.95 451.12
  L 315.79 450.95
  A 0.40 0.39 54.1 0 0 315.91 450.18
  L 314.22 449.57
  A 0.71 0.70 10.1 0 1 313.75 448.91
  L 313.75 433.20
  Q 313.75 432.58 314.32 432.35
  L 315.92 431.69
  A 0.41 0.40 -56.0 0 0 315.77 430.91
  L 309.23 430.85
  A 0.54 0.54 0.0 0 0 309.10 431.92
  L 310.45 432.24
  A 0.72 0.71 -83.4 0 1 311.00 432.94"
/>
<path stroke="#7b7d7d" vector-effect="non-scaling-stroke" d="
  M 326.70 435.20
  Q 326.81 435.73 327.23 436.29
  Q 333.01 444.13 339.04 451.52
  A 0.40 0.40 0.0 0 0 339.75 451.27
  L 339.75 432.96
  Q 339.75 432.43 340.25 432.26
  L 342.10 431.64
  A 0.40 0.39 -54.0 0 0 341.98 430.87
  L 336.26 430.83
  A 0.46 0.45 -34.2 0 0 336.09 431.71
  L 337.66 432.32
  Q 338.25 432.55 338.25 433.18
  L 338.25 445.04
  Q 338.25 445.87 337.75 445.21
  L 327.31 431.53
  Q 326.97 431.09 326.41 431.03
  L 322.71 430.69
  A 0.49 0.49 0.0 0 0 322.48 431.64
  L 323.99 432.24
  Q 324.49 432.44 324.49 432.99
  L 324.51 448.64
  Q 324.52 449.34 323.88 449.62
  L 322.53 450.22
  A 0.44 0.44 0.0 0 0 322.72 451.06
  L 328.03 450.98
  A 0.39 0.39 0.0 0 0 328.16 450.22
  L 326.75 449.69
  Q 326.25 449.50 326.25 448.97
  L 326.25 435.25
  A 0.23 0.23 0.0 0 1 326.70 435.20"
/>
<path stroke="#7b7d7d" vector-effect="non-scaling-stroke" d="
  M 353.84 432.25
  L 360.31 432.25
  Q 360.89 432.25 360.96 432.82
  L 361.32 435.47
  A 0.72 0.71 -48.9 0 0 362.74 435.37
  L 362.76 431.67
  Q 362.76 431.07 362.16 431.06
  L 348.62 430.86
  Q 348.28 430.86 348.28 431.19
  L 348.28 431.63
  A 0.28 0.28 0.0 0 0 348.50 431.90
  L 349.94 432.24
  Q 350.50 432.37 350.50 432.94
  L 350.50 448.93
  Q 350.50 449.44 350.02 449.62
  L 348.25 450.28
  A 0.40 0.40 0.0 0 0 348.39 451.06
  L 363.05 450.97
  A 0.72 0.72 0.0 0 0 363.76 450.10
  Q 363.43 448.47 363.49 446.51
  Q 363.51 445.77 362.73 445.88
  Q 362.25 445.94 362.20 446.42
  L 361.92 449.07
  A 0.76 0.75 -87.0 0 1 361.17 449.75
  L 353.85 449.75
  A 0.64 0.64 0.0 0 1 353.21 449.09
  L 353.38 442.18
  Q 353.40 441.50 354.08 441.50
  L 358.07 441.50
  Q 358.65 441.50 358.81 442.06
  L 359.27 443.75
  A 0.60 0.60 0.0 0 0 360.44 443.51
  C 360.27 442.37 360.55 438.29 360.29 437.79
  Q 360.12 437.46 359.76 437.45
  Q 359.15 437.45 359.08 438.06
  L 358.96 439.31
  Q 358.89 439.95 358.25 439.96
  L 354.00 440.02
  Q 353.48 440.02 353.48 439.50
  L 353.44 432.66
  Q 353.43 432.25 353.84 432.25"
/>
<path stroke="#7b7d7d" vector-effect="non-scaling-stroke" d="
  M 267.26 449.63
  L 265.59 450.18
  A 0.40 0.40 0.0 0 0 265.71 450.96
  L 272.55 451.10
  A 0.53 0.53 0.0 0 0 272.69 450.06
  L 271.08 449.65
  Q 270.51 449.50 270.53 448.91
  L 270.83 432.99
  Q 270.84 432.25 271.58 432.25
  L 274.90 432.25
  Q 275.32 432.25 275.42 432.66
  L 276.23 436.16
  A 0.59 0.59 0.0 0 0 277.40 436.05
  L 277.58 431.64
  Q 277.60 431.00 276.96 431.00
  L 261.26 431.00
  Q 260.77 431.00 260.82 431.48
  L 261.23 436.18
  A 0.55 0.55 0.0 0 0 262.32 436.23
  L 263.01 432.70
  Q 263.09 432.25 263.55 432.25
  L 266.96 432.25
  Q 267.67 432.25 267.68 432.96
  L 267.78 448.91
  Q 267.78 449.46 267.26 449.63"
/>
<path stroke="#eda413" vector-effect="non-scaling-stroke" d="
  M 179.62 409.28
  C 185.48 418.23 195.84 413.86 202.94 409.44
  C 215.20 401.80 229.85 392.73 241.19 381.02
  Q 241.56 380.63 241.13 380.31
  L 238.51 378.35"
/>
<path stroke="#ebb989" vector-effect="non-scaling-stroke" d="
  M 238.51 378.35
  L 228.93 368.60
  Q 228.57 368.23 228.14 368.53
  C 209.14 382.06 194.74 391.77 181.94 402.59
  C 179.52 404.63 179.51 406.29 179.62 409.28"
/>
<path stroke="#f8e583" vector-effect="non-scaling-stroke" d="
  M 238.51 378.35
  Q 215.34 391.76 191.67 403.91
  Q 186.08 406.78 179.62 409.28"
/>
<path stroke="#7b7d7d" vector-effect="non-scaling-stroke" d="
  M 159.75 432.90
  L 159.75 449.12
  A 0.66 0.66 0.0 0 0 160.41 449.78
  L 162.88 449.78
  A 7.51 7.31 -90.0 0 0 170.19 442.27
  L 170.19 439.75
  A 7.51 7.31 90.0 0 0 162.88 432.24
  L 160.41 432.24
  A 0.66 0.66 0.0 0 0 159.75 432.90"
/>
<path stroke="#7b7d7d" vector-effect="non-scaling-stroke" d="
  M 199.29 432.67
  L 199.17 440.21
  A 0.50 0.50 0.0 0 0 199.66 440.71
  L 201.48 440.74
  A 4.48 4.01 0.9 0 0 206.03 436.80
  L 206.03 436.28
  A 4.48 4.01 0.9 0 0 201.62 432.20
  L 199.80 432.17
  A 0.50 0.50 0.0 0 0 199.29 432.67"
/>
<path stroke="#7b7d7d" vector-effect="non-scaling-stroke" d="
  M 288.67 432.54
  L 288.67 449.48
  A 0.31 0.31 0.0 0 0 288.98 449.79
  L 291.46 449.79
  A 7.47 7.47 0.0 0 0 298.93 442.32
  L 298.93 439.70
  A 7.47 7.47 0.0 0 0 291.46 432.23
  L 288.98 432.23
  A 0.31 0.31 0.0 0 0 288.67 432.54"
/>
</g>
<path fill="None" d="
  M 0.00 0.00
  L 500.00 0.00
  L 500.00 500.00
  L 0.00 500.00
  L 0.00 0.00
  Z
  M 191.57 260.52
  L 191.69 263.79
  C 180.83 255.68 169.28 244.69 155.74 240.35
  A 0.56 0.56 0.0 0 0 155.02 240.97
  Q 155.10 241.52 155.71 242.04
  C 165.19 250.19 175.58 257.85 184.36 266.72
  C 188.85 271.26 195.17 276.38 197.39 282.45
  A 0.89 0.89 0.0 0 1 195.96 283.41
  Q 189.55 277.60 183.26 271.49
  Q 183.09 271.31 182.83 271.33
  Q 182.31 271.36 182.66 271.74
  C 185.66 274.99 192.79 280.81 194.44 284.44
  Q 194.75 285.13 194.00 284.98
  L 192.91 284.75
  Q 181.49 272.14 169.84 259.66
  Q 162.76 252.07 153.73 247.11
  A 0.18 0.18 0.0 0 0 153.51 247.38
  Q 167.13 263.57 180.09 280.19
  C 182.06 282.72 184.14 285.93 186.63 287.97
  Q 188.22 289.26 186.28 289.85
  Q 183.41 288.15 182.48 287.27
  C 170.37 275.75 158.76 264.06 145.34 254.35
  A 0.26 0.26 0.0 0 0 144.98 254.72
  C 155.62 268.09 165.65 281.82 176.82 294.43
  Q 178.44 296.26 180.46 297.57
  C 186.93 301.74 199.24 295.79 204.30 291.26
  A 0.24 0.24 0.0 0 1 204.69 291.50
  C 202.43 300.28 201.03 309.63 206.51 317.63
  C 200.25 313.68 193.84 311.92 187.14 309.44
  Q 177.70 304.35 173.02 298.47
  Q 155.03 275.84 134.72 255.28
  Q 133.79 254.34 132.90 253.67
  A 0.36 0.35 4.9 0 0 132.37 254.11
  Q 142.54 273.31 153.81 291.69
  C 160.01 301.79 167.35 311.91 177.86 318.53
  Q 178.41 318.93 178.63 319.59
  C 158.09 336.64 152.13 358.45 159.78 384.01
  Q 161.86 390.93 168.97 389.23
  C 174.11 388.01 174.34 384.47 173.40 379.77
  C 168.31 354.24 177.86 340.96 195.38 323.96
  Q 204.10 328.58 209.16 338.34
  Q 214.72 349.04 220.99 359.53
  Q 221.25 359.96 220.84 360.25
  Q 202.10 373.61 174.19 394.92
  C 157.43 407.73 176.28 429.88 192.50 426.48
  Q 198.82 425.15 207.19 420.44
  Q 230.59 407.27 250.58 389.63
  A 0.77 0.76 43.4 0 1 251.57 389.61
  Q 273.77 407.69 299.15 421.28
  Q 305.75 424.81 313.03 426.66
  C 325.64 429.85 342.52 415.06 336.41 402.02
  C 334.95 398.90 331.15 396.03 328.52 393.98
  Q 307.85 377.79 286.55 362.48
  Q 286.19 362.22 286.35 361.81
  C 291.87 348.07 297.59 332.17 306.30 325.55
  Q 307.90 324.33 310.14 325.74
  C 322.22 334.34 330.27 343.66 332.29 359.01
  Q 333.83 370.81 330.56 382.13
  C 328.82 388.15 340.99 393.24 343.95 384.55
  Q 347.85 373.13 347.93 363.51
  C 348.11 343.62 339.94 331.83 325.85 319.11
  C 336.43 311.66 342.77 304.83 349.69 293.19
  Q 354.13 285.72 366.64 263.36
  Q 369.32 258.55 371.58 253.52
  A 0.35 0.35 0.0 0 0 371.05 253.09
  Q 369.70 254.06 368.36 255.37
  Q 354.59 268.84 342.88 283.17
  C 339.61 286.53 329.77 297.81 326.16 298.65
  A 1.13 1.13 0.0 0 1 325.02 296.83
  L 358.15 256.19
  A 0.38 0.38 0.0 0 0 357.61 255.65
  Q 340.93 269.25 327.20 285.69
  Q 325.08 288.24 322.27 288.89
  L 320.92 288.42
  Q 320.32 288.21 320.70 287.71
  Q 332.88 271.62 345.90 256.22
  C 347.98 253.75 349.74 250.56 351.73 247.86
  A 0.43 0.43 0.0 0 0 351.12 247.27
  C 339.56 256.31 329.60 267.84 319.72 278.71
  Q 317.28 281.39 313.97 283.08
  Q 313.20 283.20 312.60 283.57
  Q 312.27 283.78 311.94 283.58
  Q 310.72 282.86 311.44 281.94
  Q 323.95 265.94 342.07 249.20
  C 344.70 246.77 346.81 244.26 348.93 241.57
  A 0.52 0.52 0.0 0 0 348.24 240.82
  Q 332.84 250.81 318.64 262.88
  Q 318.21 263.25 317.40 263.32
  Q 317.08 260.39 317.39 256.68
  Q 318.51 243.17 318.99 226.75
  Q 319.11 222.79 318.55 209.48
  C 333.09 210.56 346.95 203.78 357.11 193.61
  C 383.23 167.47 375.97 127.24 345.14 108.90
  C 339.63 105.62 332.54 104.21 328.10 99.40
  Q 314.41 84.57 293.82 80.72
  Q 274.09 78.08 254.57 87.26
  Q 254.17 87.45 253.80 87.21
  C 231.08 72.63 201.26 79.06 181.89 96.65
  Q 181.53 96.98 181.05 97.08
  C 155.21 102.81 130.14 123.57 127.19 151.31
  C 123.46 186.34 153.90 212.09 187.72 210.38
  Q 188.21 210.35 188.25 210.85
  L 191.57 260.52
  Z
  M 252.88 433.16
  L 253.19 436.21
  A 0.63 0.63 0.0 0 0 254.43 436.29
  L 255.37 432.41
  A 0.76 0.76 0.0 0 0 254.92 431.53
  C 246.89 428.17 238.59 432.19 238.86 441.69
  C 239.10 450.20 247.52 454.31 254.42 449.42
  Q 255.01 448.99 254.95 448.38
  Q 254.88 447.75 254.33 448.08
  C 238.47 457.61 238.25 427.42 252.39 432.52
  Q 252.84 432.68 252.88 433.16
  Z
  M 157.00 433.14
  L 157.00 448.83
  A 0.93 0.92 80.1 0 1 156.39 449.70
  L 154.72 450.31
  A 0.43 0.43 0.0 0 0 154.88 451.14
  C 163.26 450.81 174.19 452.25 173.28 439.56
  C 172.58 429.75 162.01 430.69 155.01 430.83
  A 0.49 0.49 0.0 0 0 154.87 431.79
  L 156.35 432.26
  A 0.92 0.92 0.0 0 1 157.00 433.14
  Z
  M 185.87 432.24
  L 187.42 431.81
  A 0.49 0.49 0.0 0 0 187.29 430.84
  L 180.59 430.86
  Q 180.38 430.87 180.32 431.06
  Q 180.27 431.19 180.23 431.33
  A 0.47 0.47 0.0 0 0 180.57 431.92
  L 181.94 432.24
  Q 182.50 432.37 182.50 432.94
  L 182.50 448.84
  A 0.83 0.82 -10.3 0 1 181.96 449.61
  L 180.11 450.27
  A 0.44 0.44 0.0 0 0 180.27 451.13
  L 187.29 450.95
  A 0.38 0.38 0.0 0 0 187.40 450.21
  L 185.80 449.64
  Q 185.32 449.47 185.33 448.97
  L 185.52 432.69
  Q 185.53 432.33 185.87 432.24
  Z
  M 205.48 441.10
  C 211.71 438.32 208.35 430.39 202.48 430.74
  Q 198.45 430.98 194.44 430.84
  Q 194.01 430.82 194.00 431.25
  Q 194.00 431.41 194.00 431.58
  Q 194.00 431.81 194.22 431.87
  L 195.70 432.25
  Q 196.25 432.39 196.25 432.96
  L 196.25 449.04
  Q 196.25 449.61 195.70 449.72
  L 194.10 450.07
  A 0.52 0.52 0.0 0 0 194.22 451.09
  L 201.03 450.96
  A 0.39 0.38 -35.5 0 0 201.16 450.21
  L 199.62 449.67
  Q 199.18 449.51 199.19 449.05
  L 199.23 442.49
  Q 199.23 441.97 199.76 441.98
  L 202.22 442.06
  A 0.81 0.79 80.2 0 1 202.95 442.59
  C 204.28 446.35 206.29 453.15 211.22 450.92
  A 0.34 0.34 0.0 0 0 211.17 450.28
  L 209.44 449.76
  A 1.11 1.10 -4.3 0 1 208.76 449.18
  L 205.22 441.81
  Q 204.99 441.32 205.48 441.10
  Z
  M 229.77 449.75
  L 222.25 449.75
  A 0.50 0.50 0.0 0 1 221.75 449.25
  L 221.75 442.25
  Q 221.75 441.50 222.50 441.50
  L 226.97 441.50
  A 0.57 0.57 0.0 0 1 227.53 442.18
  Q 227.36 442.98 227.71 443.73
  A 0.58 0.58 0.0 0 0 228.81 443.48
  L 228.80 438.16
  A 0.59 0.58 50.3 0 0 227.64 438.05
  L 227.40 439.37
  A 0.77 0.77 0.0 0 1 226.63 440.00
  L 222.40 439.99
  A 0.65 0.65 0.0 0 1 221.75 439.34
  L 221.75 432.88
  A 0.63 0.63 0.0 0 1 222.38 432.25
  L 228.66 432.25
  Q 229.33 432.25 229.43 432.91
  L 229.80 435.39
  A 0.73 0.73 0.0 0 0 231.25 435.28
  L 231.25 431.53
  Q 231.25 431.07 230.78 431.06
  L 217.18 430.86
  Q 216.83 430.85 216.78 431.20
  L 216.74 431.46
  A 0.40 0.39 -80.1 0 0 217.04 431.89
  L 218.49 432.26
  Q 218.99 432.38 218.99 432.90
  Q 219.02 440.60 218.98 448.30
  C 218.98 449.47 218.26 449.97 217.18 450.03
  Q 216.83 450.05 216.79 450.39
  L 216.74 450.71
  Q 216.70 451.05 217.04 451.05
  L 231.36 450.98
  Q 232.46 450.97 232.32 449.88
  L 231.85 446.23
  A 0.58 0.57 -45.8 0 0 230.71 446.25
  L 230.42 449.16
  A 0.66 0.65 -87.1 0 1 229.77 449.75
  Z
  M 285.70 432.91
  L 285.77 448.96
  Q 285.77 449.54 285.22 449.68
  L 283.42 450.14
  A 0.43 0.43 0.0 0 0 283.53 450.98
  C 291.12 451.05 300.57 452.46 301.90 442.48
  C 303.52 430.33 291.99 430.34 283.67 430.87
  A 0.40 0.40 0.0 0 0 283.55 431.65
  L 285.32 432.35
  Q 285.70 432.50 285.70 432.91
  Z
  M 311.00 432.94
  L 311.00 448.83
  A 0.93 0.92 -9.9 0 1 310.38 449.70
  L 308.79 450.28
  A 0.43 0.43 0.0 0 0 308.95 451.12
  L 315.79 450.95
  A 0.40 0.39 54.1 0 0 315.91 450.18
  L 314.22 449.57
  A 0.71 0.70 10.1 0 1 313.75 448.91
  L 313.75 433.20
  Q 313.75 432.58 314.32 432.35
  L 315.92 431.69
  A 0.41 0.40 -56.0 0 0 315.77 430.91
  L 309.23 430.85
  A 0.54 0.54 0.0 0 0 309.10 431.92
  L 310.45 432.24
  A 0.72 0.71 -83.4 0 1 311.00 432.94
  Z
  M 326.70 435.20
  Q 326.81 435.73 327.23 436.29
  Q 333.01 444.13 339.04 451.52
  A 0.40 0.40 0.0 0 0 339.75 451.27
  L 339.75 432.96
  Q 339.75 432.43 340.25 432.26
  L 342.10 431.64
  A 0.40 0.39 -54.0 0 0 341.98 430.87
  L 336.26 430.83
  A 0.46 0.45 -34.2 0 0 336.09 431.71
  L 337.66 432.32
  Q 338.25 432.55 338.25 433.18
  L 338.25 445.04
  Q 338.25 445.87 337.75 445.21
  L 327.31 431.53
  Q 326.97 431.09 326.41 431.03
  L 322.71 430.69
  A 0.49 0.49 0.0 0 0 322.48 431.64
  L 323.99 432.24
  Q 324.49 432.44 324.49 432.99
  L 324.51 448.64
  Q 324.52 449.34 323.88 449.62
  L 322.53 450.22
  A 0.44 0.44 0.0 0 0 322.72 451.06
  L 328.03 450.98
  A 0.39 0.39 0.0 0 0 328.16 450.22
  L 326.75 449.69
  Q 326.25 449.50 326.25 448.97
  L 326.25 435.25
  A 0.23 0.23 0.0 0 1 326.70 435.20
  Z
  M 353.84 432.25
  L 360.31 432.25
  Q 360.89 432.25 360.96 432.82
  L 361.32 435.47
  A 0.72 0.71 -48.9 0 0 362.74 435.37
  L 362.76 431.67
  Q 362.76 431.07 362.16 431.06
  L 348.62 430.86
  Q 348.28 430.86 348.28 431.19
  L 348.28 431.63
  A 0.28 0.28 0.0 0 0 348.50 431.90
  L 349.94 432.24
  Q 350.50 432.37 350.50 432.94
  L 350.50 448.93
  Q 350.50 449.44 350.02 449.62
  L 348.25 450.28
  A 0.40 0.40 0.0 0 0 348.39 451.06
  L 363.05 450.97
  A 0.72 0.72 0.0 0 0 363.76 450.10
  Q 363.43 448.47 363.49 446.51
  Q 363.51 445.77 362.73 445.88
  Q 362.25 445.94 362.20 446.42
  L 361.92 449.07
  A 0.76 0.75 -87.0 0 1 361.17 449.75
  L 353.85 449.75
  A 0.64 0.64 0.0 0 1 353.21 449.09
  L 353.38 442.18
  Q 353.40 441.50 354.08 441.50
  L 358.07 441.50
  Q 358.65 441.50 358.81 442.06
  L 359.27 443.75
  A 0.60 0.60 0.0 0 0 360.44 443.51
  C 360.27 442.37 360.55 438.29 360.29 437.79
  Q 360.12 437.46 359.76 437.45
  Q 359.15 437.45 359.08 438.06
  L 358.96 439.31
  Q 358.89 439.95 358.25 439.96
  L 354.00 440.02
  Q 353.48 440.02 353.48 439.50
  L 353.44 432.66
  Q 353.43 432.25 353.84 432.25
  Z
  M 267.26 449.63
  L 265.59 450.18
  A 0.40 0.40 0.0 0 0 265.71 450.96
  L 272.55 451.10
  A 0.53 0.53 0.0 0 0 272.69 450.06
  L 271.08 449.65
  Q 270.51 449.50 270.53 448.91
  L 270.83 432.99
  Q 270.84 432.25 271.58 432.25
  L 274.90 432.25
  Q 275.32 432.25 275.42 432.66
  L 276.23 436.16
  A 0.59 0.59 0.0 0 0 277.40 436.05
  L 277.58 431.64
  Q 277.60 431.00 276.96 431.00
  L 261.26 431.00
  Q 260.77 431.00 260.82 431.48
  L 261.23 436.18
  A 0.55 0.55 0.0 0 0 262.32 436.23
  L 263.01 432.70
  Q 263.09 432.25 263.55 432.25
  L 266.96 432.25
  Q 267.67 432.25 267.68 432.96
  L 267.78 448.91
  Q 267.78 449.46 267.26 449.63
  Z"
/>
<path fill="#da0e3c" d="
  M 293.82 80.72
  L 291.22 85.32
  Q 290.99 85.73 291.00 85.26
  Q 291.00 85.12 291.00 84.98
  A 0.18 0.18 0.0 0 0 290.66 84.89
  Q 288.55 88.80 287.71 90.73
  C 286.65 93.18 287.84 95.35 287.55 97.89
  Q 287.50 98.37 287.02 98.44
  Q 285.90 98.61 286.03 99.90
  C 274.76 99.35 266.00 103.05 256.37 108.96
  Q 255.93 109.23 255.54 108.90
  C 241.54 97.35 219.51 93.93 204.86 106.57
  Q 190.43 119.02 184.59 135.37
  Q 183.00 139.80 183.86 135.17
  Q 186.04 123.49 190.52 112.49
  Q 190.67 112.13 190.29 112.24
  Q 180.97 114.79 178.53 115.77
  C 161.27 122.68 142.89 139.90 145.45 160.22
  C 148.62 185.46 176.20 195.12 198.05 188.17
  L 197.79 188.65
  Q 197.64 188.93 197.96 188.94
  Q 198.19 188.94 198.35 189.06
  Q 198.51 189.19 198.57 189.52
  Q 200.09 197.55 204.92 204.19
  Q 205.22 204.60 205.17 205.10
  L 205.07 206.11
  Q 204.17 206.14 204.25 207.25
  Q 205.95 228.75 207.44 251.07
  L 191.57 260.52
  L 188.25 210.85
  Q 188.21 210.35 187.72 210.38
  C 153.90 212.09 123.46 186.34 127.19 151.31
  C 130.14 123.57 155.21 102.81 181.05 97.08
  Q 181.53 96.98 181.89 96.65
  C 201.26 79.06 231.08 72.63 253.80 87.21
  Q 254.17 87.45 254.57 87.26
  Q 274.09 78.08 293.82 80.72
  Z"
/>
<path fill="#b6082e" d="
  M 293.82 80.72
  Q 314.41 84.57 328.10 99.40
  C 332.54 104.21 339.63 105.62 345.14 108.90
  C 375.97 127.24 383.23 167.47 357.11 193.61
  C 346.95 203.78 333.09 210.56 318.55 209.48
  L 314.72 206.63
  A 0.88 0.88 0.0 0 0 313.95 206.49
  Q 312.81 206.81 312.37 205.78
  Q 312.12 205.19 311.59 204.84
  L 306.00 201.05
  A 0.56 0.56 0.0 0 1 305.82 200.33
  L 306.20 199.62
  Q 306.44 199.19 306.12 198.81
  L 301.56 193.35
  A 1.61 1.52 -69.9 0 1 301.22 192.56
  Q 300.90 190.21 300.30 187.91
  Q 300.24 187.71 300.11 187.62
  Q 299.91 187.47 299.69 187.45
  Q 299.24 187.42 299.12 186.99
  Q 298.15 183.68 299.21 180.61
  Q 308.69 185.11 318.65 184.93
  C 335.80 184.63 352.31 169.80 351.14 152.06
  C 350.20 137.91 340.85 127.00 329.10 120.43
  Q 327.93 118.37 323.11 118.59
  Q 322.60 118.62 322.21 118.29
  L 316.21 113.27
  A 0.21 0.21 0.0 0 0 315.87 113.50
  L 317.01 117.19
  A 0.62 0.62 0.0 0 1 315.94 117.78
  C 307.80 108.24 299.15 101.14 286.03 99.90
  Q 285.90 98.61 287.02 98.44
  Q 287.50 98.37 287.55 97.89
  C 287.84 95.35 286.65 93.18 287.71 90.73
  Q 288.55 88.80 290.66 84.89
  A 0.18 0.18 0.0 0 1 291.00 84.98
  Q 291.00 85.12 291.00 85.26
  Q 290.99 85.73 291.22 85.32
  L 293.82 80.72
  Z"
/>
<path fill="None" d="
  M 286.03 99.90
  C 299.15 101.14 307.80 108.24 315.94 117.78
  A 0.62 0.62 0.0 0 0 317.01 117.19
  L 315.87 113.50
  A 0.21 0.21 0.0 0 1 316.21 113.27
  L 322.21 118.29
  Q 322.60 118.62 323.11 118.59
  Q 327.93 118.37 329.10 120.43
  Q 337.55 134.34 342.32 148.84
  C 343.20 151.55 343.45 154.74 341.97 156.96
  C 336.73 164.85 326.64 173.05 318.40 176.68
  Q 308.24 181.15 296.16 178.59
  Q 288.91 177.91 285.31 178.36
  Q 273.43 179.83 261.55 184.24
  Q 259.34 185.06 261.65 184.62
  C 265.65 183.87 271.74 186.16 276.99 188.18
  C 286.12 191.70 293.84 197.82 300.99 204.28
  C 301.62 204.84 302.69 205.31 303.46 205.75
  A 0.74 0.74 0.0 0 1 303.83 206.47
  Q 301.70 227.67 301.67 248.97
  A 0.68 0.68 0.0 0 1 300.71 249.59
  C 270.07 235.86 237.92 236.98 207.44 251.07
  Q 205.95 228.75 204.25 207.25
  Q 204.17 206.14 205.07 206.11
  C 211.92 201.65 218.31 195.52 225.33 191.93
  Q 238.82 185.02 253.47 180.88
  Q 257.16 179.84 261.05 179.71
  Q 265.80 179.55 261.10 178.90
  Q 243.87 176.51 224.48 179.01
  C 214.76 180.26 206.82 184.29 198.05 188.17
  C 176.20 195.12 148.62 185.46 145.45 160.22
  C 142.89 139.90 161.27 122.68 178.53 115.77
  Q 180.97 114.79 190.29 112.24
  Q 190.67 112.13 190.52 112.49
  Q 186.04 123.49 183.86 135.17
  Q 183.00 139.80 184.59 135.37
  Q 190.43 119.02 204.86 106.57
  C 219.51 93.93 241.54 97.35 255.54 108.90
  Q 255.93 109.23 256.37 108.96
  C 266.00 103.05 274.76 99.35 286.03 99.90
  Z"
/>
<path fill="#aaf7f6" d="
  M 329.10 120.43
  C 340.85 127.00 350.20 137.91 351.14 152.06
  C 352.31 169.80 335.80 184.63 318.65 184.93
  Q 308.69 185.11 299.21 180.61
  Q 297.34 180.03 296.16 178.59
  Q 308.24 181.15 318.40 176.68
  C 326.64 173.05 336.73 164.85 341.97 156.96
  C 343.45 154.74 343.20 151.55 342.32 148.84
  Q 337.55 134.34 329.10 120.43
  Z"
/>
<path fill="#b6082e" d="
  M 205.07 206.11
  L 205.17 205.10
  Q 205.22 204.60 204.92 204.19
  Q 200.09 197.55 198.57 189.52
  Q 198.51 189.19 198.35 189.06
  Q 198.19 188.94 197.96 188.94
  Q 197.64 188.93 197.79 188.65
  L 198.05 188.17
  C 206.82 184.29 214.76 180.26 224.48 179.01
  Q 243.87 176.51 261.10 178.90
  Q 265.80 179.55 261.05 179.71
  Q 257.16 179.84 253.47 180.88
  Q 238.82 185.02 225.33 191.93
  C 218.31 195.52 211.92 201.65 205.07 206.11
  Z"
/>
<path fill="#990f24" d="
  M 296.16 178.59
  Q 297.34 180.03 299.21 180.61
  Q 298.15 183.68 299.12 186.99
  Q 299.24 187.42 299.69 187.45
  Q 299.91 187.47 300.11 187.62
  Q 300.24 187.71 300.30 187.91
  Q 300.90 190.21 301.22 192.56
  A 1.61 1.52 -69.9 0 0 301.56 193.35
  L 306.12 198.81
  Q 306.44 199.19 306.20 199.62
  L 305.82 200.33
  A 0.56 0.56 0.0 0 0 306.00 201.05
  L 311.59 204.84
  Q 312.12 205.19 312.37 205.78
  Q 312.81 206.81 313.95 206.49
  A 0.88 0.88 0.0 0 1 314.72 206.63
  L 318.55 209.48
  Q 319.11 222.79 318.99 226.75
  Q 318.51 243.17 317.39 256.68
  Q 317.08 260.39 317.40 263.32
  Q 317.63 263.92 316.56 264.81
  Q 314.61 266.45 308.96 272.62
  Q 307.69 273.43 307.14 274.40
  Q 298.21 274.44 289.33 272.95
  Q 288.65 272.73 288.46 271.50
  L 299.28 263.94
  Q 299.73 263.62 299.23 263.39
  Q 253.33 241.24 207.75 263.70
  Q 207.25 263.95 207.73 264.23
  L 219.29 270.98
  Q 219.43 272.49 217.82 273.43
  L 202.70 274.57
  L 191.69 263.79
  L 191.57 260.52
  L 207.44 251.07
  C 237.92 236.98 270.07 235.86 300.71 249.59
  A 0.68 0.68 0.0 0 0 301.67 248.97
  Q 301.70 227.67 303.83 206.47
  A 0.74 0.74 0.0 0 0 303.46 205.75
  C 302.69 205.31 301.62 204.84 300.99 204.28
  C 293.84 197.82 286.12 191.70 276.99 188.18
  C 271.74 186.16 265.65 183.87 261.65 184.62
  Q 259.34 185.06 261.55 184.24
  Q 273.43 179.83 285.31 178.36
  Q 288.91 177.91 296.16 178.59
  Z"
/>
<path fill="#f9d00c" d="
  M 191.69 263.79
  L 202.70 274.57
  L 212.27 285.88
  A 1.27 1.26 -52.3 0 1 212.44 287.26
  C 207.18 297.91 204.29 312.09 215.02 320.80
  Q 216.72 322.18 218.46 323.49
  Q 244.02 342.59 268.83 362.67
  Q 281.55 372.96 322.36 402.36
  Q 327.28 405.91 325.01 410.49
  C 322.27 416.02 313.01 415.14 308.40 413.11
  Q 300.73 409.73 295.58 405.92
  Q 294.67 405.25 294.01 405.24
  A 0.88 0.87 -27.0 0 1 293.57 405.10
  L 268.23 388.80
  C 253.33 377.85 241.33 368.18 230.72 353.31
  L 227.14 346.56
  Q 229.16 346.32 230.29 347.72
  C 243.34 363.91 260.33 375.73 278.52 385.46
  C 285.17 389.01 292.26 390.99 299.52 393.01
  A 0.19 0.18 -19.5 0 0 299.68 392.68
  C 274.59 375.33 249.72 356.39 227.79 335.12
  Q 221.22 328.73 213.61 323.40
  L 206.51 317.63
  C 201.03 309.63 202.43 300.28 204.69 291.50
  A 0.24 0.24 0.0 0 0 204.30 291.26
  C 199.24 295.79 186.93 301.74 180.46 297.57
  Q 178.44 296.26 176.82 294.43
  C 165.65 281.82 155.62 268.09 144.98 254.72
  A 0.26 0.26 0.0 0 1 145.34 254.35
  C 158.76 264.06 170.37 275.75 182.48 287.27
  Q 183.41 288.15 186.28 289.85
  Q 186.40 290.01 186.82 290.02
  Q 187.39 290.04 187.43 289.47
  Q 187.55 287.80 188.96 286.79
  A 0.89 0.88 -24.1 0 0 189.31 285.89
  Q 188.96 284.36 190.24 283.98
  Q 190.78 283.83 191.23 284.15
  Q 192.03 284.71 192.91 284.75
  L 194.00 284.98
  Q 194.75 285.13 194.44 284.44
  C 192.79 280.81 185.66 274.99 182.66 271.74
  Q 182.31 271.36 182.83 271.33
  Q 183.09 271.31 183.26 271.49
  Q 189.55 277.60 195.96 283.41
  A 0.89 0.89 0.0 0 0 197.39 282.45
  C 195.17 276.38 188.85 271.26 184.36 266.72
  C 175.58 257.85 165.19 250.19 155.71 242.04
  Q 155.10 241.52 155.02 240.97
  A 0.56 0.56 0.0 0 1 155.74 240.35
  C 169.28 244.69 180.83 255.68 191.69 263.79
  Z"
/>
<path fill="#f9d00c" d="
  M 313.97 283.08
  Q 315.28 283.32 316.24 284.19
  Q 316.63 284.54 316.28 284.94
  C 311.57 290.34 316.18 298.87 321.91 291.46
  Q 322.75 290.37 322.27 288.89
  Q 325.08 288.24 327.20 285.69
  Q 340.93 269.25 357.61 255.65
  A 0.38 0.38 0.0 0 1 358.15 256.19
  L 325.02 296.83
  A 1.13 1.13 0.0 0 0 326.16 298.65
  C 329.77 297.81 339.61 286.53 342.88 283.17
  Q 337.00 294.43 327.25 302.74
  C 319.25 309.56 303.77 312.47 295.72 321.21
  Q 292.11 325.14 288.15 328.98
  Q 293.51 320.35 298.94 311.86
  C 304.12 303.78 297.58 292.30 302.97 284.72
  Q 306.46 279.80 309.10 274.34
  Q 309.57 273.38 308.96 272.62
  Q 314.61 266.45 316.56 264.81
  Q 317.63 263.92 317.40 263.32
  Q 318.21 263.25 318.64 262.88
  Q 332.84 250.81 348.24 240.82
  A 0.52 0.52 0.0 0 1 348.93 241.57
  C 346.81 244.26 344.70 246.77 342.07 249.20
  Q 323.95 265.94 311.44 281.94
  Q 310.72 282.86 311.94 283.58
  Q 312.27 283.78 312.60 283.57
  Q 313.20 283.20 313.97 283.08
  Z"
/>
<path fill="#f2a110" d="
  M 192.91 284.75
  Q 192.03 284.71 191.23 284.15
  Q 190.78 283.83 190.24 283.98
  Q 188.96 284.36 189.31 285.89
  A 0.89 0.88 -24.1 0 1 188.96 286.79
  Q 187.55 287.80 187.43 289.47
  Q 187.39 290.04 186.82 290.02
  Q 186.40 290.01 186.28 289.85
  Q 188.22 289.26 186.63 287.97
  C 184.14 285.93 182.06 282.72 180.09 280.19
  Q 167.13 263.57 153.51 247.38
  A 0.18 0.18 0.0 0 1 153.73 247.11
  Q 162.76 252.07 169.84 259.66
  Q 181.49 272.14 192.91 284.75
  Z"
/>
<path fill="#e07819" d="
  M 322.27 288.89
  Q 322.75 290.37 321.91 291.46
  C 316.18 298.87 311.57 290.34 316.28 284.94
  Q 316.63 284.54 316.24 284.19
  Q 315.28 283.32 313.97 283.08
  Q 317.28 281.39 319.72 278.71
  C 329.60 267.84 339.56 256.31 351.12 247.27
  A 0.43 0.43 0.0 0 1 351.73 247.86
  C 349.74 250.56 347.98 253.75 345.90 256.22
  Q 332.88 271.62 320.70 287.71
  Q 320.32 288.21 320.92 288.42
  L 322.27 288.89
  Z"
/>
<path fill="None" d="
  M 288.46 271.50
  C 288.07 271.73 287.30 271.88 286.84 271.74
  Q 254.16 261.85 221.62 272.07
  Q 221.17 272.21 220.77 271.95
  L 219.29 270.98
  L 207.73 264.23
  Q 207.25 263.95 207.75 263.70
  Q 253.33 241.24 299.23 263.39
  Q 299.73 263.62 299.28 263.94
  L 288.46 271.50
  Z"
/>
<path fill="#e07819" d="
  M 325.85 319.11
  L 310.14 325.74
  Q 307.90 324.33 306.30 325.55
  C 297.59 332.17 291.87 348.07 286.35 361.81
  Q 286.19 362.22 286.55 362.48
  Q 307.85 377.79 328.52 393.98
  C 331.15 396.03 334.95 398.90 336.41 402.02
  C 342.52 415.06 325.64 429.85 313.03 426.66
  Q 305.75 424.81 299.15 421.28
  Q 273.77 407.69 251.57 389.61
  A 0.77 0.76 43.4 0 0 250.58 389.63
  Q 230.59 407.27 207.19 420.44
  Q 198.82 425.15 192.50 426.48
  C 176.28 429.88 157.43 407.73 174.19 394.92
  Q 202.10 373.61 220.84 360.25
  Q 221.25 359.96 220.99 359.53
  Q 214.72 349.04 209.16 338.34
  Q 204.10 328.58 195.38 323.96
  Q 187.40 323.93 180.62 319.83
  C 179.96 319.43 179.31 319.38 178.63 319.59
  Q 178.41 318.93 177.86 318.53
  L 183.02 318.94
  Q 183.22 318.96 183.14 318.77
  Q 183.08 318.63 183.14 318.49
  C 183.56 317.54 185.98 316.90 186.80 314.64
  Q 187.02 314.01 186.36 314.00
  Q 186.21 314.00 186.05 314.00
  Q 185.38 314.01 185.74 313.45
  Q 187.01 311.46 187.14 309.44
  C 193.84 311.92 200.25 313.68 206.51 317.63
  L 213.61 323.40
  L 227.14 346.56
  L 230.72 353.31
  C 236.90 367.52 255.44 381.52 268.23 388.80
  L 293.57 405.10
  A 0.88 0.87 -27.0 0 0 294.01 405.24
  Q 294.67 405.25 295.58 405.92
  Q 300.73 409.73 308.40 413.11
  C 313.01 415.14 322.27 416.02 325.01 410.49
  Q 327.28 405.91 322.36 402.36
  Q 281.55 372.96 268.83 362.67
  Q 244.02 342.59 218.46 323.49
  Q 216.72 322.18 215.02 320.80
  C 204.29 312.09 207.18 297.91 212.44 287.26
  A 1.27 1.26 -52.3 0 0 212.27 285.88
  L 202.70 274.57
  L 217.82 273.43
  Q 218.29 278.08 220.36 282.26
  C 221.91 285.40 218.73 296.08 217.98 299.82
  Q 217.88 300.31 217.48 300.62
  Q 212.99 304.06 216.69 309.33
  Q 221.71 316.46 226.71 318.00
  Q 240.60 325.92 252.47 335.62
  A 1.13 1.12 42.0 0 0 253.99 335.55
  Q 261.41 328.09 270.48 322.26
  C 273.21 320.50 277.01 318.98 280.20 317.06
  Q 280.99 316.59 280.08 316.56
  Q 275.23 316.36 276.80 311.36
  L 283.65 314.34
  Q 284.09 314.53 284.56 314.49
  Q 285.55 314.42 286.02 314.71
  Q 288.36 316.17 290.98 317.07
  Q 291.42 317.22 291.50 316.75
  L 291.58 316.27
  Q 292.14 316.62 292.49 317.21
  Q 292.76 317.66 292.45 318.09
  C 291.08 319.97 289.77 321.89 287.78 323.22
  Q 274.46 332.12 261.52 341.69
  Q 261.09 342.01 261.48 342.38
  Q 267.97 348.69 275.46 353.76
  Q 275.92 354.07 276.16 353.57
  L 288.15 328.98
  Q 292.11 325.14 295.72 321.21
  C 303.77 312.47 319.25 309.56 327.25 302.74
  Q 337.00 294.43 342.88 283.17
  Q 354.59 268.84 368.36 255.37
  Q 369.70 254.06 371.05 253.09
  A 0.35 0.35 0.0 0 1 371.58 253.52
  Q 369.32 258.55 366.64 263.36
  Q 354.13 285.72 349.69 293.19
  C 342.77 304.83 336.43 311.66 325.85 319.11
  Z
  M 179.62 409.28
  C 185.48 418.23 195.84 413.86 202.94 409.44
  C 215.20 401.80 229.85 392.73 241.19 381.02
  Q 241.56 380.63 241.13 380.31
  L 238.51 378.35
  L 228.93 368.60
  Q 228.57 368.23 228.14 368.53
  C 209.14 382.06 194.74 391.77 181.94 402.59
  C 179.52 404.63 179.51 406.29 179.62 409.28
  Z"
/>
<path fill="#f2a110" d="
  M 187.14 309.44
  Q 187.01 311.46 185.74 313.45
  Q 185.38 314.01 186.05 314.00
  Q 186.21 314.00 186.36 314.00
  Q 187.02 314.01 186.80 314.64
  C 185.98 316.90 183.56 317.54 183.14 318.49
  Q 183.08 318.63 183.14 318.77
  Q 183.22 318.96 183.02 318.94
  L 177.86 318.53
  C 167.35 311.91 160.01 301.79 153.81 291.69
  Q 142.54 273.31 132.37 254.11
  A 0.36 0.35 4.9 0 1 132.90 253.67
  Q 133.79 254.34 134.72 255.28
  Q 155.03 275.84 173.02 298.47
  Q 177.70 304.35 187.14 309.44
  Z"
/>
<path fill="#da0e3c" d="
  M 288.46 271.50
  Q 288.65 272.73 289.33 272.95
  L 288.80 285.25
  C 269.21 274.93 247.14 276.28 226.86 282.51
  Q 226.00 282.78 225.94 283.68
  Q 225.57 288.91 227.23 293.95
  L 227.26 299.42
  Q 227.26 299.92 227.73 299.73
  Q 257.44 287.77 287.24 300.23
  Q 287.33 300.66 288.49 300.48
  L 293.07 302.04
  A 1.04 1.04 0.0 0 1 293.68 302.58
  L 296.87 309.23
  L 291.58 316.27
  L 291.50 316.75
  Q 291.42 317.22 290.98 317.07
  Q 288.36 316.17 286.02 314.71
  Q 285.55 314.42 284.56 314.49
  Q 284.09 314.53 283.65 314.34
  L 276.80 311.36
  C 261.30 307.77 239.52 307.80 226.71 318.00
  Q 221.71 316.46 216.69 309.33
  Q 212.99 304.06 217.48 300.62
  Q 217.88 300.31 217.98 299.82
  C 218.73 296.08 221.91 285.40 220.36 282.26
  Q 218.29 278.08 217.82 273.43
  Q 219.43 272.49 219.29 270.98
  L 220.77 271.95
  Q 221.17 272.21 221.62 272.07
  Q 254.16 261.85 286.84 271.74
  C 287.30 271.88 288.07 271.73 288.46 271.50
  Z"
/>
<path fill="None" d="
  M 308.96 272.62
  Q 309.57 273.38 309.10 274.34
  Q 306.46 279.80 302.97 284.72
  C 297.58 292.30 304.12 303.78 298.94 311.86
  Q 293.51 320.35 288.15 328.98
  L 276.16 353.57
  Q 275.92 354.07 275.46 353.76
  Q 267.97 348.69 261.48 342.38
  Q 261.09 342.01 261.52 341.69
  Q 274.46 332.12 287.78 323.22
  C 289.77 321.89 291.08 319.97 292.45 318.09
  Q 292.76 317.66 292.49 317.21
  Q 292.14 316.62 291.58 316.27
  L 296.87 309.23
  Q 298.93 296.86 297.80 284.17
  Q 297.75 283.57 298.32 283.35
  L 300.29 282.60
  Q 300.79 282.41 301.12 281.99
  L 307.14 274.40
  Q 307.69 273.43 308.96 272.62
  Z"
/>
<path fill="#e07819" d="
  M 289.33 272.95
  Q 298.21 274.44 307.14 274.40
  L 301.12 281.99
  Q 300.79 282.41 300.29 282.60
  L 298.32 283.35
  Q 297.75 283.57 297.80 284.17
  Q 298.93 296.86 296.87 309.23
  L 293.68 302.58
  A 1.04 1.04 0.0 0 0 293.07 302.04
  L 288.49 300.48
  Q 288.49 300.30 288.35 300.26
  Q 288.21 300.22 288.22 300.08
  L 288.80 285.25
  L 289.33 272.95
  Z"
/>
<path fill="#b6082e" d="
  M 288.80 285.25
  L 288.22 300.08
  Q 288.21 300.22 288.35 300.26
  Q 288.49 300.30 288.49 300.48
  Q 287.33 300.66 287.24 300.23
  L 287.47 295.56
  Q 287.50 295.03 286.97 294.90
  C 270.97 291.16 257.20 288.10 240.99 290.62
  C 236.67 291.29 231.87 292.78 227.23 293.95
  Q 225.57 288.91 225.94 283.68
  Q 226.00 282.78 226.86 282.51
  C 247.14 276.28 269.21 274.93 288.80 285.25
  Z"
/>
<path fill="None" d="
  M 287.24 300.23
  Q 257.44 287.77 227.73 299.73
  Q 227.26 299.92 227.26 299.42
  L 227.23 293.95
  C 231.87 292.78 236.67 291.29 240.99 290.62
  C 257.20 288.10 270.97 291.16 286.97 294.90
  Q 287.50 295.03 287.47 295.56
  L 287.24 300.23
  Z"
/>
<path fill="None" d="
  M 276.80 311.36
  Q 275.23 316.36 280.08 316.56
  Q 280.99 316.59 280.20 317.06
  C 277.01 318.98 273.21 320.50 270.48 322.26
  Q 261.41 328.09 253.99 335.55
  A 1.13 1.12 42.0 0 1 252.47 335.62
  Q 240.60 325.92 226.71 318.00
  C 239.52 307.80 261.30 307.77 276.80 311.36
  Z"
/>
<path fill="#990f24" d="
  M 325.85 319.11
  C 339.94 331.83 348.11 343.62 347.93 363.51
  Q 347.85 373.13 343.95 384.55
  C 340.99 393.24 328.82 388.15 330.56 382.13
  Q 333.83 370.81 332.29 359.01
  C 330.27 343.66 322.22 334.34 310.14 325.74
  L 325.85 319.11
  Z"
/>
<path fill="#da0e3c" d="
  M 178.63 319.59
  C 179.31 319.38 179.96 319.43 180.62 319.83
  Q 187.40 323.93 195.38 323.96
  C 177.86 340.96 168.31 354.24 173.40 379.77
  C 174.34 384.47 174.11 388.01 168.97 389.23
  Q 161.86 390.93 159.78 384.01
  C 152.13 358.45 158.09 336.64 178.63 319.59
  Z"
/>
<path fill="None" d="
  M 227.14 346.56
  L 213.61 323.40
  Q 221.22 328.73 227.79 335.12
  C 249.72 356.39 274.59 375.33 299.68 392.68
  A 0.19 0.18 -19.5 0 1 299.52 393.01
  C 292.26 390.99 285.17 389.01 278.52 385.46
  C 260.33 375.73 243.34 363.91 230.29 347.72
  Q 229.16 346.32 227.14 346.56
  Z"
/>
<path fill="#990f24" d="
  M 230.72 353.31
  C 241.33 368.18 253.33 377.85 268.23 388.80
  C 255.44 381.52 236.90 367.52 230.72 353.31
  Z"
/>
<path fill="None" d="
  M 238.51 378.35
  Q 215.34 391.76 191.67 403.91
  Q 186.08 406.78 179.62 409.28
  C 179.51 406.29 179.52 404.63 181.94 402.59
  C 194.74 391.77 209.14 382.06 228.14 368.53
  Q 228.57 368.23 228.93 368.60
  L 238.51 378.35
  Z"
/>
<path fill="#f9d00c" d="
  M 238.51 378.35
  L 241.13 380.31
  Q 241.56 380.63 241.19 381.02
  C 229.85 392.73 215.20 401.80 202.94 409.44
  C 195.84 413.86 185.48 418.23 179.62 409.28
  Q 186.08 406.78 191.67 403.91
  Q 215.34 391.76 238.51 378.35
  Z"
/>
<path fill="#000000" d="
  M 252.39 432.52
  C 238.25 427.42 238.47 457.61 254.33 448.08
  Q 254.88 447.75 254.95 448.38
  Q 255.01 448.99 254.42 449.42
  C 247.52 454.31 239.10 450.20 238.86 441.69
  C 238.59 432.19 246.89 428.17 254.92 431.53
  A 0.76 0.76 0.0 0 1 255.37 432.41
  L 254.43 436.29
  A 0.63 0.63 0.0 0 1 253.19 436.21
  L 252.88 433.16
  Q 252.84 432.68 252.39 432.52
  Z"
/>
<path fill="#000000" d="
  M 156.35 432.26
  L 154.87 431.79
  A 0.49 0.49 0.0 0 1 155.01 430.83
  C 162.01 430.69 172.58 429.75 173.28 439.56
  C 174.19 452.25 163.26 450.81 154.88 451.14
  A 0.43 0.43 0.0 0 1 154.72 450.31
  L 156.39 449.70
  A 0.93 0.92 80.1 0 0 157.00 448.83
  L 157.00 433.14
  A 0.92 0.92 0.0 0 0 156.35 432.26
  Z
  M 159.75 432.90
  L 159.75 449.12
  A 0.66 0.66 0.0 0 0 160.41 449.78
  L 162.88 449.78
  A 7.51 7.31 -90.0 0 0 170.19 442.27
  L 170.19 439.75
  A 7.51 7.31 90.0 0 0 162.88 432.24
  L 160.41 432.24
  A 0.66 0.66 0.0 0 0 159.75 432.90
  Z"
/>
<path fill="#000000" d="
  M 185.52 432.69
  L 185.33 448.97
  Q 185.32 449.47 185.80 449.64
  L 187.40 450.21
  A 0.38 0.38 0.0 0 1 187.29 450.95
  L 180.27 451.13
  A 0.44 0.44 0.0 0 1 180.11 450.27
  L 181.96 449.61
  A 0.83 0.82 -10.3 0 0 182.50 448.84
  L 182.50 432.94
  Q 182.50 432.37 181.94 432.24
  L 180.57 431.92
  A 0.47 0.47 0.0 0 1 180.23 431.33
  Q 180.27 431.19 180.32 431.06
  Q 180.38 430.87 180.59 430.86
  L 187.29 430.84
  A 0.49 0.49 0.0 0 1 187.42 431.81
  L 185.87 432.24
  Q 185.53 432.33 185.52 432.69
  Z"
/>
<path fill="#000000" d="
  M 205.22 441.81
  L 208.76 449.18
  A 1.11 1.10 -4.3 0 0 209.44 449.76
  L 211.17 450.28
  A 0.34 0.34 0.0 0 1 211.22 450.92
  C 206.29 453.15 204.28 446.35 202.95 442.59
  A 0.81 0.79 80.2 0 0 202.22 442.06
  L 199.76 441.98
  Q 199.23 441.97 199.23 442.49
  L 199.19 449.05
  Q 199.18 449.51 199.62 449.67
  L 201.16 450.21
  A 0.39 0.38 -35.5 0 1 201.03 450.96
  L 194.22 451.09
  A 0.52 0.52 0.0 0 1 194.10 450.07
  L 195.70 449.72
  Q 196.25 449.61 196.25 449.04
  L 196.25 432.96
  Q 196.25 432.39 195.70 432.25
  L 194.22 431.87
  Q 194.00 431.81 194.00 431.58
  Q 194.00 431.41 194.00 431.25
  Q 194.01 430.82 194.44 430.84
  Q 198.45 430.98 202.48 430.74
  C 208.35 430.39 211.71 438.32 205.48 441.10
  Q 204.99 441.32 205.22 441.81
  Z
  M 199.29 432.67
  L 199.17 440.21
  A 0.50 0.50 0.0 0 0 199.66 440.71
  L 201.48 440.74
  A 4.48 4.01 0.9 0 0 206.03 436.80
  L 206.03 436.28
  A 4.48 4.01 0.9 0 0 201.62 432.20
  L 199.80 432.17
  A 0.50 0.50 0.0 0 0 199.29 432.67
  Z"
/>
<path fill="#000000" d="
  M 230.42 449.16
  L 230.71 446.25
  A 0.58 0.57 -45.8 0 1 231.85 446.23
  L 232.32 449.88
  Q 232.46 450.97 231.36 450.98
  L 217.04 451.05
  Q 216.70 451.05 216.74 450.71
  L 216.79 450.39
  Q 216.83 450.05 217.18 450.03
  C 218.26 449.97 218.98 449.47 218.98 448.30
  Q 219.02 440.60 218.99 432.90
  Q 218.99 432.38 218.49 432.26
  L 217.04 431.89
  A 0.40 0.39 -80.1 0 1 216.74 431.46
  L 216.78 431.20
  Q 216.83 430.85 217.18 430.86
  L 230.78 431.06
  Q 231.25 431.07 231.25 431.53
  L 231.25 435.28
  A 0.73 0.73 0.0 0 1 229.80 435.39
  L 229.43 432.91
  Q 229.33 432.25 228.66 432.25
  L 222.38 432.25
  A 0.63 0.63 0.0 0 0 221.75 432.88
  L 221.75 439.34
  A 0.65 0.65 0.0 0 0 222.40 439.99
  L 226.63 440.00
  A 0.77 0.77 0.0 0 0 227.40 439.37
  L 227.64 438.05
  A 0.59 0.58 50.3 0 1 228.80 438.16
  L 228.81 443.48
  A 0.58 0.58 0.0 0 1 227.71 443.73
  Q 227.36 442.98 227.53 442.18
  A 0.57 0.57 0.0 0 0 226.97 441.50
  L 222.50 441.50
  Q 221.75 441.50 221.75 442.25
  L 221.75 449.25
  A 0.50 0.50 0.0 0 0 222.25 449.75
  L 229.77 449.75
  A 0.66 0.65 -87.1 0 0 230.42 449.16
  Z"
/>
<path fill="#000000" d="
  M 285.32 432.35
  L 283.55 431.65
  A 0.40 0.40 0.0 0 1 283.67 430.87
  C 291.99 430.34 303.52 430.33 301.90 442.48
  C 300.57 452.46 291.12 451.05 283.53 450.98
  A 0.43 0.43 0.0 0 1 283.42 450.14
  L 285.22 449.68
  Q 285.77 449.54 285.77 448.96
  L 285.70 432.91
  Q 285.70 432.50 285.32 432.35
  Z
  M 288.67 432.54
  L 288.67 449.48
  A 0.31 0.31 0.0 0 0 288.98 449.79
  L 291.46 449.79
  A 7.47 7.47 0.0 0 0 298.93 442.32
  L 298.93 439.70
  A 7.47 7.47 0.0 0 0 291.46 432.23
  L 288.98 432.23
  A 0.31 0.31 0.0 0 0 288.67 432.54
  Z"
/>
<path fill="#000000" d="
  M 310.45 432.24
  L 309.10 431.92
  A 0.54 0.54 0.0 0 1 309.23 430.85
  L 315.77 430.91
  A 0.41 0.40 -56.0 0 1 315.92 431.69
  L 314.32 432.35
  Q 313.75 432.58 313.75 433.20
  L 313.75 448.91
  A 0.71 0.70 10.1 0 0 314.22 449.57
  L 315.91 450.18
  A 0.40 0.39 54.1 0 1 315.79 450.95
  L 308.95 451.12
  A 0.43 0.43 0.0 0 1 308.79 450.28
  L 310.38 449.70
  A 0.93 0.92 -9.9 0 0 311.00 448.83
  L 311.00 432.94
  A 0.72 0.71 -83.4 0 0 310.45 432.24
  Z"
/>
<path fill="#000000" d="
  M 326.70 435.20
  A 0.23 0.23 0.0 0 0 326.25 435.25
  L 326.25 448.97
  Q 326.25 449.50 326.75 449.69
  L 328.16 450.22
  A 0.39 0.39 0.0 0 1 328.03 450.98
  L 322.72 451.06
  A 0.44 0.44 0.0 0 1 322.53 450.22
  L 323.88 449.62
  Q 324.52 449.34 324.51 448.64
  L 324.49 432.99
  Q 324.49 432.44 323.99 432.24
  L 322.48 431.64
  A 0.49 0.49 0.0 0 1 322.71 430.69
  L 326.41 431.03
  Q 326.97 431.09 327.31 431.53
  L 337.75 445.21
  Q 338.25 445.87 338.25 445.04
  L 338.25 433.18
  Q 338.25 432.55 337.66 432.32
  L 336.09 431.71
  A 0.46 0.45 -34.2 0 1 336.26 430.83
  L 341.98 430.87
  A 0.40 0.39 -54.0 0 1 342.10 431.64
  L 340.25 432.26
  Q 339.75 432.43 339.75 432.96
  L 339.75 451.27
  A 0.40 0.40 0.0 0 1 339.04 451.52
  Q 333.01 444.13 327.23 436.29
  Q 326.81 435.73 326.70 435.20
  Z"
/>
<path fill="#000000" d="
  M 353.44 432.66
  L 353.48 439.50
  Q 353.48 440.02 354.00 440.02
  L 358.25 439.96
  Q 358.89 439.95 358.96 439.31
  L 359.08 438.06
  Q 359.15 437.45 359.76 437.45
  Q 360.12 437.46 360.29 437.79
  C 360.55 438.29 360.27 442.37 360.44 443.51
  A 0.60 0.60 0.0 0 1 359.27 443.75
  L 358.81 442.06
  Q 358.65 441.50 358.07 441.50
  L 354.08 441.50
  Q 353.40 441.50 353.38 442.18
  L 353.21 449.09
  A 0.64 0.64 0.0 0 0 353.85 449.75
  L 361.17 449.75
  A 0.76 0.75 -87.0 0 0 361.92 449.07
  L 362.20 446.42
  Q 362.25 445.94 362.73 445.88
  Q 363.51 445.77 363.49 446.51
  Q 363.43 448.47 363.76 450.10
  A 0.72 0.72 0.0 0 1 363.05 450.97
  L 348.39 451.06
  A 0.40 0.40 0.0 0 1 348.25 450.28
  L 350.02 449.62
  Q 350.50 449.44 350.50 448.93
  L 350.50 432.94
  Q 350.50 432.37 349.94 432.24
  L 348.50 431.90
  A 0.28 0.28 0.0 0 1 348.28 431.63
  L 348.28 431.19
  Q 348.28 430.86 348.62 430.86
  L 362.16 431.06
  Q 362.76 431.07 362.76 431.67
  L 362.74 435.37
  A 0.72 0.71 -48.9 0 1 361.32 435.47
  L 360.96 432.82
  Q 360.89 432.25 360.31 432.25
  L 353.84 432.25
  Q 353.43 432.25 353.44 432.66
  Z"
/>
<path fill="#000000" d="
  M 267.78 448.91
  L 267.68 432.96
  Q 267.67 432.25 266.96 432.25
  L 263.55 432.25
  Q 263.09 432.25 263.01 432.70
  L 262.32 436.23
  A 0.55 0.55 0.0 0 1 261.23 436.18
  L 260.82 431.48
  Q 260.77 431.00 261.26 431.00
  L 276.96 431.00
  Q 277.60 431.00 277.58 431.64
  L 277.40 436.05
  A 0.59 0.59 0.0 0 1 276.23 436.16
  L 275.42 432.66
  Q 275.32 432.25 274.90 432.25
  L 271.58 432.25
  Q 270.84 432.25 270.83 432.99
  L 270.53 448.91
  Q 270.51 449.50 271.08 449.65
  L 272.69 450.06
  A 0.53 0.53 0.0 0 1 272.55 451.10
  L 265.71 450.96
  A 0.40 0.40 0.0 0 1 265.59 450.18
  L 267.26 449.63
  Q 267.78 449.46 267.78 448.91
  Z"
/>
<path fill="None" d="
  M 159.75 432.90
  A 0.66 0.66 0.0 0 1 160.41 432.24
  L 162.88 432.24
  A 7.51 7.31 90.0 0 1 170.19 439.75
  L 170.19 442.27
  A 7.51 7.31 -90.0 0 1 162.88 449.78
  L 160.41 449.78
  A 0.66 0.66 0.0 0 1 159.75 449.12
  L 159.75 432.90
  Z"
/>
<path fill="None" d="
  M 199.29 432.67
  A 0.50 0.50 0.0 0 1 199.80 432.17
  L 201.62 432.20
  A 4.48 4.01 0.9 0 1 206.03 436.28
  L 206.03 436.80
  A 4.48 4.01 0.9 0 1 201.48 440.74
  L 199.66 440.71
  A 0.50 0.50 0.0 0 1 199.17 440.21
  L 199.29 432.67
  Z"
/>
<path fill="None" d="
  M 288.67 432.54
  A 0.31 0.31 0.0 0 1 288.98 432.23
  L 291.46 432.23
  A 7.47 7.47 0.0 0 1 298.93 439.70
  L 298.93 442.32
  A 7.47 7.47 0.0 0 1 291.46 449.79
  L 288.98 449.79
  A 0.31 0.31 0.0 0 1 288.67 449.48
  L 288.67 432.54
  Z"
/>
</svg>
