<?xml version="1.0" encoding="UTF-8"?>
<!DOCTYPE svg PUBLIC "-//W3C//DTD SVG 1.1//EN" "http://www.w3.org/Graphics/SVG/1.1/DTD/svg11.dtd">
<svg xmlns="http://www.w3.org/2000/svg" version="1.1" width="317px" height="452px" style="shape-rendering:geometricPrecision; text-rendering:geometricPrecision; image-rendering:optimizeQuality; fill-rule:evenodd; clip-rule:evenodd" xmlns:xlink="http://www.w3.org/1999/xlink">
<g><path style="opacity:1" fill="#fefefd" d="M -0.5,-0.5 C 105.167,-0.5 210.833,-0.5 316.5,-0.5C 316.5,150.167 316.5,300.833 316.5,451.5C 210.833,451.5 105.167,451.5 -0.5,451.5C -0.5,339.5 -0.5,227.5 -0.5,115.5C 5.61236,144.118 22.9457,162.284 51.5,170C 59.1131,171.661 66.7798,172.827 74.5,173.5C 76.2987,193.487 77.9654,213.487 79.5,233.5C 79.5,234.833 79.5,236.167 79.5,237.5C 69.3405,230.189 59.0071,223.022 48.5,216C 45.1667,214.333 41.8333,212.667 38.5,211C 37.365,210.251 36.365,210.417 35.5,211.5C 51.8234,226.989 68.3234,242.322 85,257.5C 86.9504,261.895 85.4504,263.729 80.5,263C 67.1304,246.63 52.1304,231.963 35.5,219C 34.6683,218.312 34.0016,218.479 33.5,219.5C 46.6913,236.191 59.6913,253.024 72.5,270C 72.1667,270.167 71.8333,270.333 71.5,270.5C 56.0764,255.238 39.9097,240.905 23,227.5C 33.7016,246.902 47.5349,264.069 64.5,279C 69.0599,282.174 74.0599,283.174 79.5,282C 85.0088,280.073 90.3422,277.906 95.5,275.5C 92.6122,285.287 92.9456,294.954 96.5,304.5C 87.5,301.167 78.5,297.833 69.5,294.5C 49.0574,272.46 28.7241,250.294 8.5,228C 7.66828,227.312 7.00161,227.479 6.5,228.5C 17.3254,250.835 30.1587,271.835 45,291.5C 50.404,297.409 56.2374,302.742 62.5,307.5C 62.5,307.833 62.5,308.167 62.5,308.5C 37.0512,331.359 29.8845,359.025 41,391.5C 41.5,393.333 42.6667,394.5 44.5,395C 50.1567,396.718 54.6567,395.218 58,390.5C 57.1929,383.236 56.6929,375.903 56.5,368.5C 56.0158,355.119 59.8491,343.119 68,332.5C 73.3375,325.996 79.1708,319.996 85.5,314.5C 98.6476,326.774 108.314,341.441 114.5,358.5C 114.471,360.029 113.804,361.196 112.5,362C 94.216,375.283 76.216,388.949 58.5,403C 45.8365,416.059 47.1698,427.725 62.5,438C 71.6548,443.516 80.9881,443.849 90.5,439C 113.32,427.183 134.487,413.016 154,396.5C 164.728,404.45 175.561,412.284 186.5,420C 196.655,426.801 207.321,432.801 218.5,438C 238.67,447.058 253.17,441.558 262,421.5C 263.03,416.72 262.03,412.387 259,408.5C 240.785,393.95 222.285,379.783 203.5,366C 201.552,364.561 200.219,362.728 199.5,360.5C 203.829,342.822 212.496,327.822 225.5,315.5C 252.35,332.872 261.35,357.039 252.5,388C 254.952,393.727 259.285,396.06 265.5,395C 267.815,393.891 269.315,392.057 270,389.5C 281.34,357.187 273.84,330.187 247.5,308.5C 265.457,293.944 279.624,276.277 290,255.5C 294.636,246.395 299.136,237.228 303.5,228C 303.15,226.743 302.483,226.409 301.5,227C 284.599,245.063 267.932,263.229 251.5,281.5C 249.958,282.301 248.292,282.634 246.5,282.5C 246.954,279.86 248.121,277.527 250,275.5C 262.356,260.645 274.523,245.645 286.5,230.5C 285.998,229.479 285.332,229.312 284.5,230C 270.965,243.702 257.299,257.202 243.5,270.5C 242.402,269.399 242.235,268.066 243,266.5C 254.453,251.378 266.287,236.545 278.5,222C 276.833,221.333 275.167,221.333 273.5,222C 259.967,236.7 245.967,250.866 231.5,264.5C 230.387,263.054 230.22,261.387 231,259.5C 245.285,243.38 260.118,227.713 275.5,212.5C 274.277,211.386 272.944,211.219 271.5,212C 260.29,220.717 248.956,229.217 237.5,237.5C 237.425,215.474 238.091,193.474 239.5,171.5C 280.574,167.382 302.908,144.715 306.5,103.5C 305.495,83.3088 297.495,66.4755 282.5,53C 271.669,45.7503 260.669,38.7503 249.5,32C 237.821,21.1595 224.155,13.9928 208.5,10.5C 201.202,9.44094 193.869,9.27428 186.5,10C 177.047,11.4881 167.88,13.9881 159,17.5C 143.223,10.411 126.723,7.57764 109.5,9C 93.9242,12.4554 79.9242,19.1221 67.5,29C 44.092,35.275 25.2587,48.1083 11,67.5C 5.87791,76.0576 2.04458,85.0576 -0.5,94.5C -0.5,62.8333 -0.5,31.1667 -0.5,-0.5 Z"/></g>
<g><path style="opacity:1" fill="#d6133b" d="M 208.5,10.5 C 201.99,17.6839 196.657,25.6839 192.5,34.5C 186.326,34.7094 180.326,35.8761 174.5,38C 170.336,40.8319 165.836,42.9986 161,44.5C 151.707,39.2911 141.874,35.4578 131.5,33C 111.384,31.4748 95.5507,38.9748 84,55.5C 79.9354,61.3886 76.102,67.3886 72.5,73.5C 72.1667,72.6667 71.8333,71.8333 71.5,71C 72.8521,66.4598 74.3521,61.9598 76,57.5C 76.8141,55.0982 76.6474,52.7649 75.5,50.5C 51.7045,55.9649 34.5379,69.6316 24,91.5C 17.7751,121.947 29.9418,140.114 60.5,146C 72.6025,147.516 84.2692,146.016 95.5,141.5C 96.0513,157.325 96.7179,172.991 97.5,188.5C 97.4616,198.886 98.1283,209.219 99.5,219.5C 99.762,220.978 99.4287,222.311 98.5,223.5C 92.2709,227.114 85.9376,230.447 79.5,233.5C 77.9654,213.487 76.2987,193.487 74.5,173.5C 66.7798,172.827 59.1131,171.661 51.5,170C 22.9457,162.284 5.61236,144.118 -0.5,115.5C -0.5,108.5 -0.5,101.5 -0.5,94.5C 2.04458,85.0576 5.87791,76.0576 11,67.5C 25.2587,48.1083 44.092,35.275 67.5,29C 79.9242,19.1221 93.9242,12.4554 109.5,9C 126.723,7.57764 143.223,10.411 159,17.5C 167.88,13.9881 177.047,11.4881 186.5,10C 193.869,9.27428 201.202,9.44094 208.5,10.5 Z"/></g>
<g><path style="opacity:1" fill="#b40f2f" d="M 208.5,10.5 C 224.155,13.9928 237.821,21.1595 249.5,32C 260.669,38.7503 271.669,45.7503 282.5,53C 297.495,66.4755 305.495,83.3088 306.5,103.5C 302.908,144.715 280.574,167.382 239.5,171.5C 238.091,193.474 237.425,215.474 237.5,237.5C 233.845,242.486 229.845,247.153 225.5,251.5C 224.391,251.557 223.391,251.89 222.5,252.5C 216.013,251.485 209.346,250.818 202.5,250.5C 201.167,249.833 199.833,249.167 198.5,248.5C 204.509,246.655 209.843,243.488 214.5,239C 189.213,226.435 162.546,222.435 134.5,227C 123.706,228.932 113.372,232.265 103.5,237C 102.177,237.816 101.511,238.983 101.5,240.5C 100.25,240.577 99.4169,241.244 99,242.5C 98.5026,245.146 98.3359,247.813 98.5,250.5C 96.901,250.232 95.5676,250.566 94.5,251.5C 88.8714,247.539 83.8714,242.873 79.5,237.5C 79.5,236.167 79.5,234.833 79.5,233.5C 85.9376,230.447 92.2709,227.114 98.5,223.5C 99.4287,222.311 99.762,220.978 99.5,219.5C 100.158,220.398 100.824,221.398 101.5,222.5C 126.765,211.512 153.098,207.679 180.5,211C 192.743,213.422 204.743,216.422 216.5,220C 217.786,202.561 218.619,185.061 219,167.5C 205.807,153.149 189.64,143.816 170.5,139.5C 183.871,132.994 197.871,131.161 212.5,134C 230.823,143.333 248.49,142.333 265.5,131C 276.292,121.568 280.458,109.735 278,95.5C 274.957,81.9064 267.79,71.0731 256.5,63C 248.603,58.2636 240.27,54.9302 231.5,53C 221.568,40.3673 208.568,34.2007 192.5,34.5C 196.657,25.6839 201.99,17.6839 208.5,10.5 Z"/></g>
<g><path style="opacity:1" fill="#fefefe" d="M 192.5,34.5 C 208.568,34.2007 221.568,40.3673 231.5,53C 240.27,54.9302 248.603,58.2636 256.5,63C 267.79,71.0731 274.957,81.9064 278,95.5C 280.458,109.735 276.292,121.568 265.5,131C 248.49,142.333 230.823,143.333 212.5,134C 197.871,131.161 183.871,132.994 170.5,139.5C 189.64,143.816 205.807,153.149 219,167.5C 218.619,185.061 217.786,202.561 216.5,220C 204.743,216.422 192.743,213.422 180.5,211C 153.098,207.679 126.765,211.512 101.5,222.5C 100.824,221.398 100.158,220.398 99.5,219.5C 98.1283,209.219 97.4616,198.886 97.5,188.5C 97.3337,181.159 97.5003,173.826 98,166.5C 116.69,151.07 137.857,140.237 161.5,134C 144.527,130.51 127.527,130.843 110.5,135C 105.177,136.667 100.177,138.834 95.5,141.5C 84.2692,146.016 72.6025,147.516 60.5,146C 29.9418,140.114 17.7751,121.947 24,91.5C 34.5379,69.6316 51.7045,55.9649 75.5,50.5C 76.6474,52.7649 76.8141,55.0982 76,57.5C 74.3521,61.9598 72.8521,66.4598 71.5,71C 71.8333,71.8333 72.1667,72.6667 72.5,73.5C 76.102,67.3886 79.9354,61.3886 84,55.5C 95.5507,38.9748 111.384,31.4748 131.5,33C 141.874,35.4578 151.707,39.2911 161,44.5C 165.836,42.9986 170.336,40.8319 174.5,38C 180.326,35.8761 186.326,34.7094 192.5,34.5 Z"/></g>
<g><path style="opacity:1" fill="#b61733" d="M 97.5,188.5 C 96.7179,172.991 96.0513,157.325 95.5,141.5C 100.177,138.834 105.177,136.667 110.5,135C 127.527,130.843 144.527,130.51 161.5,134C 137.857,140.237 116.69,151.07 98,166.5C 97.5003,173.826 97.3337,181.159 97.5,188.5 Z"/></g>
<g><path style="opacity:1" fill="#f4c92d" d="M 79.5,237.5 C 83.8714,242.873 88.8714,247.539 94.5,251.5C 95.1667,252.833 96.1667,253.833 97.5,254.5C 100.355,258.862 103.021,263.362 105.5,268C 96.4321,283.923 97.7654,298.757 109.5,312.5C 109.5,313.167 109.167,313.5 108.5,313.5C 104.5,310.5 100.5,307.5 96.5,304.5C 92.9456,294.954 92.6122,285.287 95.5,275.5C 90.3422,277.906 85.0088,280.073 79.5,282C 74.0599,283.174 69.0599,282.174 64.5,279C 47.5349,264.069 33.7016,246.902 23,227.5C 39.9097,240.905 56.0764,255.238 71.5,270.5C 71.8333,270.333 72.1667,270.167 72.5,270C 59.6913,253.024 46.6913,236.191 33.5,219.5C 34.0016,218.479 34.6683,218.312 35.5,219C 52.1304,231.963 67.1304,246.63 80.5,263C 85.4504,263.729 86.9504,261.895 85,257.5C 68.3234,242.322 51.8234,226.989 35.5,211.5C 36.365,210.417 37.365,210.251 38.5,211C 41.8333,212.667 45.1667,214.333 48.5,216C 59.0071,223.022 69.3405,230.189 79.5,237.5 Z"/></g>
<g><path style="opacity:1" fill="#f4c82c" d="M 231.5,264.5 C 231.707,269.297 233.374,273.463 236.5,277C 241.179,277.491 243.512,275.325 243.5,270.5C 257.299,257.202 270.965,243.702 284.5,230C 285.332,229.312 285.998,229.479 286.5,230.5C 274.523,245.645 262.356,260.645 250,275.5C 248.121,277.527 246.954,279.86 246.5,282.5C 248.292,282.634 249.958,282.301 251.5,281.5C 248.018,287.147 243.351,291.647 237.5,295C 228.71,299.397 219.71,303.23 210.5,306.5C 212.635,301.306 214.468,295.973 216,290.5C 216.397,283.477 216.397,276.477 216,269.5C 219.447,263.604 222.614,257.604 225.5,251.5C 229.845,247.153 233.845,242.486 237.5,237.5C 248.956,229.217 260.29,220.717 271.5,212C 272.944,211.219 274.277,211.386 275.5,212.5C 260.118,227.713 245.285,243.38 231,259.5C 230.22,261.387 230.387,263.054 231.5,264.5 Z"/></g>
<g><path style="opacity:1" fill="#e1791e" d="M 243.5,270.5 C 243.512,275.325 241.179,277.491 236.5,277C 233.374,273.463 231.707,269.297 231.5,264.5C 245.967,250.866 259.967,236.7 273.5,222C 275.167,221.333 276.833,221.333 278.5,222C 266.287,236.545 254.453,251.378 243,266.5C 242.235,268.066 242.402,269.399 243.5,270.5 Z"/></g>
<g><path style="opacity:1" fill="#fefbfc" d="M 198.5,248.5 C 171.681,241.873 144.848,241.873 118,248.5C 112.157,246.478 106.657,243.811 101.5,240.5C 101.511,238.983 102.177,237.816 103.5,237C 113.372,232.265 123.706,228.932 134.5,227C 162.546,222.435 189.213,226.435 214.5,239C 209.843,243.488 204.509,246.655 198.5,248.5 Z"/></g>
<g><path style="opacity:1" fill="#e0771a" d="M 247.5,308.5 C 240.184,311.157 232.851,313.49 225.5,315.5C 212.496,327.822 203.829,342.822 199.5,360.5C 200.219,362.728 201.552,364.561 203.5,366C 222.285,379.783 240.785,393.95 259,408.5C 262.03,412.387 263.03,416.72 262,421.5C 253.17,441.558 238.67,447.058 218.5,438C 207.321,432.801 196.655,426.801 186.5,420C 175.561,412.284 164.728,404.45 154,396.5C 134.487,413.016 113.32,427.183 90.5,439C 80.9881,443.849 71.6548,443.516 62.5,438C 47.1698,427.725 45.8365,416.059 58.5,403C 76.216,388.949 94.216,375.283 112.5,362C 113.804,361.196 114.471,360.029 114.5,358.5C 108.314,341.441 98.6476,326.774 85.5,314.5C 77.9007,313.912 70.7341,311.579 64,307.5C 63.6174,308.056 63.1174,308.389 62.5,308.5C 62.5,308.167 62.5,307.833 62.5,307.5C 67.6468,304.885 69.9801,300.551 69.5,294.5C 78.5,297.833 87.5,301.167 96.5,304.5C 100.5,307.5 104.5,310.5 108.5,313.5C 112.376,324.257 118.043,333.924 125.5,342.5C 125.34,344.199 125.506,345.866 126,347.5C 152.1,377.952 182.6,402.786 217.5,422C 225.739,426.065 234.406,427.399 243.5,426C 247.035,423.293 248.202,419.793 247,415.5C 205.642,385.146 165.142,353.646 125.5,321C 123.933,319.924 122.266,319.091 120.5,318.5C 118.962,318.453 117.962,319.12 117.5,320.5C 115.194,317.527 112.527,314.86 109.5,312.5C 97.7654,298.757 96.4321,283.923 105.5,268C 103.021,263.362 100.355,258.862 97.5,254.5C 102.227,251.133 107.061,250.8 112,253.5C 115.642,261.59 116.309,269.924 114,278.5C 111.595,282.04 109.762,285.874 108.5,290C 111.034,297.699 116.034,302.865 123.5,305.5C 134.164,313.318 144.997,320.985 156,328.5C 167.439,321.2 178.606,313.533 189.5,305.5C 191.773,305.043 193.106,303.71 193.5,301.5C 197.043,303.438 200.71,305.105 204.5,306.5C 192.714,317.619 180.048,327.619 166.5,336.5C 171.878,342.046 177.711,347.046 184,351.5C 185.261,351.241 186.261,350.574 187,349.5C 193.309,334.207 201.142,319.874 210.5,306.5C 219.71,303.23 228.71,299.397 237.5,295C 243.351,291.647 248.018,287.147 251.5,281.5C 267.932,263.229 284.599,245.063 301.5,227C 302.483,226.409 303.15,226.743 303.5,228C 299.136,237.228 294.636,246.395 290,255.5C 279.624,276.277 265.457,293.944 247.5,308.5 Z"/></g>
<g><path style="opacity:1" fill="#f4c92c" d="M 69.5,294.5 C 69.9801,300.551 67.6468,304.885 62.5,307.5C 56.2374,302.742 50.404,297.409 45,291.5C 30.1587,271.835 17.3254,250.835 6.5,228.5C 7.00161,227.479 7.66828,227.312 8.5,228C 28.7241,250.294 49.0574,272.46 69.5,294.5 Z"/></g>
<g><path style="opacity:1" fill="#d6143a" d="M 101.5,240.5 C 106.657,243.811 112.157,246.478 118,248.5C 144.848,241.873 171.681,241.873 198.5,248.5C 199.833,249.167 201.167,249.833 202.5,250.5C 201.725,254.814 201.059,259.147 200.5,263.5C 175.253,254.529 149.92,254.196 124.5,262.5C 122.067,267.018 122.401,271.352 125.5,275.5C 124.569,277.033 123.902,278.7 123.5,280.5C 123.434,282.266 124.268,283.266 126,283.5C 140.389,278.222 155.222,276.055 170.5,277C 180.216,279.075 189.883,281.242 199.5,283.5C 203.5,285.5 207.5,287.5 211.5,289.5C 209.344,295.319 207.01,300.985 204.5,306.5C 200.71,305.105 197.043,303.438 193.5,301.5C 191.95,300.28 190.284,300.28 188.5,301.5C 185.545,299.06 182.211,297.227 178.5,296C 170.5,295.333 162.5,295.333 154.5,296C 143.8,298.068 133.466,301.234 123.5,305.5C 116.034,302.865 111.034,297.699 108.5,290C 109.762,285.874 111.595,282.04 114,278.5C 116.309,269.924 115.642,261.59 112,253.5C 107.061,250.8 102.227,251.133 97.5,254.5C 96.1667,253.833 95.1667,252.833 94.5,251.5C 95.5676,250.566 96.901,250.232 98.5,250.5C 98.3359,247.813 98.5026,245.146 99,242.5C 99.4169,241.244 100.25,240.577 101.5,240.5 Z"/></g>
<g><path style="opacity:1" fill="#df7419" d="M 202.5,250.5 C 209.346,250.818 216.013,251.485 222.5,252.5C 218.412,257.088 214.912,262.088 212,267.5C 211.5,274.826 211.334,282.159 211.5,289.5C 207.5,287.5 203.5,285.5 199.5,283.5C 199.5,281.833 199.5,280.167 199.5,278.5C 200.329,273.547 200.663,268.547 200.5,263.5C 201.059,259.147 201.725,254.814 202.5,250.5 Z"/></g>
<g><path style="opacity:1" fill="#fef9f5" d="M 225.5,251.5 C 222.614,257.604 219.447,263.604 216,269.5C 216.397,276.477 216.397,283.477 216,290.5C 214.468,295.973 212.635,301.306 210.5,306.5C 201.142,319.874 193.309,334.207 187,349.5C 186.261,350.574 185.261,351.241 184,351.5C 177.711,347.046 171.878,342.046 166.5,336.5C 180.048,327.619 192.714,317.619 204.5,306.5C 207.01,300.985 209.344,295.319 211.5,289.5C 211.334,282.159 211.5,274.826 212,267.5C 214.912,262.088 218.412,257.088 222.5,252.5C 223.391,251.89 224.391,251.557 225.5,251.5 Z"/></g>
<g><path style="opacity:1" fill="#b30a2d" d="M 200.5,263.5 C 200.663,268.547 200.329,273.547 199.5,278.5C 175.175,270.334 150.508,269.334 125.5,275.5C 122.401,271.352 122.067,267.018 124.5,262.5C 149.92,254.196 175.253,254.529 200.5,263.5 Z"/></g>
<g><path style="opacity:1" fill="#fcf2f4" d="M 199.5,278.5 C 199.5,280.167 199.5,281.833 199.5,283.5C 189.883,281.242 180.216,279.075 170.5,277C 155.222,276.055 140.389,278.222 126,283.5C 124.268,283.266 123.434,282.266 123.5,280.5C 123.902,278.7 124.569,277.033 125.5,275.5C 150.508,269.334 175.175,270.334 199.5,278.5 Z"/></g>
<g><path style="opacity:1" fill="#fefcfb" d="M 188.5,301.5 C 188.433,302.959 188.766,304.292 189.5,305.5C 178.606,313.533 167.439,321.2 156,328.5C 144.997,320.985 134.164,313.318 123.5,305.5C 133.466,301.234 143.8,298.068 154.5,296C 162.5,295.333 170.5,295.333 178.5,296C 182.211,297.227 185.545,299.06 188.5,301.5 Z"/></g>
<g><path style="opacity:1" fill="#f2c02b" d="M 193.5,301.5 C 193.106,303.71 191.773,305.043 189.5,305.5C 188.766,304.292 188.433,302.959 188.5,301.5C 190.284,300.28 191.95,300.28 193.5,301.5 Z"/></g>
<g><path style="opacity:1" fill="#d7173c" d="M 85.5,314.5 C 79.1708,319.996 73.3375,325.996 68,332.5C 59.8491,343.119 56.0158,355.119 56.5,368.5C 56.6929,375.903 57.1929,383.236 58,390.5C 54.6567,395.218 50.1567,396.718 44.5,395C 42.6667,394.5 41.5,393.333 41,391.5C 29.8845,359.025 37.0512,331.359 62.5,308.5C 63.1174,308.389 63.6174,308.056 64,307.5C 70.7341,311.579 77.9007,313.912 85.5,314.5 Z"/></g>
<g><path style="opacity:1" fill="#b41130" d="M 247.5,308.5 C 273.84,330.187 281.34,357.187 270,389.5C 269.315,392.057 267.815,393.891 265.5,395C 259.285,396.06 254.952,393.727 252.5,388C 261.35,357.039 252.35,332.872 225.5,315.5C 232.851,313.49 240.184,311.157 247.5,308.5 Z"/></g>
<g><path style="opacity:1" fill="#fefdfa" d="M 109.5,312.5 C 112.527,314.86 115.194,317.527 117.5,320.5C 146.937,349.444 178.604,375.611 212.5,399C 199.464,395.991 187.131,390.991 175.5,384C 157.21,372.217 140.543,358.384 125.5,342.5C 118.043,333.924 112.376,324.257 108.5,313.5C 109.167,313.5 109.5,313.167 109.5,312.5 Z"/></g>
<g><path style="opacity:1" fill="#f3c728" d="M 125.5,342.5 C 140.543,358.384 157.21,372.217 175.5,384C 187.131,390.991 199.464,395.991 212.5,399C 178.604,375.611 146.937,349.444 117.5,320.5C 117.962,319.12 118.962,318.453 120.5,318.5C 122.266,319.091 123.933,319.924 125.5,321C 165.142,353.646 205.642,385.146 247,415.5C 248.202,419.793 247.035,423.293 243.5,426C 234.406,427.399 225.739,426.065 217.5,422C 182.6,402.786 152.1,377.952 126,347.5C 125.506,345.866 125.34,344.199 125.5,342.5 Z"/></g>
<g><path style="opacity:1" fill="#fefcfa" d="M 137.5,380.5 C 115.334,396.254 91.3337,408.921 65.5,418.5C 64.8933,418.376 64.56,418.043 64.5,417.5C 82.2367,400.259 101.57,385.093 122.5,372C 124.044,370.813 125.711,370.48 127.5,371C 130.703,374.371 134.036,377.538 137.5,380.5 Z"/></g>
<g><path style="opacity:1" fill="#f4c729" d="M 137.5,380.5 C 142.65,383.643 142.65,386.81 137.5,390C 121.047,404.736 102.714,416.736 82.5,426C 74.2592,428.281 67.5925,426.114 62.5,419.5C 62.8555,418.478 63.5222,417.811 64.5,417.5C 64.56,418.043 64.8933,418.376 65.5,418.5C 91.3337,408.921 115.334,396.254 137.5,380.5 Z"/></g>
</svg>
